/* XPM */
static char * collect_5_xpm[] = {
"64 64 231 2",
"  	c #89D0F0",
". 	c #8AD0F0",
"+ 	c #97CDE3",
"@ 	c #C2C2A8",
"# 	c #DBBA5D",
"$ 	c #E4B714",
"% 	c #E5B700",
"& 	c #E9BD15",
"* 	c #F6CE38",
"= 	c #FDD744",
"- 	c #FAD95A",
"; 	c #EED780",
"> 	c #CCD4B8",
", 	c #98D1E7",
"' 	c #A9C9D0",
") 	c #DEB956",
"! 	c #F0C62A",
"~ 	c #FED948",
"{ 	c #FFDA4A",
"] 	c #F1D879",
"^ 	c #ADD1D8",
"/ 	c #9CCCDF",
"( 	c #DBBA60",
"_ 	c #ECC120",
": 	c #FED848",
"< 	c #F6D86E",
"[ 	c #ACD2D8",
"} 	c #90CEEA",
"| 	c #D0BD85",
"1 	c #E9BC14",
"2 	c #FCD543",
"3 	c #EDD883",
"4 	c #9AD1E6",
"5 	c #B7C5BB",
"6 	c #E5B70B",
"7 	c #E5B701",
"8 	c #F6CE37",
"9 	c #FDD846",
"0 	c #FDD745",
"a 	c #D1D5B3",
"b 	c #8BD0EF",
"c 	c #94CEE7",
"d 	c #DBBB62",
"e 	c #EBBF1C",
"f 	c #FED847",
"g 	c #F2C92F",
"h 	c #EABE18",
"i 	c #E9BD14",
"j 	c #EBC01F",
"k 	c #F5CD37",
"l 	c #FAD860",
"m 	c #A3D1DF",
"n 	c #B5C5BE",
"o 	c #F4CB34",
"p 	c #EDC221",
"q 	c #E6B803",
"r 	c #F1C72C",
"s 	c #D0D5B3",
"t 	c #8ECFEC",
"u 	c #D5BC76",
"v 	c #E8BB0C",
"w 	c #E5B802",
"x 	c #F4CC35",
"y 	c #F3D873",
"z 	c #94D0EA",
"A 	c #A2CAD8",
"B 	c #EFC528",
"C 	c #F9D33F",
"D 	c #E6B907",
"E 	c #E8BB0F",
"F 	c #FBD543",
"G 	c #FFDA4C",
"H 	c #B7D2CF",
"I 	c #C0C3AC",
"J 	c #F8D13D",
"K 	c #EEC323",
"L 	c #DBD6A5",
"M 	c #8CD0EE",
"N 	c #D6BB72",
"O 	c #E9BC13",
"P 	c #FBD542",
"Q 	c #E7BA0B",
"R 	c #FDD746",
"S 	c #F4D871",
"T 	c #8DD0EE",
"U 	c #93CEE7",
"V 	c #E3B61A",
"W 	c #EDC325",
"X 	c #F2C930",
"Y 	c #EBC01A",
"Z 	c #F7D03A",
"` 	c #9DD1E4",
" .	c #A8C9D0",
"..	c #F3CB31",
"+.	c #EABE1B",
"@.	c #E6B906",
"#.	c #EFC52A",
"$.	c #FFDA49",
"%.	c #BBD3CB",
"&.	c #B9C4B6",
"*.	c #F8D03D",
"=.	c #FAD440",
"-.	c #E7B908",
";.	c #FED949",
">.	c #EEC325",
",.	c #EABD14",
"'.	c #FDD847",
").	c #D0D5B4",
"!.	c #C8C09C",
"~.	c #E7BA07",
"{.	c #FAD441",
"].	c #F6CE39",
"^.	c #E6B804",
"/.	c #FBD541",
"(.	c #F7D039",
"_.	c #E6B802",
":.	c #FCD644",
"<.	c #DFD69E",
"[.	c #D2BD81",
"}.	c #E8BC11",
"|.	c #F2C82C",
"1.	c #EFC526",
"2.	c #ECC01E",
"3.	c #F8D13A",
"4.	c #EBD887",
"5.	c #D9BA62",
"6.	c #FDD845",
"7.	c #EEC324",
"8.	c #F3CA32",
"9.	c #F1C72D",
"0.	c #F4CC34",
"a.	c #DDB84D",
"b.	c #EABE1C",
"c.	c #EBC020",
"d.	c #F4CB32",
"e.	c #FFD949",
"f.	c #F0C628",
"g.	c #F9D960",
"h.	c #EABF1F",
"i.	c #F5CC35",
"j.	c #F0C62F",
"k.	c #EDC323",
"l.	c #F0C62E",
"m.	c #EABE1E",
"n.	c #E6B904",
"o.	c #FED846",
"p.	c #F7CF3A",
"q.	c #EABB00",
"r.	c #FFCC00",
"s.	c #F6C500",
"t.	c #EFBF00",
"u.	c #F0C000",
"v.	c #E1B840",
"w.	c #FECB00",
"x.	c #ECBC00",
"y.	c #EBBC00",
"z.	c #F3C200",
"A.	c #FCCC2E",
"B.	c #E9BA00",
"C.	c #FDCA00",
"D.	c #EEBE00",
"E.	c #EBBB00",
"F.	c #F3C300",
"G.	c #F2CC62",
"H.	c #D3BD7D",
"I.	c #E8B900",
"J.	c #FCC900",
"K.	c #F1C100",
"L.	c #EDBD00",
"M.	c #F7C500",
"N.	c #E9CC7D",
"O.	c #C9C099",
"P.	c #E6B800",
"Q.	c #FAC800",
"R.	c #F6C400",
"S.	c #FCCA00",
"T.	c #FBC900",
"U.	c #DFCD94",
"V.	c #BDC4B2",
"W.	c #F7C600",
"X.	c #FDCB00",
"Y.	c #D2CEAD",
"Z.	c #ABC8CC",
"`.	c #F1C000",
" +	c #E7B800",
".+	c #E7B900",
"++	c #BDCEC5",
"@+	c #94CEE6",
"#+	c #F5C400",
"$+	c #A1CFDF",
"%+	c #8BD0EE",
"&+	c #D7BB6D",
"*+	c #F9C700",
"=+	c #F5CC57",
"-+	c #8ED0ED",
";+	c #C3C2A7",
">+	c #F8C700",
",+	c #F2C100",
"'+	c #DCCD9A",
")+	c #A3CAD6",
"!+	c #FFCC0B",
"~+	c #B7CFCD",
"{+	c #E6B700",
"]+	c #F3CC62",
"^+	c #91D0EB",
"/+	c #B9C5B8",
"(+	c #ECBD00",
"_+	c #D0CDAD",
":+	c #DCBA5E",
"<+	c #F8CC48",
"[+	c #A0CFE0",
"}+	c #CFCDAE",
"|+	c #91CEE9",
"1+	c #D3BD7E",
"2+	c #EDCC74",
"3+	c #98CFE6",
"4+	c #9FCBDB",
"5+	c #DEBA56",
"6+	c #FECC00",
"7+	c #F7CC51",
"8+	c #AACFD8",
"9+	c #A5CAD4",
"0+	c #DDB953",
"a+	c #F7CC53",
"b+	c #B5CECF",
"c+	c #99CDE1",
"d+	c #C8C09B",
"e+	c #E1B737",
"f+	c #FBCC37",
"g+	c #DCCD9B",
"h+	c #9FCFE1",
"                                                                                                                                ",
"                                                                                                                                ",
"                                                                                                                                ",
"                                                                                                                                ",
"                                                                                                                                ",
"                                                                                                                                ",
"                                                                                                                                ",
"                                                                                                                                ",
"                                                                                                                                ",
"                                                                                                                                ",
"                                                                                                                                ",
"                                                                                                                                ",
"                                                    . + @ # $ % & * = - ; > ,                                                   ",
"                                                    ' ) % % % ! ~ { { { { { ] ^ .                                               ",
"                                                  / ( % % % _ : { { { { { { { < [                                               ",
"                                                } | % % % 1 2 { { { { { { { { { 3 4                                             ",
"                                                5 6 % % 7 8 { { { { 9 0 ~ { { { { a b                                           ",
"                                              c d % % % e f { { 9 g h i j k ~ { { l m                                           ",
"                                              n % % % % o { { ~ p % % % % q r ~ { { s .                                         ",
"                                            t u % % % v 2 { { g 7 % % % % % w x { { y z                                         ",
"                                            A $ % % % B { { C D % % % % % % % E F { G H                                         ",
"                                            I % % % 7 J { { K % % % % % % % % % g { { L .                                       ",
"                                          M N % % % O 0 { P Q % % % % % % % % % & R { S T                                       ",
"                                          U V % % % W { { X % % % % q Y % % % % % Z { { `                                       ",
"                                           .% % % % ..{ ~ +.% % % % 1 P @.% % % % #.$.{ %.                                      ",
"                                          &.% % % 7 *.{ =.-.% % % % X ;.>.% % % % ,.'.{ ).                                      ",
"                                          !.% % % ~.{.{ ].7 % % % ^./.{ (.% % % % _.:.{ <.                                      ",
"                                          [.% % % }.:.{ |.% % % % 1.{ { '.2.% % % % 3.{ 4.                                      ",
"                                          5.% % % & 6.{ 7.% % q 8.~ { { { R 9.^.% % 0.{ y                                       ",
"                                          a.% % % b.;.{ c.% % d.{ { { { { { e.f.% % X { g.                                      ",
"                                          6 % % % h.{ { h.% % i.{ { { { { { { B % % j.{ {                                       ",
"                                          % % % % h.{ { h.% % k.$.{ { { { { 0 1 % % l.{ {                                       ",
"                                          % % % % m.e.e.m.% % n.o.e.e.e.e.e.p.% % % l.e.e.                                      ",
"                                          % % % % q.r.r.q.% % % s.r.r.r.r.r.t.% % % u.r.r.                                      ",
"                                          v.% % % q.w.r.x.% % % t.r.r.r.r.w.y.% % % z.r.A.                                      ",
"                                          ( % % % B.C.r.D.% % % t.r.r.r.r.w.E.% % % F.r.G.                                      ",
"                                          H.% % % I.J.r.K.% % % L.r.r.r.r.C.q.% % % M.r.N.                                      ",
"                                          O.% % % P.Q.r.R.% % % y.r.r.r.r.S.B.% % % T.r.U.                                      ",
"                                          V.% % % % W.r.Q.P.% % y.r.Q.z.J.S.B.% % B.X.r.Y.                                      ",
"                                          Z.% % % % z.r.w.B.% % B.`. +% I.`..+% % D.r.r.++                                      ",
"                                          @+% % % % L.r.r.u.% % % % % % % % % % % #+r.r.$+                                      ",
"                                          %+&+% % % B.C.r.*+P.% % % % % % % % % I.S.r.=+-+                                      ",
"                                            ;+% % % % >+r.r.x.% % % % % % % % % ,+r.r.'+.                                       ",
"                                            )+6 % % % u.r.r.*+P.% % % % % % % .+T.r.!+~+                                        ",
"                                            t &+% % % B.C.r.r.u.% % % % % % {+z.r.r.]+^+                                        ",
"                                              /+% % % % s.r.r.X.(+% % % % % u.w.r.r._+.                                         ",
"                                              @+:+% % % y.w.r.r.C.u.B.I.q.z.w.r.r.<+[+                                          ",
"                                                5 6 % % % R.r.r.r.r.S.J.C.r.r.r.r.}+b                                           ",
"                                                |+1+% % % B.C.r.r.r.r.r.r.r.r.r.2+3+                                            ",
"                                                  4+5+% % % D.6+r.r.r.r.r.r.r.7+8+                                              ",
"                                                    9+0+% % % t.w.r.r.r.r.r.a+b+.                                               ",
"                                                    . c+d+e+% % y.>+r.r.f+g+h+.                                                 ",
"                                                                                                                                ",
"                                                                                                                                ",
"                                                                                                                                ",
"                                                                                                                                ",
"                                                                                                                                ",
"                                                                                                                                ",
"                                                                                                                                ",
"                                                                                                                                ",
"                                                                                                                                ",
"                                                                                                                                ",
"                                                                                                                                ",
"                                                                                                                                "};
