/* XPM */
static char * collect_3_xpm[] = {
"64 64 231 2",
"  	c #89D0F0",
". 	c #98D1E7",
"+ 	c #CCD4B8",
"@ 	c #EED780",
"# 	c #FAD95A",
"$ 	c #FDD744",
"% 	c #F6CE38",
"& 	c #E9BD15",
"* 	c #E5B700",
"= 	c #E4B714",
"- 	c #DBBA5D",
"; 	c #C2C2A8",
"> 	c #97CDE3",
", 	c #8AD0F0",
"' 	c #ADD1D8",
") 	c #F1D879",
"! 	c #FFDA4A",
"~ 	c #FED948",
"{ 	c #F0C62A",
"] 	c #DEB956",
"^ 	c #A9C9D0",
"/ 	c #ACD2D8",
"( 	c #F6D86E",
"_ 	c #FED848",
": 	c #ECC120",
"< 	c #DBBA60",
"[ 	c #9CCCDF",
"} 	c #9AD1E6",
"| 	c #EDD883",
"1 	c #FCD543",
"2 	c #E9BC14",
"3 	c #D0BD85",
"4 	c #90CEEA",
"5 	c #8BD0EF",
"6 	c #D1D5B3",
"7 	c #FDD745",
"8 	c #FDD846",
"9 	c #F6CE37",
"0 	c #E5B701",
"a 	c #E5B70B",
"b 	c #B7C5BB",
"c 	c #A3D1DF",
"d 	c #FAD860",
"e 	c #F5CD37",
"f 	c #EBC01F",
"g 	c #E9BD14",
"h 	c #EABE18",
"i 	c #F2C92F",
"j 	c #FED847",
"k 	c #EBBF1C",
"l 	c #DBBB62",
"m 	c #94CEE7",
"n 	c #D0D5B3",
"o 	c #F1C72C",
"p 	c #E6B803",
"q 	c #EDC221",
"r 	c #F4CB34",
"s 	c #B5C5BE",
"t 	c #94D0EA",
"u 	c #F3D873",
"v 	c #F4CC35",
"w 	c #E5B802",
"x 	c #E8BB0C",
"y 	c #D5BC76",
"z 	c #8ECFEC",
"A 	c #B7D2CF",
"B 	c #FFDA4C",
"C 	c #FBD543",
"D 	c #E8BB0F",
"E 	c #E6B907",
"F 	c #F9D33F",
"G 	c #EFC528",
"H 	c #A2CAD8",
"I 	c #DBD6A5",
"J 	c #EEC323",
"K 	c #F8D13D",
"L 	c #C0C3AC",
"M 	c #8DD0EE",
"N 	c #F4D871",
"O 	c #FDD746",
"P 	c #E7BA0B",
"Q 	c #FBD542",
"R 	c #E9BC13",
"S 	c #D6BB72",
"T 	c #8CD0EE",
"U 	c #9DD1E4",
"V 	c #F7D03A",
"W 	c #EBC01A",
"X 	c #F2C930",
"Y 	c #EDC325",
"Z 	c #E3B61A",
"` 	c #93CEE7",
" .	c #BBD3CB",
"..	c #FFDA49",
"+.	c #EFC52A",
"@.	c #E6B906",
"#.	c #EABE1B",
"$.	c #F3CB31",
"%.	c #A8C9D0",
"&.	c #D0D5B4",
"*.	c #FDD847",
"=.	c #EABD14",
"-.	c #EEC325",
";.	c #FED949",
">.	c #E7B908",
",.	c #FAD440",
"'.	c #F8D03D",
").	c #B9C4B6",
"!.	c #DFD69E",
"~.	c #FCD644",
"{.	c #E6B802",
"].	c #F7D039",
"^.	c #FBD541",
"/.	c #E6B804",
"(.	c #F6CE39",
"_.	c #FAD441",
":.	c #E7BA07",
"<.	c #C8C09C",
"[.	c #EBD887",
"}.	c #F8D13A",
"|.	c #ECC01E",
"1.	c #EFC526",
"2.	c #F2C82C",
"3.	c #E8BC11",
"4.	c #D2BD81",
"5.	c #F4CC34",
"6.	c #F1C72D",
"7.	c #F3CA32",
"8.	c #EEC324",
"9.	c #FDD845",
"0.	c #D9BA62",
"a.	c #F9D960",
"b.	c #F0C628",
"c.	c #FFD949",
"d.	c #F4CB32",
"e.	c #EBC020",
"f.	c #EABE1C",
"g.	c #DDB84D",
"h.	c #F0C62F",
"i.	c #F5CC35",
"j.	c #EABF1F",
"k.	c #F0C62E",
"l.	c #EDC323",
"m.	c #F7CF3A",
"n.	c #FED846",
"o.	c #E6B904",
"p.	c #EABE1E",
"q.	c #FFCC00",
"r.	c #F0C000",
"s.	c #EFBF00",
"t.	c #F6C500",
"u.	c #EABB00",
"v.	c #FCCC2E",
"w.	c #F3C200",
"x.	c #EBBC00",
"y.	c #FECB00",
"z.	c #ECBC00",
"A.	c #E1B840",
"B.	c #F2CC62",
"C.	c #F3C300",
"D.	c #EBBB00",
"E.	c #EEBE00",
"F.	c #FDCA00",
"G.	c #E9BA00",
"H.	c #E9CC7D",
"I.	c #F7C500",
"J.	c #EDBD00",
"K.	c #F1C100",
"L.	c #FCC900",
"M.	c #E8B900",
"N.	c #D3BD7D",
"O.	c #DFCD94",
"P.	c #FBC900",
"Q.	c #FCCA00",
"R.	c #F6C400",
"S.	c #FAC800",
"T.	c #E6B800",
"U.	c #C9C099",
"V.	c #D2CEAD",
"W.	c #FDCB00",
"X.	c #F7C600",
"Y.	c #BDC4B2",
"Z.	c #BDCEC5",
"`.	c #E7B900",
" +	c #F1C000",
".+	c #E7B800",
"++	c #ABC8CC",
"@+	c #A1CFDF",
"#+	c #F5C400",
"$+	c #94CEE6",
"%+	c #8ED0ED",
"&+	c #F5CC57",
"*+	c #F9C700",
"=+	c #D7BB6D",
"-+	c #8BD0EE",
";+	c #DCCD9A",
">+	c #F2C100",
",+	c #F8C700",
"'+	c #C3C2A7",
")+	c #B7CFCD",
"!+	c #FFCC0B",
"~+	c #A3CAD6",
"{+	c #91D0EB",
"]+	c #F3CC62",
"^+	c #E6B700",
"/+	c #D0CDAD",
"(+	c #ECBD00",
"_+	c #B9C5B8",
":+	c #A0CFE0",
"<+	c #F8CC48",
"[+	c #DCBA5E",
"}+	c #CFCDAE",
"|+	c #98CFE6",
"1+	c #EDCC74",
"2+	c #D3BD7E",
"3+	c #91CEE9",
"4+	c #AACFD8",
"5+	c #F7CC51",
"6+	c #FECC00",
"7+	c #DEBA56",
"8+	c #9FCBDB",
"9+	c #B5CECF",
"0+	c #F7CC53",
"a+	c #DDB953",
"b+	c #A5CAD4",
"c+	c #9FCFE1",
"d+	c #DCCD9B",
"e+	c #FBCC37",
"f+	c #E1B737",
"g+	c #C8C09B",
"h+	c #99CDE1",
"                                                                                                                                ",
"                                                                                                                                ",
"                                                                                                                                ",
"                                                                                                                                ",
"                                                                                                                                ",
"                                                                                                                                ",
"                                                                                                                                ",
"                                                                                                                                ",
"                                                                                                                                ",
"                                                                                                                                ",
"                                                                                                                                ",
"                                                                                                                                ",
"                                                      . + @ # $ % & * = - ; > ,                                                 ",
"                                                  , ' ) ! ! ! ! ! ~ { * * * ] ^                                                 ",
"                                                  / ( ! ! ! ! ! ! ! _ : * * * < [                                               ",
"                                                } | ! ! ! ! ! ! ! ! ! 1 2 * * * 3 4                                             ",
"                                              5 6 ! ! ! ! ~ 7 8 ! ! ! ! 9 0 * * a b                                             ",
"                                              c d ! ! ~ e f g h i 8 ! ! j k * * * l m                                           ",
"                                            , n ! ! ~ o p * * * * q ~ ! ! r * * * * s                                           ",
"                                            t u ! ! v w * * * * * 0 i ! ! 1 x * * * y z                                         ",
"                                            A B ! C D * * * * * * * E F ! ! G * * * = H                                         ",
"                                          , I ! ! i * * * * * * * * * J ! ! K 0 * * * L                                         ",
"                                          M N ! O & * * * * * * * * * P Q ! 7 R * * * S T                                       ",
"                                          U ! ! V * * * * * W p * * * * X ! ! Y * * * Z `                                       ",
"                                           .! ..+.* * * * @.Q 2 * * * * #.~ ! $.* * * * %.                                      ",
"                                          &.! *.=.* * * * -.;.X * * * * >.,.! '.0 * * * ).                                      ",
"                                          !.! ~.{.* * * * ].! ^./.* * * 0 (.! _.:.* * * <.                                      ",
"                                          [.! }.* * * * |.*.! ! 1.* * * * 2.! ~.3.* * * 4.                                      ",
"                                          u ! 5.* * /.6.O ! ! ! ~ 7.p * * 8.! 9.& * * * 0.                                      ",
"                                          a.! X * * b.c.! ! ! ! ! ! d.* * e.! ;.f.* * * g.                                      ",
"                                          ! ! h.* * G ! ! ! ! ! ! ! i.* * j.! ! j.* * * a                                       ",
"                                          ! ! k.* * 2 7 ! ! ! ! ! ..l.* * j.! ! j.* * * *                                       ",
"                                          c.c.k.* * * m.c.c.c.c.c.n.o.* * p.c.c.p.* * * *                                       ",
"                                          q.q.r.* * * s.q.q.q.q.q.t.* * * u.q.q.u.* * * *                                       ",
"                                          v.q.w.* * * x.y.q.q.q.q.s.* * * z.q.y.u.* * * A.                                      ",
"                                          B.q.C.* * * D.y.q.q.q.q.s.* * * E.q.F.G.* * * <                                       ",
"                                          H.q.I.* * * u.F.q.q.q.q.J.* * * K.q.L.M.* * * N.                                      ",
"                                          O.q.P.* * * G.Q.q.q.q.q.x.* * * R.q.S.T.* * * U.                                      ",
"                                          V.q.W.G.* * G.Q.L.w.S.q.x.* * T.S.q.X.* * * * Y.                                      ",
"                                          Z.q.q.E.* * `. +M.* .+ +G.* * G.y.q.w.* * * * ++                                      ",
"                                          @+q.q.#+* * * * * * * * * * * r.q.q.J.* * * * $+                                      ",
"                                          %+&+q.Q.M.* * * * * * * * * T.*+q.F.G.* * * =+-+                                      ",
"                                          , ;+q.q.>+* * * * * * * * * z.q.q.,+* * * * '+                                        ",
"                                            )+!+q.P.`.* * * * * * * T.*+q.q.r.* * * a ~+                                        ",
"                                            {+]+q.q.w.^+* * * * * * r.q.q.F.G.* * * =+z                                         ",
"                                            , /+q.q.y.r.* * * * * (+W.q.q.t.* * * * _+                                          ",
"                                              :+<+q.q.y.w.u.M.G.r.F.q.q.y.x.* * * [+$+                                          ",
"                                              5 }+q.q.q.q.F.L.Q.q.q.q.q.R.* * * a b                                             ",
"                                                |+1+q.q.q.q.q.q.q.q.q.F.G.* * * 2+3+                                            ",
"                                                  4+5+q.q.q.q.q.q.q.6+E.* * * 7+8+                                              ",
"                                                  , 9+0+q.q.q.q.q.y.s.* * * a+b+                                                ",
"                                                    , c+d+e+q.q.,+x.* * f+g+h+,                                                 ",
"                                                                                                                                ",
"                                                                                                                                ",
"                                                                                                                                ",
"                                                                                                                                ",
"                                                                                                                                ",
"                                                                                                                                ",
"                                                                                                                                ",
"                                                                                                                                ",
"                                                                                                                                ",
"                                                                                                                                ",
"                                                                                                                                ",
"                                                                                                                                "};
