/* XPM */
static char * collect_4_xpm[] = {
"64 64 21 1",
" 	c #89D0F0",
".	c #AED2D7",
"+	c #EFD87C",
"@	c #FCDA56",
"#	c #FFDA4A",
"$	c #FEDA4F",
"%	c #F4D871",
"&	c #C4D4C2",
"*	c #DDD6A1",
"=	c #DDD6A2",
"-	c #FFD949",
";	c #F4D870",
">	c #DDCD99",
",	c #FFCC00",
"'	c #F4CC5C",
")	c #DACD9D",
"!	c #F1CC65",
"~	c #AFCED4",
"{	c #FBCC3B",
"]	c #FECC1A",
"^	c #C8CEB9",
"                                                                ",
"                                                                ",
"                                                                ",
"                                                                ",
"                                                                ",
"                                                                ",
"                                                                ",
"                                                                ",
"                                                                ",
"                                                                ",
"                                                                ",
"                                                                ",
"                             .+@#$%&                            ",
"                             *#####%                            ",
"                             =#####%                            ",
"                             =#####%                            ",
"                             =#####%                            ",
"                             =#####%                            ",
"                             =#####%                            ",
"                             =#####%                            ",
"                             =#####%                            ",
"                             =#####%                            ",
"                             =#####%                            ",
"                             =#####%                            ",
"                             =#####%                            ",
"                             =#####%                            ",
"                             =#####%                            ",
"                             =#####%                            ",
"                             =#####%                            ",
"                             =#####%                            ",
"                             =#####%                            ",
"                             =#####%                            ",
"                             =-----;                            ",
"                             >,,,,,'                            ",
"                             >,,,,,'                            ",
"                             >,,,,,'                            ",
"                             >,,,,,'                            ",
"                             >,,,,,'                            ",
"                             >,,,,,'                            ",
"                             >,,,,,'                            ",
"                             >,,,,,'                            ",
"                             >,,,,,'                            ",
"                             >,,,,,'                            ",
"                             >,,,,,'                            ",
"                             >,,,,,'                            ",
"                             >,,,,,'                            ",
"                             >,,,,,'                            ",
"                             >,,,,,'                            ",
"                             >,,,,,'                            ",
"                             >,,,,,'                            ",
"                             ),,,,,!                            ",
"                             ~{,,,]^                            ",
"                                                                ",
"                                                                ",
"                                                                ",
"                                                                ",
"                                                                ",
"                                                                ",
"                                                                ",
"                                                                ",
"                                                                ",
"                                                                ",
"                                                                ",
"                                                                "};
