/* XPM */
static char * collect_xpm[] = {
"64 64 256 2",
"  	c #89D0F0",
". 	c #8AD0F0",
"+ 	c #90D0EB",
"@ 	c #B0CFD3",
"# 	c #CDCEB2",
"$ 	c #E1CD90",
"% 	c #EECC70",
"& 	c #F4CC5C",
"* 	c #FACC39",
"= 	c #FFCC00",
"- 	c #F9CC3E",
"; 	c #F3CC60",
"> 	c #E8CC81",
", 	c #D3CDAA",
"' 	c #B9CECB",
") 	c #95CFE8",
"! 	c #8AD0EF",
"~ 	c #8DD0EE",
"{ 	c #A7CFDB",
"] 	c #D7CDA3",
"^ 	c #F7CB4C",
"/ 	c #FFCC01",
"( 	c #FFCC04",
"_ 	c #FFCD05",
": 	c #FFCD08",
"< 	c #FFCD0B",
"[ 	c #FFCD07",
"} 	c #FFCD04",
"| 	c #F9CC44",
"1 	c #DACD9F",
"2 	c #A4CFDD",
"3 	c #E1CD91",
"4 	c #FDCC23",
"5 	c #FFCD09",
"6 	c #FFCF1A",
"7 	c #FFD22A",
"8 	c #FFD539",
"9 	c #FFD73D",
"0 	c #FFD73F",
"a 	c #FFD841",
"b 	c #FFD843",
"c 	c #FFD840",
"d 	c #FFD73E",
"e 	c #FFD53A",
"f 	c #FFD32D",
"g 	c #FFCF1B",
"h 	c #FACC42",
"i 	c #CFCEB0",
"j 	c #96D0E8",
"k 	c #90D0EC",
"l 	c #CACEB6",
"m 	c #FFCE12",
"n 	c #FFD22D",
"o 	c #FFD740",
"p 	c #FFDA49",
"q 	c #FFDA4A",
"r 	c #F0CD6A",
"s 	c #B1CFD2",
"t 	c #97CFE7",
"u 	c #DECD96",
"v 	c #FECC1A",
"w 	c #FFCC03",
"x 	c #FFD844",
"y 	c #FDD846",
"z 	c #FCD643",
"A 	c #FFD949",
"B 	c #FFCF1E",
"C 	c #FBCC3B",
"D 	c #CECEB1",
"E 	c #91D0EB",
"F 	c #9ACFE4",
"G 	c #FECC14",
"H 	c #FFCD12",
"I 	c #FCD644",
"J 	c #F6CE38",
"K 	c #F0C629",
"L 	c #EBC021",
"M 	c #EABE18",
"N 	c #E8BB0E",
"O 	c #EABD17",
"P 	c #EBC020",
"Q 	c #FFD947",
"R 	c #FFD331",
"S 	c #FECC1F",
"T 	c #D7CDA2",
"U 	c #92D0EB",
"V 	c #95D0E8",
"W 	c #E2CD8B",
"X 	c #FFCC0B",
"Y 	c #FFCE18",
"Z 	c #FBD441",
"` 	c #F0C62A",
" .	c #E8BB12",
"..	c #E5B700",
"+.	c #E5B701",
"@.	c #E8BB11",
"#.	c #F2C92F",
"$.	c #FDD746",
"%.	c #FFD639",
"&.	c #FFCD0C",
"*.	c #D9CD9F",
"=.	c #8FD0ED",
"-.	c #DBCE9C",
";.	c #FFCD13",
">.	c #FFD741",
",.	c #FED949",
"'.	c #F3CA31",
").	c #E7BA0D",
"!.	c #EABD16",
"~.	c #F7D03B",
"{.	c #FFD63C",
"].	c #CFCDAF",
"^.	c #8BD0EF",
"/.	c #C4CEBE",
"(.	c #FED947",
"_.	c #EEC325",
":.	c #E6B805",
"<.	c #FFD538",
"[.	c #FCCC34",
"}.	c #A4CFDE",
"|.	c #F9CC48",
"1.	c #FFCC02",
"2.	c #FFD537",
"3.	c #EDC324",
"4.	c #EFC528",
"5.	c #FFD332",
"6.	c #F3CD61",
"7.	c #99CFE5",
"8.	c #FFD125",
"9.	c #F0C62B",
"0.	c #FFD020",
"a.	c #D9CEA0",
"b.	c #A9CFD9",
"c.	c #FFCD0D",
"d.	c #F6CD37",
"e.	c #E6B803",
"f.	c #EDBE00",
"g.	c #EDBD00",
"h.	c #A6CFDC",
"i.	c #ECBD00",
"j.	c #FECB00",
"k.	c #EBBC00",
"l.	c #E8BC12",
"m.	c #D5CDA6",
"n.	c #93D0EA",
"o.	c #F1C72D",
"p.	c #E9BA00",
"q.	c #FCCA00",
"r.	c #FBC900",
"s.	c #FFD63D",
"t.	c #FFCC05",
"u.	c #F5CC54",
"v.	c #B5CECE",
"w.	c #E7B900",
"x.	c #F9C700",
"y.	c #FFD124",
"z.	c #FFD023",
"A.	c #F8C600",
"B.	c #E6B800",
"C.	c #FFDA48",
"D.	c #FFCE19",
"E.	c #AECFD5",
"F.	c #D1CEAC",
"G.	c #FFD22C",
"H.	c #E6B700",
"I.	c #F7C500",
"J.	c #FFD946",
"K.	c #FFCE17",
"L.	c #F5C400",
"M.	c #EABB00",
"N.	c #F6CE37",
"O.	c #FFD126",
"P.	c #E6CC85",
"Q.	c #EFC428",
"R.	c #E8B900",
"S.	c #F0C000",
"T.	c #FDCB00",
"U.	c #FFCE14",
"V.	c #FFCD0E",
"W.	c #EFBF00",
"X.	c #EFC527",
"Y.	c #E3CD8B",
"Z.	c #FED948",
"`.	c #EBBF1D",
" +	c #FDCA00",
".+	c #FFCE13",
"++	c #FFD32F",
"@+	c #FFD842",
"#+	c #FFCE11",
"$+	c #F1CC66",
"%+	c #FFCD0A",
"&+	c #E9BC11",
"*+	c #FFD435",
"=+	c #FBCB34",
"-+	c #FFD22B",
";+	c #FFD127",
">+	c #E8BC10",
",+	c #FCD542",
"'+	c #FFD63A",
")+	c #E8BA00",
"!+	c #EFCC6B",
"~+	c #FAC800",
"{+	c #E6CD84",
"]+	c #F8C700",
"^+	c #EEBE00",
"/+	c #D4CDA8",
"(+	c #F5C300",
"_+	c #D0CDAD",
":+	c #AFCFD4",
"<+	c #F7C600",
"[+	c #F4C300",
"}+	c #B1CED2",
"|+	c #F6CB4F",
"1+	c #F1C100",
"2+	c #F3C200",
"3+	c #F2C100",
"4+	c #DACD9D",
"5+	c #D7CDA4",
"6+	c #ADCFD6",
"7+	c #FBCC37",
"8+	c #8ED0ED",
"9+	c #E3CD8C",
"0+	c #AACFD8",
"a+	c #F7CC53",
"b+	c #9FCFE2",
"c+	c #FDCC27",
"d+	c #C0CEC2",
"e+	c #DDCD99",
"f+	c #F3C300",
"g+	c #E7B800",
"h+	c #E2CD8F",
"i+	c #94D0E9",
"j+	c #9ECFE2",
"k+	c #EACC7C",
"l+	c #9CCFE4",
"m+	c #FCC900",
"n+	c #D8CDA1",
"o+	c #C8CEBA",
"p+	c #F8CC4D",
"q+	c #C1CEC0",
"r+	c #DDCD98",
"s+	c #A1CFE0",
"t+	c #8FD0EC",
"u+	c #B2CFD1",
"v+	c #E0CD92",
"w+	c #F8CC4A",
"x+	c #FACC3E",
"y+	c #DBCD9D",
"z+	c #AACFD9",
"A+	c #8CD0EE",
"B+	c #BCCEC7",
"C+	c #EBCC78",
"D+	c #FCCC2E",
"E+	c #FACB39",
"F+	c #EDCC74",
"G+	c #96CFE8",
"                                                                                                                                ",
"                                                                                                                                ",
"                                                                                                                                ",
"                                                                                                                                ",
"                                                                                                                                ",
"                                                                                                                                ",
"                                                                                                                                ",
"                                                                                                                                ",
"                                                                                                                                ",
"                                                                                                                                ",
"                                                                                                                                ",
"                                                . + @ # $ % & * = - ; > , ' ) !                                                 ",
"                                            ~ { ] ^ = = / ( _ : < [ } / = = | 1 { .                                             ",
"                                        ! 2 3 4 = 5 6 7 8 9 0 a b c d e f g [ = h i j                                           ",
"                                      k l h = m n o p q q q q q q q q q q p 0 7 [ = r s !                                       ",
"                                    t u v w 7 x q q q q q p y y z y A q q q q p d B = C D E                                     ",
"                                  F > G H 8 p q q q I J K L M M N O P K J I q q q Q R _ S T U                                   ",
"                                V W X Y o q q q Z `  ...................+.@.#.$.q q q %.&.v *.=.                                ",
"                              =.-.G ;.>.q q ,.'.)...........................+.!.~.q q q {.&.4 ].^.                              ",
"                            . /.S < 0 q q (._.+.................................:.'.q q q <._ [.'                               ",
"                            }.|.1.2.q q A 3.......................................+.4.A q q 5.= 6.7.                            ",
"                          ~ u = 8.p q q 9.............................................K q q Q 0.= a.^.                          ",
"                          b.4 c.>.q q d.e.....................f.g.....................e.d.q q 0 5 4 h.                          ",
"                        ! 1 = 7 q q z @.....................i.j.j.k.....................l.I q p 8.= m..                         ",
"                        n.| [ 0 q q o.....................p.q.= = r.p.....................o.q q s.t.u.E                         ",
"                        v.= 6 p q I  ...................w.x.= y.z.= A.B...................@.I q C.D.= E.                        ",
"                        F.= G.q q J +...............H.k.I.= 6 J.J.K.= L.M.H...............+.N.q q O.= D                         ",
"                        P./ e q q Q.............R.S.x.T.= U.b q q 0 V.= T.A.W.R.............X.q q <.= Y.                        ",
"                        ; _ d q Z.`...........W. += = .+++b q q q q @+n #+= =  +W...........L p q 9 w $+                        ",
"                        v %+@+q I &+..........i.= } *+Q q q q q q q q q Q *+} = i...........M y q a : =+                        ",
"                        = < b q z N ............L.= -+p q q q q q q q q p ;+= L.............>+I q b < =                         ",
"                        = < @+A ,+N ............w.r.w '+A A A A A A A A 2.1.r.w.............N ,+A @+< =                         ",
"                        - = = =  +p...............f.j.= = = = = = = = = = j.f...............)+q.= = = v                         ",
"                        !+= = = = k...............B.~+= = = = = = = = = = ~+B...............M.j.= = = ;                         ",
"                        {+= = = = S.................]+= = = = = = = = = = A.................^+= = = = P.                        ",
"                        /+= = = = L.................A.= = = = = = = = = = I.................(+= = = = _+                        ",
"                        :+= = = = r.w...............<+= = = = = = = = = = [+..............w.r.= = = = }+                        ",
"                        k |+= = = = W...............L.= =  +A.1+2+x.j.= = 3+..............W.= = = = |+E                         ",
"                        ! 4+= = = = ~+w.............i.[+f.R.B.....B.p.W.L.k.............w.~+= = = = 5+.                         ",
"                          6+v = = = = [+................................................2+= = = = 7+}.                          ",
"                          8+9+= = = = j.f.............................................f.j.= = = = 4+^.                          ",
"                            0+7+= = = = j.i.........................................g.j.= = = = a+b+                            ",
"                            ! l v = = = = j.f...................................H.W.= = = = = c+d+                              ",
"                              k e+G = = = = j.f+w.............................w.L.j.= = = = v ] 8+                              ",
"                                t P.X = = = = = ~+^+g+....................w.W.r.= = = = = G h+i+                                ",
"                                  j+k+X = = = = = = ~+[+g.M.)+R.R.R.p.g.[+r.= = = = = = v e+t                                   ",
"                                    l+3 v = = = = = = = = j.q.m+m+m+ += = = = = = = = c+n+U                                     ",
"                                      k o+h = = = = = = = = = = = = = = = = = = = = p+q+8+                                      ",
"                                        . b.> = = = = = = = = = = = = = = = = = v r+s+.                                         ",
"                                            t+u+v+w+= = = = = = = = = = = = x+y+z+A+                                            ",
"                                                ^.i+B+n+C+D+= = = = E+F+*.B+G+!                                                 ",
"                                                                                                                                ",
"                                                                                                                                ",
"                                                                                                                                ",
"                                                                                                                                ",
"                                                                                                                                ",
"                                                                                                                                ",
"                                                                                                                                ",
"                                                                                                                                ",
"                                                                                                                                ",
"                                                                                                                                ",
"                                                                                                                                ",
"                                                                                                                                ",
"                                                                                                                                "};
