/* XPM */
static char * collect_2_xpm[] = {
"64 64 255 2",
"  	c #89D0F0",
". 	c #92D0EB",
"+ 	c #BCD3CB",
"@ 	c #DCD6A2",
"# 	c #F0D87A",
"$ 	c #F7D868",
"% 	c #FFDA4C",
"& 	c #FCD643",
"* 	c #F9D13C",
"= 	c #F0C837",
"- 	c #DFBE5F",
"; 	c #CFBF8B",
"> 	c #B5C6BF",
", 	c #93CEE7",
"' 	c #8FD0ED",
") 	c #C0D3C6",
"! 	c #F3D872",
"~ 	c #FFDA4A",
"{ 	c #FDD846",
"] 	c #F2C930",
"^ 	c #E7B907",
"/ 	c #DDB954",
"( 	c #B5C5BF",
"_ 	c #8BD0EF",
": 	c #9CD1E4",
"< 	c #E4D694",
"[ 	c #FFDA49",
"} 	c #F6CF39",
"| 	c #E8BB11",
"1 	c #E3B71A",
"2 	c #C3C2A7",
"3 	c #90CFEB",
"4 	c #A1D1E1",
"5 	c #EFD780",
"6 	c #FBD442",
"7 	c #E8BC14",
"8 	c #E5B70B",
"9 	c #D0BE87",
"0 	c #94CEE6",
"a 	c #EAD788",
"b 	c #FED948",
"c 	c #FCD644",
"d 	c #FED847",
"e 	c #FAD340",
"f 	c #E7BA0B",
"g 	c #CDBF90",
"h 	c #91CEE9",
"i 	c #8ED0ED",
"j 	c #DED69F",
"k 	c #F1C72C",
"l 	c #EBBF1E",
"m 	c #EABE18",
"n 	c #E8BC10",
"o 	c #EABE1B",
"p 	c #EFC527",
"q 	c #F8D03B",
"r 	c #F7D03A",
"s 	c #E5B801",
"t 	c #E4B714",
"u 	c #C0C3AA",
"v 	c #8AD0EF",
"w 	c #BDD3C9",
"x 	c #FCDA56",
"y 	c #FDD746",
"z 	c #F0C62A",
"A 	c #E7B909",
"B 	c #E5B700",
"C 	c #E6B805",
"D 	c #EFC427",
"E 	c #F0C629",
"F 	c #DFB944",
"G 	c #A6CAD3",
"H 	c #9AD1E6",
"I 	c #F0D879",
"J 	c #FDD745",
"K 	c #EBBF1C",
"L 	c #E5B701",
"M 	c #ECC122",
"N 	c #E9BC12",
"O 	c #D3BD7F",
"P 	c #90CEEA",
"Q 	c #CBD4BB",
"R 	c #ECC121",
"S 	c #FED848",
"T 	c #F5CD36",
"U 	c #B2C6C2",
"V 	c #95D1E9",
"W 	c #F3D873",
"X 	c #F1C82D",
"Y 	c #E9BD16",
"Z 	c #D7BC74",
"` 	c #8FCFEB",
" .	c #FAD441",
"..	c #E7B90A",
"+.	c #E6B802",
"@.	c #FAD33F",
"#.	c #A7C9D1",
"$.	c #E2D698",
"%.	c #EFC426",
"&.	c #ECC11E",
"*.	c #C9C098",
"=.	c #94D1EA",
"-.	c #FBDA5D",
";.	c #FBD441",
">.	c #F9D23E",
",.	c #E6B804",
"'.	c #EBBF1D",
").	c #DFB848",
"!.	c #B5D2D1",
"~.	c #F3CA31",
"{.	c #EFC529",
"].	c #FFD949",
"^.	c #A4CAD5",
"/.	c #CFD5B6",
"(.	c #EBC01F",
"_.	c #E7BA0D",
":.	c #E7BA0C",
"<.	c #FED949",
"[.	c #F7D03C",
"}.	c #B9C4B8",
"|.	c #DFD69D",
"1.	c #FBD543",
"2.	c #E8BB0C",
"3.	c #E8BB0E",
"4.	c #F4CB34",
"5.	c #F5CD37",
"6.	c #E8BB10",
"7.	c #E5B802",
"8.	c #FAD33E",
"9.	c #E7B906",
"0.	c #CAC098",
"a.	c #EED781",
"b.	c #F9D240",
"c.	c #E6B906",
"d.	c #E7BA09",
"e.	c #F5CD38",
"f.	c #D4BC79",
"g.	c #F6D86A",
"h.	c #F6CE38",
"i.	c #F9D33F",
"j.	c #E8BB0F",
"k.	c #F2C82F",
"l.	c #E9BC15",
"m.	c #DABA5D",
"n.	c #F3CA30",
"o.	c #FBD542",
"p.	c #F0C72A",
"q.	c #EABE1C",
"r.	c #E4B71A",
"s.	c #F3CA2F",
"t.	c #EDC221",
"u.	c #EEC321",
"v.	c #EABE1D",
"w.	c #F3C92E",
"x.	c #F9D33E",
"y.	c #EEC320",
"z.	c #FFCC00",
"A.	c #F3C200",
"B.	c #EFBF00",
"C.	c #F2C100",
"D.	c #EEBE00",
"E.	c #EABB00",
"F.	c #FCCC2E",
"G.	c #F5C400",
"H.	c #E8B900",
"I.	c #FDCA00",
"J.	c #FECB00",
"K.	c #ECBC00",
"L.	c #F1C100",
"M.	c #E9BA00",
"N.	c #DDB84D",
"O.	c #F2CC61",
"P.	c #F9C700",
"Q.	c #FDCB00",
"R.	c #FCC900",
"S.	c #D6BC74",
"T.	c #E5CC87",
"U.	c #FBC900",
"V.	c #E7B900",
"W.	c #FAC800",
"X.	c #E6B800",
"Y.	c #CBBF95",
"Z.	c #D0CDAD",
"`.	c #EBBC00",
" +	c #E7B800",
".+	c #FBC800",
"++	c #F6C500",
"@+	c #BBC4B4",
"#+	c #B9CECB",
"$+	c #F4C300",
"%+	c #FCCA00",
"&+	c #F1C000",
"*+	c #A5CAD4",
"=+	c #99CFE6",
"-+	c #F9C800",
";+	c #E6B700",
">+	c #EEBF00",
",+	c #EBBB00",
"'+	c #8CD0EE",
")+	c #E6CD84",
"!+	c #EDBE00",
"~+	c #CAC096",
"{+	c #C2CEC0",
"]+	c #F8C700",
"^+	c #F2C200",
"/+	c #ACC8CC",
"(+	c #98CFE6",
"_+	c #F6CC57",
":+	c #F0C000",
"<+	c #D8BB6A",
"[+	c #8AD0F0",
"}+	c #CDCEB2",
"|+	c #B7C5BC",
"1+	c #9CCFE4",
"2+	c #F3CD61",
"3+	c #ECBD00",
"4+	c #92CEE8",
"5+	c #C1CEC1",
"6+	c #FDCC23",
"7+	c #E2B839",
"8+	c #AAC8CE",
"9+	c #8FD0EC",
"0+	c #E0CD92",
"a+	c #FFCC0B",
"b+	c #F8C600",
"c+	c #EDBD00",
"d+	c #F7C500",
"e+	c #F7C600",
"f+	c #E4B71F",
"g+	c #BFC3AE",
"h+	c #8BD0EE",
"i+	c #9FCFE1",
"j+	c #EFCD70",
"k+	c #CEBE8D",
"l+	c #90CFEA",
"m+	c #A4CFDD",
"n+	c #F0CD6B",
"o+	c #D2BC7D",
"p+	c #96CDE4",
"q+	c #9DCFE3",
"r+	c #E4CC89",
"s+	c #CDBF8E",
"t+	c #94CDE6",
"u+	c #CACEB6",
"v+	c #F8CC4A",
"w+	c #DFB94F",
"x+	c #B6C5BC",
"y+	c #8DCFED",
"z+	c #C7CDBA",
"A+	c #E8CC80",
"B+	c #FDCC2B",
"C+	c #E7BB2B",
"D+	c #D2BD80",
"E+	c #B8C5BA",
"F+	c #94CEE7",
"                                                                                                                                ",
"                                                                                                                                ",
"                                                                                                                                ",
"                                                                                                                                ",
"                                                                                                                                ",
"                                                                                                                                ",
"                                                                                                                                ",
"                                                                                                                                ",
"                                                                                                                                ",
"                                                                                                                                ",
"                                                                                                                                ",
"                                                    . + @ # $ % & * = - ; > ,                                                   ",
"                                                ' ) ! ~ ~ ~ ~ ~ ~ ~ ~ { ] ^ / ( _                                               ",
"                                              : < ~ ~ ~ ~ ~ ~ ~ ~ ~ ~ ~ [ } | 1 2 3                                             ",
"                                            4 5 ~ ~ ~ ~ ~ ~ ~ ~ ~ ~ ~ ~ ~ ~ 6 7 8 9 0                                           ",
"                                          : a ~ ~ ~ ~ ~ ~ b { c d ~ ~ ~ ~ ~ ~ e f 8 g h                                         ",
"                                        i j % ~ ~ ~ [ e k l m n o p q b ~ ~ ~ ~ r s t u v                                       ",
"                                        w x ~ ~ ~ y z A B B B B B B C D y ~ ~ ~ ~ E B F G                                       ",
"                                      H I ~ ~ ~ J K B B B B B B B B B L M y ~ ~ ~ J N B O P                                     ",
"                                      Q % ~ ~ d K B B B B B B B B B B B B R S ~ ~ ~ T B t U                                     ",
"                                    V W ~ ~ ~ ] B B B B B B B B B B B B B B X [ ~ ~ y Y B Z `                                   ",
"                                    w ~ ~ ~  ...B B B B B B B B B B B B B B +.@.~ ~ ~ ] B B #.                                  ",
"                                  _ $.~ ~ ~ %.B B B B B B B K K B B B B B B B &.~ ~ ~  .^ B *.v                                 ",
"                                  =.-.~ ~ ;.f B B B B B B C >.;.,.B B B B B B B >.~ ~ b '.B ).`                                 ",
"                                  !.~ ~ ~ ~.B B B B B B B {.].~ z B B B B B B B D ~ ~ ~ k B B ^.                                ",
"                                  /.~ ~ b (.B B B B B B _.;.~ ~ c f B B B B B B :.<.~ ~ [.L B }.                                ",
"                                  |.~ ~ 1.2.B B B B B 3.4.~ ~ ~ ~ 5.6.B B B B B 7.8.~ ~ e 9.B 0.                                ",
"                                  a.~ ~ b.s B B B c.z 1.~ ~ ~ ~ ~ ~ & k d.B B B B e.~ ~ & 3.B f.                                ",
"                                  g.~ ~ h.B B B B i.[ ~ ~ ~ ~ ~ ~ ~ ~ [ e j.B B B k.~ ~ { l.B m.                                ",
"                                  % ~ ~ n.B B B B >.~ ~ ~ ~ ~ ~ ~ ~ ~ ~ o.f B B B p.~ ~ ~ q.B r.                                ",
"                                  ~ ~ ~ s.B B B B t.~ ~ ~ ~ ~ ~ ~ ~ ~ ~ k B B B B u.~ ~ ~ v.B B                                 ",
"                                  ].].].w.B B B B C x.].].].].].].].].o.:.B B B B y.].].].q.B B                                 ",
"                                  z.z.z.A.B B B B B B.z.z.z.z.z.z.z.z.C.B B B B B D.z.z.z.E.B 8                                 ",
"                                  F.z.z.G.B B B B B H.I.z.z.z.z.z.z.J.K.B B B B B L.z.z.J.M.B N.                                ",
"                                  O.z.z.P.B B B B B H.I.z.z.z.z.z.z.Q.E.B B B B B G.z.z.R.H.B S.                                ",
"                                  T.z.z.U.V.B B B B V.R.z.z.z.z.z.z.I.M.B B B B B P.z.z.W.X.B Y.                                ",
"                                  Z.z.z.J.`.B B B B  +.+z.z.z.z.z.z.I.M.B B B B V.J.z.z.++B B @+                                ",
"                                  #+z.z.z.C.B B B B  +.+z.U.$+$+%+z.%+V.B B B B D.z.z.z.&+B B *+                                ",
"                                  =+F.z.z.-+X.B B B ;+L.>+V.B B V.B.A.B B B B B P.z.z.J.,+B ).`                                 ",
"                                  '+)+z.z.z.!+B B B B B B B B B B B B B B B B `.z.z.z.W.X.B ~+v                                 ",
"                                    {+z.z.z.P.X.B B B B B B B B B B B B B B B ]+z.z.z.^+B B /+                                  ",
"                                    (+_+z.z.z.L.B B B B B B B B B B B B B B :+z.z.z.I.M.B <+h                                   ",
"                                    [+}+z.z.z.J.K.B B B B B B B B B B B B K.J.z.z.z.G.B t |+                                    ",
"                                      1+2+z.z.z.I.3+B B B B B B B B B B E.R.z.z.z.I.M.B S.4+                                    ",
"                                        5+6+z.z.z.J.:+X.B B B B B B X.D.%+z.z.z.z.&+B 7+8+                                      ",
"                                        9+0+a+z.z.z.z.b+D.M.H.H.M.c+d+J.z.z.z.z.e+X.f+g+h+                                      ",
"                                          i+j+z.z.z.z.z.z.I.R.R.%+z.z.z.z.z.z.U.H.8 k+l+                                        ",
"                                            m+n+z.z.z.z.z.z.z.z.z.z.z.z.z.z.U.E.B o+p+                                          ",
"                                              q+r+z.z.z.z.z.z.z.z.z.z.z.z.W.E.B s+t+                                            ",
"                                                9+u+v+z.z.z.z.z.z.z.z.J.A.V.w+x+y+                                              ",
"                                                  [+=+z+A+B+z.z.z.W.A.C+D+E+F+                                                  ",
"                                                                                                                                ",
"                                                                                                                                ",
"                                                                                                                                ",
"                                                                                                                                ",
"                                                                                                                                ",
"                                                                                                                                ",
"                                                                                                                                ",
"                                                                                                                                ",
"                                                                                                                                ",
"                                                                                                                                ",
"                                                                                                                                ",
"                                                                                                                                ",
"                                                                                                                                "};
