/* XPM */
static char * collect_6_xpm[] = {
"64 64 255 2",
"  	c #89D0F0",
". 	c #93CEE7",
"+ 	c #B5C6BF",
"@ 	c #CFBF8B",
"# 	c #DFBE5F",
"$ 	c #F0C837",
"% 	c #F9D13C",
"& 	c #FCD643",
"* 	c #FFDA4C",
"= 	c #F7D868",
"- 	c #F0D87A",
"; 	c #DCD6A2",
"> 	c #BCD3CB",
", 	c #92D0EB",
"' 	c #8BD0EF",
") 	c #B5C5BF",
"! 	c #DDB954",
"~ 	c #E7B907",
"{ 	c #F2C930",
"] 	c #FDD846",
"^ 	c #FFDA4A",
"/ 	c #F3D872",
"( 	c #C0D3C6",
"_ 	c #8FD0ED",
": 	c #90CFEB",
"< 	c #C3C2A7",
"[ 	c #E3B71A",
"} 	c #E8BB11",
"| 	c #F6CF39",
"1 	c #FFDA49",
"2 	c #E4D694",
"3 	c #9CD1E4",
"4 	c #94CEE6",
"5 	c #D0BE87",
"6 	c #E5B70B",
"7 	c #E8BC14",
"8 	c #FBD442",
"9 	c #EFD780",
"0 	c #A1D1E1",
"a 	c #91CEE9",
"b 	c #CDBF90",
"c 	c #E7BA0B",
"d 	c #FAD340",
"e 	c #FED847",
"f 	c #FCD644",
"g 	c #FED948",
"h 	c #EAD788",
"i 	c #8AD0EF",
"j 	c #C0C3AA",
"k 	c #E4B714",
"l 	c #E5B801",
"m 	c #F7D03A",
"n 	c #F8D03B",
"o 	c #EFC527",
"p 	c #EABE1B",
"q 	c #E8BC10",
"r 	c #EABE18",
"s 	c #EBBF1E",
"t 	c #F1C72C",
"u 	c #DED69F",
"v 	c #8ED0ED",
"w 	c #A6CAD3",
"x 	c #DFB944",
"y 	c #E5B700",
"z 	c #F0C629",
"A 	c #FDD746",
"B 	c #EFC427",
"C 	c #E6B805",
"D 	c #E7B909",
"E 	c #F0C62A",
"F 	c #FCDA56",
"G 	c #BDD3C9",
"H 	c #90CEEA",
"I 	c #D3BD7F",
"J 	c #E9BC12",
"K 	c #FDD745",
"L 	c #ECC122",
"M 	c #E5B701",
"N 	c #EBBF1C",
"O 	c #F0D879",
"P 	c #9AD1E6",
"Q 	c #B2C6C2",
"R 	c #F5CD36",
"S 	c #FED848",
"T 	c #ECC121",
"U 	c #CBD4BB",
"V 	c #8FCFEB",
"W 	c #D7BC74",
"X 	c #E9BD16",
"Y 	c #F1C82D",
"Z 	c #F3D873",
"` 	c #95D1E9",
" .	c #A7C9D1",
"..	c #FAD33F",
"+.	c #E6B802",
"@.	c #E7B90A",
"#.	c #FAD441",
"$.	c #C9C098",
"%.	c #ECC11E",
"&.	c #EFC426",
"*.	c #E2D698",
"=.	c #DFB848",
"-.	c #EBBF1D",
";.	c #F9D23E",
">.	c #E6B804",
",.	c #FBD441",
"'.	c #FBDA5D",
").	c #94D1EA",
"!.	c #A4CAD5",
"~.	c #FFD949",
"{.	c #EFC529",
"].	c #F3CA31",
"^.	c #B5D2D1",
"/.	c #B9C4B8",
"(.	c #F7D03C",
"_.	c #FED949",
":.	c #E7BA0C",
"<.	c #E7BA0D",
"[.	c #EBC01F",
"}.	c #CFD5B6",
"|.	c #CAC098",
"1.	c #E7B906",
"2.	c #FAD33E",
"3.	c #E5B802",
"4.	c #E8BB10",
"5.	c #F5CD37",
"6.	c #F4CB34",
"7.	c #E8BB0E",
"8.	c #E8BB0C",
"9.	c #FBD543",
"0.	c #DFD69D",
"a.	c #D4BC79",
"b.	c #F5CD38",
"c.	c #E7BA09",
"d.	c #E6B906",
"e.	c #F9D240",
"f.	c #EED781",
"g.	c #DABA5D",
"h.	c #E9BC15",
"i.	c #F2C82F",
"j.	c #E8BB0F",
"k.	c #F9D33F",
"l.	c #F6CE38",
"m.	c #F6D86A",
"n.	c #E4B71A",
"o.	c #EABE1C",
"p.	c #F0C72A",
"q.	c #FBD542",
"r.	c #F3CA30",
"s.	c #EABE1D",
"t.	c #EEC321",
"u.	c #EDC221",
"v.	c #F3CA2F",
"w.	c #EEC320",
"x.	c #F9D33E",
"y.	c #F3C92E",
"z.	c #EABB00",
"A.	c #FFCC00",
"B.	c #EEBE00",
"C.	c #F2C100",
"D.	c #EFBF00",
"E.	c #F3C200",
"F.	c #DDB84D",
"G.	c #E9BA00",
"H.	c #FECB00",
"I.	c #F1C100",
"J.	c #ECBC00",
"K.	c #FDCA00",
"L.	c #E8B900",
"M.	c #F5C400",
"N.	c #FCCC2E",
"O.	c #D6BC74",
"P.	c #FCC900",
"Q.	c #FDCB00",
"R.	c #F9C700",
"S.	c #F2CC61",
"T.	c #CBBF95",
"U.	c #E6B800",
"V.	c #FAC800",
"W.	c #E7B900",
"X.	c #FBC900",
"Y.	c #E5CC87",
"Z.	c #BBC4B4",
"`.	c #F6C500",
" +	c #FBC800",
".+	c #E7B800",
"++	c #EBBC00",
"@+	c #D0CDAD",
"#+	c #A5CAD4",
"$+	c #F1C000",
"%+	c #FCCA00",
"&+	c #F4C300",
"*+	c #B9CECB",
"=+	c #EBBB00",
"-+	c #EEBF00",
";+	c #E6B700",
">+	c #F9C800",
",+	c #99CFE6",
"'+	c #CAC096",
")+	c #EDBE00",
"!+	c #E6CD84",
"~+	c #8CD0EE",
"{+	c #ACC8CC",
"]+	c #F2C200",
"^+	c #F8C700",
"/+	c #C2CEC0",
"(+	c #D8BB6A",
"_+	c #F0C000",
":+	c #F6CC57",
"<+	c #98CFE6",
"[+	c #B7C5BC",
"}+	c #CDCEB2",
"|+	c #8AD0F0",
"1+	c #92CEE8",
"2+	c #ECBD00",
"3+	c #F3CD61",
"4+	c #9CCFE4",
"5+	c #AAC8CE",
"6+	c #E2B839",
"7+	c #FDCC23",
"8+	c #C1CEC1",
"9+	c #8BD0EE",
"0+	c #BFC3AE",
"a+	c #E4B71F",
"b+	c #F7C600",
"c+	c #F7C500",
"d+	c #EDBD00",
"e+	c #F8C600",
"f+	c #FFCC0B",
"g+	c #E0CD92",
"h+	c #8FD0EC",
"i+	c #90CFEA",
"j+	c #CEBE8D",
"k+	c #EFCD70",
"l+	c #9FCFE1",
"m+	c #96CDE4",
"n+	c #D2BC7D",
"o+	c #F0CD6B",
"p+	c #A4CFDD",
"q+	c #94CDE6",
"r+	c #CDBF8E",
"s+	c #E4CC89",
"t+	c #9DCFE3",
"u+	c #8DCFED",
"v+	c #B6C5BC",
"w+	c #DFB94F",
"x+	c #F8CC4A",
"y+	c #CACEB6",
"z+	c #94CEE7",
"A+	c #B8C5BA",
"B+	c #D2BD80",
"C+	c #E7BB2B",
"D+	c #FDCC2B",
"E+	c #E8CC80",
"F+	c #C7CDBA",
"                                                                                                                                ",
"                                                                                                                                ",
"                                                                                                                                ",
"                                                                                                                                ",
"                                                                                                                                ",
"                                                                                                                                ",
"                                                                                                                                ",
"                                                                                                                                ",
"                                                                                                                                ",
"                                                                                                                                ",
"                                                                                                                                ",
"                                                    . + @ # $ % & * = - ; > ,                                                   ",
"                                                ' ) ! ~ { ] ^ ^ ^ ^ ^ ^ ^ ^ / ( _                                               ",
"                                              : < [ } | 1 ^ ^ ^ ^ ^ ^ ^ ^ ^ ^ ^ 2 3                                             ",
"                                            4 5 6 7 8 ^ ^ ^ ^ ^ ^ ^ ^ ^ ^ ^ ^ ^ ^ 9 0                                           ",
"                                          a b 6 c d ^ ^ ^ ^ ^ ^ e f ] g ^ ^ ^ ^ ^ ^ h 3                                         ",
"                                        i j k l m ^ ^ ^ ^ g n o p q r s t d 1 ^ ^ ^ * u v                                       ",
"                                        w x y z ^ ^ ^ ^ A B C y y y y y y D E A ^ ^ ^ F G                                       ",
"                                      H I y J K ^ ^ ^ A L M y y y y y y y y y N K ^ ^ ^ O P                                     ",
"                                      Q k y R ^ ^ ^ S T y y y y y y y y y y y y N e ^ ^ * U                                     ",
"                                    V W y X A ^ ^ 1 Y y y y y y y y y y y y y y y { ^ ^ ^ Z `                                   ",
"                                     .y y { ^ ^ ^ ..+.y y y y y y y y y y y y y y @.#.^ ^ ^ G                                   ",
"                                  i $.y ~ #.^ ^ ^ %.y y y y y y y N N y y y y y y y &.^ ^ ^ *.'                                 ",
"                                  V =.y -.g ^ ^ ;.y y y y y y y >.,.;.C y y y y y y c ,.^ ^ '.).                                ",
"                                  !.y y t ^ ^ ^ B y y y y y y y E ^ ~.{.y y y y y y y ].^ ^ ^ ^.                                ",
"                                  /.y M (.^ ^ _.:.y y y y y y c f ^ ^ ,.<.y y y y y y [.g ^ ^ }.                                ",
"                                  |.y 1.d ^ ^ 2.3.y y y y y 4.5.^ ^ ^ ^ 6.7.y y y y y 8.9.^ ^ 0.                                ",
"                                  a.y 7.& ^ ^ b.y y y y c.t & ^ ^ ^ ^ ^ ^ 9.E d.y y y l e.^ ^ f.                                ",
"                                  g.y h.] ^ ^ i.y y y j.d 1 ^ ^ ^ ^ ^ ^ ^ ^ 1 k.y y y y l.^ ^ m.                                ",
"                                  n.y o.^ ^ ^ p.y y y c q.^ ^ ^ ^ ^ ^ ^ ^ ^ ^ ;.y y y y r.^ ^ *                                 ",
"                                  y y s.^ ^ ^ t.y y y y t ^ ^ ^ ^ ^ ^ ^ ^ ^ ^ u.y y y y v.^ ^ ^                                 ",
"                                  y y o.~.~.~.w.y y y y :.q.~.~.~.~.~.~.~.~.x.C y y y y y.~.~.~.                                ",
"                                  6 y z.A.A.A.B.y y y y y C.A.A.A.A.A.A.A.A.D.y y y y y E.A.A.A.                                ",
"                                  F.y G.H.A.A.I.y y y y y J.H.A.A.A.A.A.A.K.L.y y y y y M.A.A.N.                                ",
"                                  O.y L.P.A.A.M.y y y y y z.Q.A.A.A.A.A.A.K.L.y y y y y R.A.A.S.                                ",
"                                  T.y U.V.A.A.R.y y y y y G.K.A.A.A.A.A.A.P.W.y y y y W.X.A.A.Y.                                ",
"                                  Z.y y `.A.A.H.W.y y y y G.K.A.A.A.A.A.A. +.+y y y y ++H.A.A.@+                                ",
"                                  #+y y $+A.A.A.B.y y y y W.%+A.%+&+&+X.A. +.+y y y y C.A.A.A.*+                                ",
"                                  V =.y =+H.A.A.R.y y y y y E.D.W.y y W.-+I.;+y y y U.>+A.A.N.,+                                ",
"                                  i '+y U.V.A.A.A.++y y y y y y y y y y y y y y y y )+A.A.A.!+~+                                ",
"                                    {+y y ]+A.A.A.^+y y y y y y y y y y y y y y y U.R.A.A.A./+                                  ",
"                                    a (+y G.K.A.A.A._+y y y y y y y y y y y y y y I.A.A.A.:+<+                                  ",
"                                      [+k y M.A.A.A.H.J.y y y y y y y y y y y y J.H.A.A.A.}+|+                                  ",
"                                      1+O.y G.K.A.A.A.P.z.y y y y y y y y y y 2+K.A.A.A.3+4+                                    ",
"                                        5+6+y $+A.A.A.A.%+B.U.y y y y y y U._+H.A.A.A.7+8+                                      ",
"                                        9+0+a+U.b+A.A.A.A.H.c+d+G.L.L.G.B.e+A.A.A.A.f+g+h+                                      ",
"                                          i+j+6 L.X.A.A.A.A.A.A.%+P.P.K.A.A.A.A.A.A.k+l+                                        ",
"                                            m+n+y z.X.A.A.A.A.A.A.A.A.A.A.A.A.A.A.o+p+                                          ",
"                                              q+r+y z.V.A.A.A.A.A.A.A.A.A.A.A.A.s+t+                                            ",
"                                                u+v+w+W.E.H.A.A.A.A.A.A.A.A.x+y+h+                                              ",
"                                                    z+A+B+C+E.V.A.A.A.D+E+F+,+|+                                                ",
"                                                                                                                                ",
"                                                                                                                                ",
"                                                                                                                                ",
"                                                                                                                                ",
"                                                                                                                                ",
"                                                                                                                                ",
"                                                                                                                                ",
"                                                                                                                                ",
"                                                                                                                                ",
"                                                                                                                                ",
"                                                                                                                                ",
"                                                                                                                                ",
"                                                                                                                                "};
