/* XPM */
static char * enemy_3_xpm[] = {
"64 64 237 2",
"  	c #89D0F0",
". 	c #8AD0F0",
"+ 	c #9DD3E8",
"@ 	c #C0DAD6",
"# 	c #D7E0C6",
"$ 	c #E4E3BB",
"% 	c #E8E4B8",
"& 	c #ABD6E1",
"* 	c #E1E3BE",
"= 	c #F9E8A1",
"- 	c #FDE38C",
"; 	c #FDDE78",
"> 	c #FEDA6B",
", 	c #FED963",
"' 	c #8FD1EE",
") 	c #D5DFC8",
"! 	c #FAE79D",
"~ 	c #FDDB6C",
"{ 	c #FFCF2D",
"] 	c #FFCC04",
"^ 	c #FFCC00",
"/ 	c #96D2EB",
"( 	c #E7E3B7",
"_ 	c #FDDF7D",
": 	c #FFCE26",
"< 	c #91D1ED",
"[ 	c #E5E3B8",
"} 	c #FED860",
"| 	c #FFCC01",
"1 	c #E4E2B8",
"2 	c #90D1ED",
"3 	c #DBE0C1",
"4 	c #FED962",
"5 	c #D8E0C4",
"6 	c #91D2F1",
"7 	c #9CD6F1",
"8 	c #8CD1F0",
"9 	c #BCD9D8",
"0 	c #FDDC73",
"a 	c #B7D8DB",
"b 	c #9DD6F2",
"c 	c #B0DDF4",
"d 	c #F5FAFD",
"e 	c #FBFDFE",
"f 	c #F3F9FD",
"g 	c #D9EDF9",
"h 	c #B8DFF4",
"i 	c #96D4F1",
"j 	c #F0E09B",
"k 	c #FFCD0D",
"l 	c #FFCD0E",
"m 	c #EDDFA0",
"n 	c #8ED1EE",
"o 	c #FCFEFE",
"p 	c #F6FAFD",
"q 	c #B2DDF4",
"r 	c #E9F4FB",
"s 	c #FFFFFF",
"t 	c #FEFEFF",
"u 	c #ECF6FC",
"v 	c #D5EBF8",
"w 	c #C0E3F5",
"x 	c #A8DAF3",
"y 	c #95D4F1",
"z 	c #8FD2F0",
"A 	c #BCD9D7",
"B 	c #FED348",
"C 	c #FED44D",
"D 	c #B6D7DB",
"E 	c #E7F3FA",
"F 	c #F1F8FD",
"G 	c #FCFDFE",
"H 	c #FEFFFF",
"I 	c #FCFEFF",
"J 	c #F4FAFD",
"K 	c #EDF7FC",
"L 	c #E4F2FA",
"M 	c #DEF0FA",
"N 	c #DEEFFA",
"O 	c #DEEFF9",
"P 	c #F1E2AB",
"Q 	c #FFCC02",
"R 	c #EEE2B4",
"S 	c #E9F4FA",
"T 	c #EBF5F6",
"U 	c #E4F2F3",
"V 	c #E4F2F4",
"W 	c #E6F2F4",
"X 	c #F0F7F8",
"Y 	c #F4F9FA",
"Z 	c #F7FBFB",
"` 	c #FAFDFD",
" .	c #FDFEFE",
"..	c #FBFCFC",
"+.	c #FED96C",
"@.	c #FDDB7A",
"#.	c #FBFDFC",
"$.	c #CFE9F3",
"%.	c #E3F1F3",
"&.	c #E6F0E8",
"*.	c #FFCF26",
"=.	c #FAC800",
"-.	c #FDCB00",
";.	c #FBC900",
">.	c #FED031",
",.	c #E5F0ED",
"'.	c #D0E9F4",
").	c #BBE0F1",
"!.	c #E9ECD8",
"~.	c #E4B702",
"{.	c #A48407",
"].	c #BE9905",
"^.	c #F9C701",
"/.	c #BD9806",
"(.	c #A68607",
"_.	c #E6B902",
":.	c #E7EEE2",
"<.	c #BAE0F1",
"[.	c #A1D7F0",
"}.	c #EAE9CF",
"|.	c #FDCA00",
"1.	c #A98807",
"2.	c #987B08",
"3.	c #B59206",
"4.	c #FCCA00",
"5.	c #B69206",
"6.	c #AA8907",
"7.	c #E8EBD5",
"8.	c #A0D7F0",
"9.	c #D5EBF2",
"0.	c #EAE8CD",
"a.	c #DDB103",
"b.	c #FFCE13",
"c.	c #E8EBD4",
"d.	c #D3EAF2",
"e.	c #8BD1F0",
"f.	c #ACDAF1",
"g.	c #E2F1F3",
"h.	c #D7AD03",
"i.	c #997B08",
"j.	c #F5C401",
"k.	c #FFD872",
"l.	c #FFF4DC",
"m.	c #FFFAEF",
"n.	c #FFF3D9",
"o.	c #FFD667",
"p.	c #F3C301",
"q.	c #A28307",
"r.	c #D3A904",
"s.	c #A9DAF0",
"t.	c #C4E4F1",
"u.	c #EEBE02",
"v.	c #E4B703",
"w.	c #F8C601",
"x.	c #FFF9EC",
"y.	c #F7C501",
"z.	c #E4B603",
"A.	c #ECBD02",
"B.	c #C0E2F1",
"C.	c #E1F0F3",
"D.	c #FFF2D2",
"E.	c #FFFBEE",
"F.	c #FFF2D5",
"G.	c #BCE1F1",
"H.	c #A3D8F0",
"I.	c #CCE7F1",
"J.	c #FFCD19",
"K.	c #FFCF2B",
"L.	c #FFCD18",
"M.	c #CAE6F1",
"N.	c #94D3F0",
"O.	c #B0DCF1",
"P.	c #C9E5F2",
"Q.	c #C5E5F1",
"R.	c #AEDBF1",
"S.	c #92D3F0",
"T.	c #CEE8F2",
"U.	c #C9E6F1",
"V.	c #8BD0F0",
"W.	c #91D2F0",
"X.	c #D1E9F2",
"Y.	c #CDE7F1",
"Z.	c #8DD1F0",
"`.	c #C3E3F1",
" +	c #E0F0F3",
".+	c #C2D5D3",
"++	c #B9D6DC",
"@+	c #DEEFF3",
"#+	c #9AD5F0",
"$+	c #B5DEF1",
"%+	c #B9E0F1",
"&+	c #A6D9F1",
"*+	c #B0CED3",
"=+	c #A6CFDC",
"-+	c #B3DDF1",
";+	c #95D3F0",
">+	c #A4CFDD",
",+	c #E1CD93",
"'+	c #F8CC4A",
")+	c #EECD72",
"!+	c #F6CC54",
"~+	c #9DCFE3",
"{+	c #CACEB6",
"]+	c #DACD9E",
"^+	c #C2CEC0",
"/+	c #8ED0ED",
"(+	c #E4CC8A",
"_+	c #F4CD5E",
":+	c #8AD0EF",
"<+	c #DFCD93",
"[+	c #8DD0EE",
"}+	c #D1CDAC",
"|+	c #F9CC48",
"1+	c #8FD0EC",
"2+	c #95D0E9",
"3+	c #F9CC44",
"4+	c #CFCDAF",
"5+	c #B0CFD4",
"6+	c #FECC1A",
"7+	c #FCCC2E",
"8+	c #EDCD74",
"9+	c #D5CDA7",
"0+	c #ABCFD8",
"a+	c #AFCFD5",
"b+	c #D7CDA4",
"c+	c #FECC1F",
"d+	c #AACFD8",
"e+	c #F7CB4F",
"f+	c #F0CD6B",
"g+	c #D7CEA4",
"h+	c #B9CECB",
"i+	c #9ACFE5",
"j+	c #8CD0EE",
"k+	c #BBCEC9",
"l+	c #D8CEA3",
"m+	c #F6CC56",
"n+	c #A2CFDF",
"                                                                                                                                ",
"                                                                                                                                ",
"                                                                                                                                ",
"                                                                                                                                ",
"                                                                                                                                ",
"                                                                                                                                ",
"                                                                                                                                ",
"                                                                                                                                ",
"                                                                                                                                ",
"                                                                                                                                ",
"                                                                                                                                ",
"                                                                                                                                ",
"                                                                                                                                ",
"                                                                                                                                ",
"                                                                                                                                ",
"                                                                                                                                ",
"                                                                                                                                ",
"                                                                                                                                ",
"                                                                                                                                ",
"                                                                                                                                ",
"                                                                                                                                ",
"                                                                                                                                ",
"                                                                                                                                ",
"                                                                                                                                ",
"                                                                                                                                ",
"                                                                                                                                ",
"                                                                                                                                ",
"                                                                                                                                ",
"                                                                                                                                ",
"                                                                                                                                ",
"                                                                                                                                ",
"                                                                                                                                ",
"                                                                                                                                ",
"                                                                                                                                ",
"                                                    . + @ # $ % % $ # @ + .                                                     ",
"                                                  & * = - ; > , , > ; - = * &                                                   ",
"                                              ' ) ! ~ { ] ^ ^ ^ ^ ^ ^ ] { ~ ! ) '                                               ",
"                                            / ( _ : ^ ^ ^ ^ ^ ^ ^ ^ ^ ^ ^ ^ : _ ( /                                             ",
"                                          < [ } | ^ ^ ^ ^ ^ ^ ^ ^ ^ ^ ^ ^ ^ ^ | } 1 2                                           ",
"                                        . 3 4 | ^ ^ ^ ^ ^ ^ ^ ^ ^ ^ ^ ^ ^ ^ ^ ^ | 4 5 .                                         ",
"  6 7 8                                 9 0 ^ ^ ^ ^ ^ ^ ^ ^ ^ ^ ^ ^ ^ ^ ^ ^ ^ ^ ^ ^ 0 a                                 8 b 6   ",
"c d e f g h i                         < j k ^ ^ ^ ^ ^ ^ ^ ^ ^ ^ ^ ^ ^ ^ ^ ^ ^ ^ ^ ^ l m n                         i h g f o p q ",
"r s s s s s t u v w x y z .           A B ^ ^ ^ ^ ^ ^ ^ ^ ^ ^ ^ ^ ^ ^ ^ ^ ^ ^ ^ ^ ^ ^ C D           . z y x w v u t s s s s s E ",
"F s G G H s s s s s s I J K L M N N O P Q ^ ^ ^ ^ ^ ^ ^ ^ ^ ^ ^ ^ ^ ^ ^ ^ ^ ^ ^ ^ ^ ^ Q R O N N M L K J I s s s s s s H G G s F ",
"S T U V W T X Y Z `  .s s s s s s  ...+.^ ^ ^ ^ ^ ^ ^ ^ ^ ^ ^ ^ ^ ^ ^ ^ ^ ^ ^ ^ ^ ^ ^ ^ @.#. .s s s s s s  .` Z Y X T W V U T S ",
"$.%.%.%.%.%.%.%.%.%.%.%.%.%.%.%.%.%.&.*.^ ^ ^ ^ =.-.^ ^ ^ ^ ^ ^ ^ ^ ^ ^ ^ ^ -.;.^ ^ ^ ^ >.,.%.%.%.%.%.%.%.%.%.%.%.%.%.%.%.%.%.'.",
").%.%.%.%.%.%.%.%.%.%.%.%.%.%.%.%.%.!.^ ^ ^ ^ ~.{.].^.^ ^ ^ ^ ^ ^ ^ ^ ^ ^ ^./.(._.^ ^ ^ Q :.%.%.%.%.%.%.%.%.%.%.%.%.%.%.%.%.%.<.",
"[.%.%.%.%.%.%.%.%.%.%.%.%.%.%.%.%.%.}.^ ^ ^ |.1.2.2.3.4.^ ^ ^ ^ ^ ^ ^ ^ |.5.2.2.6.|.^ ^ ^ 7.%.%.%.%.%.%.%.%.%.%.%.%.%.%.%.%.%.8.",
"8 9.%.%.%.%.%.%.%.%.%.%.%.%.%.%.%.%.0.^ ^ ^ |.(.2.2.2.a.^ ^ | b.b.^ ^ ^ a.2.2.2.(.4.^ ^ ^ c.%.%.%.%.%.%.%.%.%.%.%.%.%.%.%.%.d.e.",
"  f.g.%.%.%.%.%.%.%.%.%.%.%.%.%.%.%.0.^ ^ ^ ^ h.i.2.(.j.^ k.l.m.m.n.o.^ p.q.2.i.r.^ ^ ^ ^ c.%.%.%.%.%.%.%.%.%.%.%.%.%.%.%.g.s.  ",
"    t.%.%.%.%.%.%.%.%.%.%.%.%.%.%.%.0.^ ^ ^ ^ ^ u.v.w.^ ^ x.s s s s x.^ ^ y.z.A.^ ^ ^ ^ ^ c.%.%.%.%.%.%.%.%.%.%.%.%.%.%.%.B.    ",
"    . B.C.%.%.%.%.%.%.%.%.%.%.%.%.%.0.^ ^ ^ ^ ^ ^ ^ ^ ^ ^ D.E.E.E.E.F.^ ^ ^ ^ ^ ^ ^ ^ ^ ^ c.%.%.%.%.%.%.%.%.%.%.%.%.%.C.G..     ",
"        H.I.g.%.%.%.%.%.%.%.%.%.%.%.0.^ ^ ^ ^ ^ ^ ^ ^ ^ ^ J.K.K.K.K.L.^ ^ ^ ^ ^ ^ ^ ^ ^ ^ c.%.%.%.%.%.%.%.%.%.%.%.C.M.8.        ",
"            N.O.P.%.%.%.%.%.%.%.%.%.0.^ ^ ^ ^ ^ ^ ^ ^ ^ ^ ^ ^ ^ ^ ^ ^ ^ ^ ^ ^ ^ ^ ^ ^ ^ ^ c.%.%.%.%.%.%.%.%.%.Q.R.S.            ",
"                8 T.%.%.%.%.%.%.%.%.0.^ ^ ^ ^ ^ ^ ^ ^ ^ ^ ^ ^ ^ ^ ^ ^ ^ ^ ^ ^ ^ ^ ^ ^ ^ ^ c.%.%.%.%.%.%.%.%.U.V.                ",
"                  W.X.%.%.%.%.%.%.%.0.^ ^ ^ ^ ^ ^ ^ ^ ^ ^ ^ ^ ^ ^ ^ ^ ^ ^ ^ ^ ^ ^ ^ ^ ^ ^ c.%.%.%.%.%.%.%.Y.z                   ",
"                    Z.`. +%.%.%.g.d..+^ ^ ^ ^ ^ ^ ^ ^ ^ ^ ^ ^ ^ ^ ^ ^ ^ ^ ^ ^ ^ ^ ^ ^ ^ ^ ++d.g.%.%.%.@+G.8                     ",
"                        #+$+<.%+&+8 *+^ ^ ^ ^ ^ ^ ^ ^ ^ ^ ^ ^ ^ ^ ^ ^ ^ ^ ^ ^ ^ ^ ^ ^ ^ ^ =+8 H.-+-+R.;+                        ",
"                                    >+,+,+,+,+'+^ ^ ^ ^ ^ )+,+,+,+,+)+^ ^ ^ ^ ^ !+,+,+,+,+~+                                    ",
"                                              {+^ ^ ^ ^ ^ ]+        ]+^ ^ ^ ^ ^ ^+                                              ",
"                                            /+(+^ ^ ^ ^ ^ _+:+    :+_+^ ^ ^ ^ ^ <+[+                                            ",
"                                          . }+^ ^ ^ ^ ^ ^ |+1+    2+3+^ ^ ^ ^ ^ ^ 4+.                                           ",
"                                          5+6+^ ^ ^ 7+8+9+0+        a+b+)+7+^ ^ ^ c+d+                                          ",
"                                          d+e+f+g+h+i+j+                j+i+k+l+f+m+n+                                          "};
