/* XPM */
static char * enemy_2_xpm[] = {
"64 64 202 2",
"  	c #89D0F0",
". 	c #ACDBF3",
"+ 	c #DFF0F9",
"@ 	c #E9F5FB",
"# 	c #CAE7F7",
"$ 	c #8AD0F0",
"% 	c #E5F2FA",
"& 	c #96D4F1",
"* 	c #F5FAFD",
"= 	c #FFFFFF",
"- 	c #FEFFFF",
"; 	c #D0E9F7",
"> 	c #8BD1F0",
", 	c #8DD1EE",
"' 	c #8FD1EE",
") 	c #CCE8F7",
"! 	c #CBE7F7",
"~ 	c #90D1ED",
"{ 	c #B4D7DD",
"] 	c #D4DFC8",
"^ 	c #E7E4B8",
"/ 	c #F1E7AF",
"( 	c #F2E7AE",
"_ 	c #8ED1F0",
": 	c #E6F3F7",
"< 	c #EAF4F6",
"[ 	c #E8F3F5",
"} 	c #F2F8F9",
"| 	c #CDE8F7",
"1 	c #C8DCD1",
"2 	c #FCE899",
"3 	c #FDE080",
"4 	c #FEDA6B",
"5 	c #FED65B",
"6 	c #FED553",
"7 	c #A7D9F0",
"8 	c #E3F1F3",
"9 	c #F0F7F8",
"0 	c #D4EBF8",
"a 	c #8CD1F0",
"b 	c #A8D5E3",
"c 	c #EEE5B1",
"d 	c #FDE48D",
"e 	c #FED656",
"f 	c #FFCC04",
"g 	c #FFCC00",
"h 	c #C0E2F1",
"i 	c #ECF5F7",
"j 	c #FDFEFE",
"k 	c #DEEFF9",
"l 	c #93D3F1",
"m 	c #B9D9DA",
"n 	c #F8E69F",
"o 	c #FED85E",
"p 	c #CEE8F2",
"q 	c #F9FCFC",
"r 	c #EBF5FC",
"s 	c #9FD7F2",
"t 	c #B3D7DD",
"u 	c #F8E496",
"v 	c #FED138",
"w 	c #E7F3F5",
"x 	c #D2EAF2",
"y 	c #E4F1F3",
"z 	c #F4F9FA",
"A 	c #F6FBFE",
"B 	c #B4DEF4",
"C 	c #A2D4E6",
"D 	c #F5E39C",
"E 	c #FFD02F",
"F 	c #F3F9FA",
"G 	c #EBF5F6",
"H 	c #FBFDFD",
"I 	c #D3EAF8",
"J 	c #91D2F1",
"K 	c #8ED1EE",
"L 	c #E7E1B2",
"M 	c #FED13F",
"N 	c #BEE1F1",
"O 	c #E5F2F4",
"P 	c #FEFEFF",
"Q 	c #EDF6FB",
"R 	c #ADDCF3",
"S 	c #BCD9D8",
"T 	c #FEFEFE",
"U 	c #E4F2F4",
"V 	c #A1D7F0",
"W 	c #E2F1F3",
"X 	c #E9F4F5",
"Y 	c #F7FBFC",
"Z 	c #FCFEFF",
"` 	c #D7ECF8",
" .	c #9BD5F0",
"..	c #ECDE9F",
"+.	c #FFCD0A",
"@.	c #F6FAFB",
"#.	c #EAF5F6",
"$.	c #F8FBFC",
"%.	c #F8F7EE",
"&.	c #FED44F",
"*.	c #E9F4F6",
"=.	c #9CD6F0",
"-.	c #DFEFF3",
";.	c #F9EFCC",
">.	c #FFCC03",
",.	c #F8EFCC",
"'.	c #ADDBF1",
").	c #E0F0F3",
"!.	c #F5E0A1",
"~.	c #ACDBF1",
"{.	c #F9D981",
"].	c #E2B503",
"^.	c #BF9A05",
"/.	c #EDBD02",
"(.	c #EFBF01",
"_.	c #C09A05",
":.	c #E4B602",
"<.	c #C5E4F1",
"[.	c #FAD45B",
"}.	c #9B7D08",
"|.	c #987B08",
"1.	c #A08107",
"2.	c #E8BA02",
"3.	c #EABB02",
"4.	c #A18207",
"5.	c #9C7E08",
"6.	c #F0C001",
"7.	c #B7DFF1",
"8.	c #FAD24B",
"9.	c #DCB003",
"0.	c #A28307",
"a.	c #F7C601",
"b.	c #F9C701",
"c.	c #A58507",
"d.	c #DBAF03",
"e.	c #F1C001",
"f.	c #9B7E08",
"g.	c #9D7F08",
"h.	c #F6C501",
"i.	c #FFCE2B",
"j.	c #FFDE8E",
"k.	c #FFE6AF",
"l.	c #9E8008",
"m.	c #9A7D08",
"n.	c #EFC001",
"o.	c #D9EDF3",
"p.	c #E3B603",
"q.	c #B69206",
"r.	c #B69306",
"s.	c #E6B802",
"t.	c #FFCD1F",
"u.	c #FFF0CF",
"v.	c #B59206",
"w.	c #B59106",
"x.	c #DFB303",
"y.	c #B6DEF1",
"z.	c #FFD151",
"A.	c #FFFEFA",
"B.	c #CDE7F1",
"C.	c #FFCC08",
"D.	c #FFE095",
"E.	c #FFE7AC",
"F.	c #8FD2F0",
"G.	c #C4E4F1",
"H.	c #E1F0F3",
"I.	c #DBEDF3",
"J.	c #9ED6F0",
"K.	c #BFE2F1",
"L.	c #CBE7F2",
"M.	c #C3E3F1",
"N.	c #AFDCF1",
"O.	c #92D3F0",
"P.	c #9AD5F0",
"Q.	c #F4CE60",
"R.	c #F0CD6C",
"S.	c #C0CFC4",
"T.	c #C9CEB9",
"U.	c #CDCEB3",
"V.	c #FECC14",
"W.	c #DCCE9C",
"X.	c #E4CC89",
"Y.	c #D1CDAC",
"Z.	c #AFCFD4",
"`.	c #FCCC31",
" +	c #EBCD77",
".+	c #8AD0EF",
"++	c #A2CFDF",
"@+	c #F7CC4F",
"#+	c #EECD73",
"$+	c #8CD0EE",
"%+	c #E7CD84",
"&+	c #F8CC4C",
"*+	c #E5CC88",
"=+	c #CCCEB4",
"-+	c #A1CFE0",
";+	c #EACD7D",
">+	c #DDCD97",
",+	c #F8CB4D",
"'+	c #E7CD85",
")+	c #ADCFD6",
"!+	c #91D0EB",
"~+	c #DCCD9A",
"                                                                                                                                ",
"                                                                                                                                ",
"                                                                                                                                ",
"                                                                                                                                ",
"                                                                                                                                ",
"                                                                                                                                ",
"                                                                                                                                ",
"                                                                                                                                ",
"                                                                                                                                ",
"                                                                                                                                ",
"                                                                                                                                ",
"                                                                                                                                ",
"                                                                                                                                ",
"                                                                                                                                ",
"                                                                                                                                ",
"                                                                                                                                ",
"                                                                                                                                ",
"                                                                                                                                ",
"                                                                                                                                ",
"                                                                                                                                ",
"                                                                                                                                ",
"                                                                                                                                ",
"                                                                                                                                ",
"                                                                                                                                ",
"                                                                                                                                ",
"                                                                                                                                ",
"                                                                                                                                ",
"                                                                                                                                ",
"                                                                                                                                ",
"                                                                                                                                ",
"                                                                                                                                ",
"    . + @ # $                                                                                                     $ # @ % .     ",
"  & * = = - ; >                                             , ' ' ,                                             > ; - = = * &   ",
"  ) = = = = - ! $                                   ~ { ] ^ / ( ( / ^ ] { ~                                   $ ! - = = = = )   ",
"_ : < [ } = = - |                               ' 1 ( 2 3 4 5 6 6 5 4 3 2 ( 1 '                               | - = = } [ < : _ ",
"7 8 8 8 8 9 - = = 0 a                         b c d e f g g g g g g g g f e d c b                         a 0 = = - 9 8 8 8 8 7 ",
"h 8 8 8 8 8 i j = = k l                     m n o f g g g g g g g g g g g g f o n m                     l k = = j i 8 8 8 8 8 h ",
"p 8 8 8 8 8 8 [ q = = r s                 t u v g g g g g g g g g g g g g g g g v u t                 s r = = q w 8 8 8 8 8 8 p ",
"x 8 8 8 8 8 8 8 y z = = A B             C D E g g g g g g g g g g g g g g g g g g E D C             B A = = F y 8 8 8 8 8 8 8 x ",
"p 8 8 8 8 8 8 8 8 8 G H = - I J       K L M g g g g g g g g g g g g g g g g g g g g M L K       J I - = H < 8 8 8 8 8 8 8 8 8 p ",
"N 8 8 8 8 8 8 8 8 8 8 O F P = Q R $   S o g g g g g g g g g g g g g g g g g g g g g g o S   $ R Q = T } U 8 8 8 8 8 8 8 8 8 8 N ",
"V W 8 8 8 8 8 8 8 8 8 8 8 X Y = Z `  ...+.g g g g g g g g g g g g g g g g g g g g g g +... .` Z - @.[ 8 8 8 8 8 8 8 8 8 8 8 W V ",
"$ p 8 8 8 8 8 8 8 8 8 8 8 8 8 #.$.= %.&.g g g g g g g g g g g g g g g g g g g g g g g g &.%.= $.*.8 8 8 8 8 8 8 8 8 8 8 8 8 p $ ",
"  =.-.8 8 8 8 8 8 8 8 8 8 8 8 8 8 < ;.>.g g g g g g g g g g g g g g g g g g g g g g g g >.,.*.8 8 8 8 8 8 8 8 8 8 8 8 8 8 -.=.  ",
"    '.).8 8 8 8 8 8 8 8 8 8 8 8 8 8 !.g g g g g g g g g g g g g g g g g g g g g g g g g g !.8 8 8 8 8 8 8 8 8 8 8 8 8 8 ).'.    ",
"      ~.-.8 8 8 8 8 8 8 8 8 8 8 8 8 {.g g g g ].^./.g g g g g g g g g g g g (._.:.g g g g {.8 8 8 8 8 8 8 8 8 8 8 8 8 -.~.      ",
"        <.8 8 8 8 8 8 8 8 8 8 8 8 8 [.g g g (.}.|.1.2.g g g g g g g g g g 3.4.|.5.6.g g g [.8 8 8 8 8 8 8 8 8 8 8 8 8 <.        ",
"        7.8 8 8 8 8 8 8 8 8 8 8 8 8 8.g g g 9.|.|.|.0.a.g g g g g g g g b.c.|.|.|.d.g g g 8.8 8 8 8 8 8 8 8 8 8 8 8 8 7.        ",
"        V 8 8 8 8 8 8 8 8 8 8 8 8 8 8.g g g e.f.|.|.g.h.g i.j.k.k.j.i.g h.l.|.|.m.n.g g g 8.8 8 8 8 8 8 8 8 8 8 8 8 8 V         ",
"        > o.8 8 8 8 8 8 8 8 8 8 8 8 8.g g g g p.q.r.s.g t.u.= = = = u.t.g s.v.w.x.g g g g 8.8 8 8 8 8 8 8 8 8 8 8 8 o.>         ",
"          y.8 8 8 8 8 8 8 8 8 8 8 8 8.g g g g g g g g g z.A.= = = = A.z.g g g g g g g g g 8.8 8 8 8 8 8 8 8 8 8 8 8 y.          ",
"          a B.8 8 8 8 8 8 8 8 8 8 8 8.g g g g g g g g g C.D.E.E.E.E.D.C.g g g g g g g g g 8.8 8 8 8 8 8 8 8 8 8 8 B.a           ",
"            F.G.H.8 8 8 8 8 -.I.H.8 8.g g g g g g g g g g g g g g g g g g g g g g g g g g 8.8 H.I.-.8 8 8 8 8 H.G.F.            ",
"                J.K.L.L.M.N.O.$ P.~.Q.g g g g g g g g g g g g g g g g g g g g g g g g g g Q.~.P.$ O.N.M.L.L.K.J.                ",
"                                    R.g g g g g g g g g g g g g g g g g g g g g g g g g g R.                                    ",
"                                    R.g g g g g g g g g g g g g g g g g g g g g g g g g g R.                                    ",
"                                    R.g g g g g g g g g g g g g g g g g g g g g g g g g g R.                                    ",
"                                    R.g g g g g g g g g g g g g g g g g g g g g g g g g g R.                                    ",
"                                    S.T.T.T.U.V.g g g g g W.T.T.T.T.W.g g g g g V.U.T.T.T.S.                                    ",
"                                              X.g g g g g Y.        Y.g g g g g X.                                              ",
"                                            Z.`.g g g g g  +.+    .+ +g g g g g `.Z.                                            ",
"                                          ++@+g g g g g g #+$+    $+#+g g g g g g @+++                                          ",
"                                          %+g g g g &+*+=+-+        -+=+*+&+g g g g ;+                                          ",
"                                          >+,+'+=+)+!+$                 $ !+)+=+'+,+~+                                          "};
