/* XPM */
static char * enemy_4_xpm[] = {
"64 64 260 2",
"  	c #89D0F0",
". 	c #8AD0F0",
"+ 	c #9DD3E8",
"@ 	c #C0DAD6",
"# 	c #D7E0C6",
"$ 	c #E4E3BB",
"% 	c #E8E4B8",
"& 	c #ABD6E1",
"* 	c #E1E3BE",
"= 	c #F9E8A1",
"- 	c #FDE38C",
"; 	c #FDDE78",
"> 	c #FEDA6B",
", 	c #FED963",
"' 	c #8FD1EE",
") 	c #D5DFC8",
"! 	c #FAE79D",
"~ 	c #FDDB6C",
"{ 	c #FFCF2D",
"] 	c #FFCC04",
"^ 	c #FFCC00",
"/ 	c #96D2EB",
"( 	c #E7E3B7",
"_ 	c #FDDF7D",
": 	c #FFCE26",
"< 	c #91D1ED",
"[ 	c #E5E3B8",
"} 	c #FED860",
"| 	c #FFCC01",
"1 	c #E4E2B8",
"2 	c #90D1ED",
"3 	c #DBE0C1",
"4 	c #FED962",
"5 	c #D8E0C4",
"6 	c #BCD9D8",
"7 	c #FDDC73",
"8 	c #B7D8DB",
"9 	c #F0E09B",
"0 	c #FFCD0D",
"a 	c #FFCD0E",
"b 	c #EDDFA0",
"c 	c #8ED1EE",
"d 	c #BCD9D7",
"e 	c #FED348",
"f 	c #FED44D",
"g 	c #B6D7DB",
"h 	c #E2DBA8",
"i 	c #FFCC02",
"j 	c #DBD9B1",
"k 	c #8CD0EF",
"l 	c #F9D66B",
"m 	c #F2D479",
"n 	c #8BD0EF",
"o 	c #8CD1F0",
"p 	c #C2E0E9",
"q 	c #FFCF26",
"r 	c #FAC800",
"s 	c #FDCB00",
"t 	c #FBC900",
"u 	c #FED031",
"v 	c #B4DCEE",
"w 	c #A4D8F2",
"x 	c #E3F1FA",
"y 	c #FEF7E2",
"z 	c #E4B702",
"A 	c #A48407",
"B 	c #BE9905",
"C 	c #F9C701",
"D 	c #BD9806",
"E 	c #A68607",
"F 	c #E6B902",
"G 	c #FCF9EC",
"H 	c #DBEEF9",
"I 	c #99D5F1",
"J 	c #95D3F1",
"K 	c #D4EBF8",
"L 	c #FCFEFE",
"M 	c #FDFEFE",
"N 	c #F2EDD2",
"O 	c #FDCA00",
"P 	c #A98807",
"Q 	c #987B08",
"R 	c #B59206",
"S 	c #FCCA00",
"T 	c #B69206",
"U 	c #AA8907",
"V 	c #F1F0DA",
"W 	c #F8FCFE",
"X 	c #C9E6F6",
"Y 	c #8FD2F0",
"Z 	c #98D4F1",
"` 	c #CDE8F7",
" .	c #FFFFFF",
"..	c #F7FBFB",
"+.	c #E6F3F4",
"@.	c #EAE8CD",
"#.	c #DDB103",
"$.	c #FFCE13",
"%.	c #E8EBD4",
"&.	c #E7F3F5",
"*.	c #F8FBFC",
"=.	c #F3F9FC",
"-.	c #C3E4F6",
";.	c #93D3F1",
">.	c #9FD7F2",
",.	c #EEF6F7",
"'.	c #E3F1F3",
").	c #D7AD03",
"!.	c #997B08",
"~.	c #F5C401",
"{.	c #FFD872",
"].	c #FFF4DC",
"^.	c #FFFAEF",
"/.	c #FFF3D9",
"(.	c #FFD667",
"_.	c #F3C301",
":.	c #A28307",
"<.	c #D3A904",
"[.	c #E4F1F3",
"}.	c #EFF7F8",
"|.	c #F5FAFD",
"1.	c #CFE9F7",
"2.	c #9BD5F1",
"3.	c #B9E0F5",
"4.	c #E4F2FA",
"5.	c #FDFEFF",
"6.	c #FEFEFF",
"7.	c #F4F9FA",
"8.	c #E5F2F4",
"9.	c #EEBE02",
"0.	c #E4B703",
"a.	c #F8C601",
"b.	c #FFF9EC",
"c.	c #F7C501",
"d.	c #E4B603",
"e.	c #ECBD02",
"f.	c #E6F2F4",
"g.	c #F5FAFB",
"h.	c #FEFFFF",
"i.	c #DFF0F9",
"j.	c #B4DEF4",
"k.	c #8ED1F0",
"l.	c #96D4F1",
"m.	c #B7DFF4",
"n.	c #DAEEF9",
"o.	c #F6FBFD",
"p.	c #F6FAFB",
"q.	c #E8F3F5",
"r.	c #FFF2D2",
"s.	c #FFFBEE",
"t.	c #FFF2D5",
"u.	c #E9F4F5",
"v.	c #F4FAFD",
"w.	c #D8EDF8",
"x.	c #95D4F1",
"y.	c #AEDCF3",
"z.	c #CCE7F7",
"A.	c #E7F4FB",
"B.	c #F9FCFE",
"C.	c #FFCD19",
"D.	c #FFCF2B",
"E.	c #FFCD18",
"F.	c #EAF4F6",
"G.	c #E5F2FA",
"H.	c #CBE7F7",
"I.	c #ABDBF3",
"J.	c #C1E3F5",
"K.	c #F3F9FA",
"L.	c #BCE1F5",
"M.	c #EDF6FC",
"N.	c #EDF6F7",
"O.	c #EEF6F8",
"P.	c #ECF6FC",
"Q.	c #E3F2FA",
"R.	c #F7FBFC",
"S.	c #F9FCFC",
"T.	c #E1F0FA",
"U.	c #A8DAF3",
"V.	c #FBFEFE",
"W.	c #A9DAF3",
"X.	c #C8E6F6",
"Y.	c #E4F2F3",
"Z.	c #8BD0F0",
"`.	c #C5E4F1",
" +	c #E8EBDB",
".+	c #F6D995",
"++	c #ECD393",
"@+	c #F8CC4A",
"#+	c #EECD72",
"$+	c #E1CD93",
"%+	c #F6CC54",
"&+	c #E6EDDF",
"*+	c #CAE6F1",
"=+	c #8DD1F0",
"-+	c #8BD1F0",
";+	c #C3E3F1",
">+	c #E2F1F3",
",+	c #DFEFF3",
"'+	c #9DD6F0",
")+	c #CACEB6",
"!+	c #DACD9E",
"~+	c #C2CEC0",
"{+	c #C9E6F1",
"]+	c #AEDCF1",
"^+	c #D8ECF2",
"/+	c #DAEDF3",
"(+	c #DEEFF3",
"_+	c #DDEEF3",
":+	c #A7D9F1",
"<+	c #8ED0ED",
"[+	c #E4CC8A",
"}+	c #F4CD5E",
"|+	c #8AD0EF",
"1+	c #DFCD93",
"2+	c #8DD0EE",
"3+	c #B4DEF1",
"4+	c #BEE1F1",
"5+	c #C1E2F1",
"6+	c #B7DFF1",
"7+	c #A0D6F0",
"8+	c #B2DDF1",
"9+	c #D7EBF2",
"0+	c #D5EAF2",
"a+	c #BAE0F1",
"b+	c #91D2F0",
"c+	c #D1CDAC",
"d+	c #F9CC48",
"e+	c #8FD0EC",
"f+	c #95D0E9",
"g+	c #F9CC44",
"h+	c #CFCDAF",
"i+	c #BCE0F1",
"j+	c #D9EDF3",
"k+	c #CFE9F2",
"l+	c #90D2F0",
"m+	c #A3D8F0",
"n+	c #BCE1F1",
"o+	c #C9E6F2",
"p+	c #C5E5F2",
"q+	c #B0DCF1",
"r+	c #B0CFD4",
"s+	c #FECC1A",
"t+	c #FCCC2E",
"u+	c #EDCD74",
"v+	c #D5CDA7",
"w+	c #ABCFD8",
"x+	c #AFCFD5",
"y+	c #D7CDA4",
"z+	c #FECC1F",
"A+	c #AACFD8",
"B+	c #F7CB4F",
"C+	c #F0CD6B",
"D+	c #D7CEA4",
"E+	c #B9CECB",
"F+	c #9ACFE5",
"G+	c #8CD0EE",
"H+	c #BBCEC9",
"I+	c #D8CEA3",
"J+	c #F6CC56",
"K+	c #A2CFDF",
"                                                                                                                                ",
"                                                                                                                                ",
"                                                                                                                                ",
"                                                                                                                                ",
"                                                                                                                                ",
"                                                                                                                                ",
"                                                                                                                                ",
"                                                                                                                                ",
"                                                                                                                                ",
"                                                                                                                                ",
"                                                                                                                                ",
"                                                                                                                                ",
"                                                                                                                                ",
"                                                                                                                                ",
"                                                                                                                                ",
"                                                                                                                                ",
"                                                                                                                                ",
"                                                                                                                                ",
"                                                                                                                                ",
"                                                                                                                                ",
"                                                                                                                                ",
"                                                                                                                                ",
"                                                                                                                                ",
"                                                                                                                                ",
"                                                                                                                                ",
"                                                                                                                                ",
"                                                                                                                                ",
"                                                                                                                                ",
"                                                                                                                                ",
"                                                                                                                                ",
"                                                                                                                                ",
"                                                                                                                                ",
"                                                                                                                                ",
"                                                                                                                                ",
"                                                    . + @ # $ % % $ # @ + .                                                     ",
"                                                  & * = - ; > , , > ; - = * &                                                   ",
"                                              ' ) ! ~ { ] ^ ^ ^ ^ ^ ^ ] { ~ ! ) '                                               ",
"                                            / ( _ : ^ ^ ^ ^ ^ ^ ^ ^ ^ ^ ^ ^ : _ ( /                                             ",
"                                          < [ } | ^ ^ ^ ^ ^ ^ ^ ^ ^ ^ ^ ^ ^ ^ | } 1 2                                           ",
"                                        . 3 4 | ^ ^ ^ ^ ^ ^ ^ ^ ^ ^ ^ ^ ^ ^ ^ ^ | 4 5 .                                         ",
"                                        6 7 ^ ^ ^ ^ ^ ^ ^ ^ ^ ^ ^ ^ ^ ^ ^ ^ ^ ^ ^ ^ 7 8                                         ",
"                                      < 9 0 ^ ^ ^ ^ ^ ^ ^ ^ ^ ^ ^ ^ ^ ^ ^ ^ ^ ^ ^ ^ a b c                                       ",
"                                      d e ^ ^ ^ ^ ^ ^ ^ ^ ^ ^ ^ ^ ^ ^ ^ ^ ^ ^ ^ ^ ^ ^ f g                                       ",
"                                    . h i ^ ^ ^ ^ ^ ^ ^ ^ ^ ^ ^ ^ ^ ^ ^ ^ ^ ^ ^ ^ ^ ^ i j                                       ",
"                                    k l ^ ^ ^ ^ ^ ^ ^ ^ ^ ^ ^ ^ ^ ^ ^ ^ ^ ^ ^ ^ ^ ^ ^ ^ m n                                     ",
"                                  o p q ^ ^ ^ ^ r s ^ ^ ^ ^ ^ ^ ^ ^ ^ ^ ^ ^ s t ^ ^ ^ ^ u v .                                   ",
"                                w x y ^ ^ ^ ^ z A B C ^ ^ ^ ^ ^ ^ ^ ^ ^ ^ C D E F ^ ^ ^ i G H I                                 ",
"                            J K L M N ^ ^ ^ O P Q Q R S ^ ^ ^ ^ ^ ^ ^ ^ O T Q Q U O ^ ^ ^ V M W X Y                             ",
"                        Z ` W  ...+.@.^ ^ ^ O E Q Q Q #.^ ^ | $.$.^ ^ ^ #.Q Q Q E S ^ ^ ^ %.&.*. .=.-.;.                        ",
"                    >.K W  .L ,.'.'.@.^ ^ ^ ^ ).!.Q E ~.^ {.].^.^./.(.^ _.:.Q !.<.^ ^ ^ ^ %.'.[.}.M  .|.1.2.                    ",
"              Y 3.4.5. .6.7.8.'.'.'.@.^ ^ ^ ^ ^ 9.0.a.^ ^ b. . . . .b.^ ^ c.d.e.^ ^ ^ ^ ^ %.'.'.'.f.g.h. .5.i.j.k.              ",
"        l.m.n.o. . . .p.q.'.'.'.'.'.@.^ ^ ^ ^ ^ ^ ^ ^ ^ ^ r.s.s.s.s.t.^ ^ ^ ^ ^ ^ ^ ^ ^ ^ %.'.'.'.'.'.u... . . .v.w.j.x.        ",
". y.z.A.B. . . . .p.u.'.'.'.'.'.'.'.@.^ ^ ^ ^ ^ ^ ^ ^ ^ ^ C.D.D.D.D.E.^ ^ ^ ^ ^ ^ ^ ^ ^ ^ %.'.'.'.'.'.'.'.F.p. . . . .B.G.H.I.  ",
"J. . . . . .L K.&.'.'.'.'.'.'.'.'.'.@.^ ^ ^ ^ ^ ^ ^ ^ ^ ^ ^ ^ ^ ^ ^ ^ ^ ^ ^ ^ ^ ^ ^ ^ ^ ^ %.'.'.'.'.'.'.'.'.'.q.7.M  . . . .h.L.",
"M. . .M p.N.8.'.'.'.'.'.'.'.'.'.'.'.@.^ ^ ^ ^ ^ ^ ^ ^ ^ ^ ^ ^ ^ ^ ^ ^ ^ ^ ^ ^ ^ ^ ^ ^ ^ ^ %.'.'.'.'.'.'.'.'.'.'.'.8.O.*.h. . .P.",
"Q. .R.8.'.'.'.'.'.'.'.'.'.'.'.'.'.'.@.^ ^ ^ ^ ^ ^ ^ ^ ^ ^ ^ ^ ^ ^ ^ ^ ^ ^ ^ ^ ^ ^ ^ ^ ^ ^ %.'.'.'.'.'.'.'.'.'.'.'.'.'.'.&.S. .T.",
"U.V.&.'.'.'.'.'.'.'.'.'.'.'.'.'.'.'.@.^ ^ ^ ^ ^ ^ ^ ^ ^ ^ ^ ^ ^ ^ ^ ^ ^ ^ ^ ^ ^ ^ ^ ^ ^ ^ %.'.'.'.'.'.'.'.'.'.'.'.'.'.'.'.q.V.W.",
". X.[.'.'.'.'.'.'.'.'.'.'.'.'.'.'.'.@.^ ^ ^ ^ ^ ^ ^ ^ ^ ^ ^ ^ ^ ^ ^ ^ ^ ^ ^ ^ ^ ^ ^ ^ ^ ^ %.'.'.'.'.'.'.'.'.'.'.'.'.'.'.'.Y.z.. ",
"  Z.`.'.'.'.'.'.'.'.'.'.'.'.'.'.'.'. +.+.+.+++@+^ ^ ^ ^ ^ #+$+$+$+$+#+^ ^ ^ ^ ^ %+++.+.+.+&+'.'.'.'.'.'.'.'.'.'.'.'.'.'.'.*+=+  ",
"    -+;+>+'.'.'.'.'.'.'.'.'.'.'.'.'.'.'.'.,+'+)+^ ^ ^ ^ ^ !+        !+^ ^ ^ ^ ^ ~+'+,+'.'.'.'.'.'.'.'.'.'.'.'.'.'.'.'.'.{+=+    ",
"      . ]+^+'.'.'.'.'.'./+(+'.'.'.'.'.'._+:+<+[+^ ^ ^ ^ ^ }+|+    |+}+^ ^ ^ ^ ^ 1+2+:+_+'.'.'.'.'.'.,+/+'.'.'.'.'.'.(+3+-+      ",
"          -+:+4+5+5+6+7+. Y 8+*+9+^+0+a+b+. c+^ ^ ^ ^ ^ ^ d+e+    f+g+^ ^ ^ ^ ^ ^ h+. b+i+j+(+_+k+3+l+. m+n+o+o+p+q+Y           ",
"                                          r+s+^ ^ ^ t+u+v+w+        x+y+#+t+^ ^ ^ z+A+                                          ",
"                                          A+B+C+D+E+F+G+                G+F+H+I+C+J+K+                                          "};
