/* XPM */
static char * enemy_xpm[] = {
"64 64 395 2",
"  	c #89D0F0",
". 	c #90D2F1",
"+ 	c #9FD7F2",
"@ 	c #A2D8F2",
"# 	c #93D3F1",
"$ 	c #8AD0F0",
"% 	c #97D4F1",
"& 	c #9CD6F2",
"* 	c #8DD1F0",
"= 	c #9DD6F2",
"- 	c #CBE7F7",
"; 	c #EAF5FC",
"> 	c #EEF7FC",
", 	c #D4EBF8",
"' 	c #94D3F1",
") 	c #DCEFF9",
"! 	c #E6F3FB",
"~ 	c #C4E4F6",
"{ 	c #95D3F1",
"] 	c #A8D9F1",
"^ 	c #D8ECF6",
"/ 	c #F4FAFB",
"( 	c #FEFFFF",
"_ 	c #FFFFFF",
": 	c #FDFEFF",
"< 	c #BBE1F5",
"[ 	c #CDE8F7",
"} 	c #F2F9FA",
"| 	c #CEE9F5",
"1 	c #99D5F0",
"2 	c #ADDBF1",
"3 	c #DCEEF3",
"4 	c #E4F2F4",
"5 	c #E8F3F5",
"6 	c #F6FAFB",
"7 	c #D7ECF9",
"8 	c #E9F4FB",
"9 	c #FDFEFE",
"0 	c #F0F8F9",
"a 	c #E6F3F4",
"b 	c #E3F1F4",
"c 	c #CDE7F2",
"d 	c #9BD5F0",
"e 	c #A4D8F0",
"f 	c #DBEDF3",
"g 	c #E3F1F3",
"h 	c #EAF5F6",
"i 	c #FCFDFE",
"j 	c #E7F4FB",
"k 	c #FAFCFE",
"l 	c #F7FBFB",
"m 	c #E2F1F3",
"n 	c #C9E6F2",
"o 	c #95D3F0",
"p 	c #96D4F0",
"q 	c #CCE7F2",
"r 	c #E5F2F3",
"s 	c #F9FBFC",
"t 	c #F2F9FD",
"u 	c #A6D9F2",
"v 	c #B8DFF4",
"w 	c #F1F8F9",
"x 	c #E4F1F3",
"y 	c #E1F0F3",
"z 	c #B6DFF1",
"A 	c #8CD1F0",
"B 	c #AFDCF1",
"C 	c #DEEFF3",
"D 	c #F9FCFE",
"E 	c #C3E4F6",
"F 	c #8BD1F0",
"G 	c #DEEFFA",
"H 	c #EBF5F7",
"I 	c #D7ECF2",
"J 	c #97D4F0",
"K 	c #90D2F0",
"L 	c #C2E3F2",
"M 	c #E7F3F4",
"N 	c #FEFEFE",
"O 	c #FEFEFF",
"P 	c #DAEEF9",
"Q 	c #92D3F1",
"R 	c #F3F9FD",
"S 	c #E5F2F4",
"T 	c #ADDCF1",
"U 	c #94D3F0",
"V 	c #CDE8F2",
"W 	c #8AD0EF",
"X 	c #95D2EB",
"Y 	c #B1D7DE",
"Z 	c #C3DBD4",
"` 	c #CDDDCD",
" .	c #CEDDCD",
"..	c #CDDDCE",
"+.	c #C0DAD6",
"@.	c #AAD6E2",
"#.	c #92D1ED",
"$.	c #BAE0F5",
"%.	c #EFF7F8",
"&.	c #BFE2F1",
"*.	c #D1E9F2",
"=.	c #8ED1EE",
"-.	c #AFD7DF",
";.	c #E0E1BE",
">.	c #F7E8A7",
",.	c #FCE99F",
"'.	c #FCE89B",
").	c #FCE68E",
"!.	c #FCE58D",
"~.	c #FCE68F",
"{.	c #FCE99E",
"].	c #FBE9A0",
"^.	c #F3E6AB",
"/.	c #D7DFC6",
"(.	c #9ED3E8",
"_.	c #8CD0EF",
":.	c #E6F2F4",
"<.	c #C8E5F2",
"[.	c #CFE9F2",
"}.	c #F6FBFB",
"|.	c #D7ECF8",
"1.	c #8DD1EF",
"2.	c #A9D5E3",
"3.	c #DCE0BF",
"4.	c #F8E497",
"5.	c #FDDE7A",
"6.	c #FED65B",
"7.	c #FED029",
"8.	c #FFCD04",
"9.	c #FFCC00",
"0.	c #FFCD09",
"a.	c #FED139",
"b.	c #FED863",
"c.	c #FDE081",
"d.	c #F6E49E",
"e.	c #D1DEC9",
"f.	c #A1D4E6",
"g.	c #AADBF3",
"h.	c #EFF7FC",
"i.	c #C5E4F2",
"j.	c #93D3F0",
"k.	c #ECF5F7",
"l.	c #F1F8FD",
"m.	c #91D1ED",
"n.	c #C1DAD6",
"o.	c #EFE2A6",
"p.	c #FDDC72",
"q.	c #FED243",
"r.	c #FFCC04",
"s.	c #FFCD08",
"t.	c #FED451",
"u.	c #FCDE7C",
"v.	c #E5E0B3",
"w.	c #B3D7DE",
"x.	c #C7E5F6",
"y.	c #FAFDFE",
"z.	c #FBFDFD",
"A.	c #E6F3F5",
"B.	c #B9DFF1",
"C.	c #BCE1F1",
"D.	c #8FD1EE",
"E.	c #C4DBD4",
"F.	c #F4DE92",
"G.	c #FED450",
"H.	c #FFCD14",
"I.	c #FFCE1F",
"J.	c #FDD762",
"K.	c #EBDFA7",
"L.	c #B1D7DF",
"M.	c #8BD0EF",
"N.	c #F0F7F8",
"O.	c #A6D9F1",
"P.	c #ABDBF1",
"Q.	c #EDF6F7",
"R.	c #FCFEFE",
"S.	c #91D2F1",
"T.	c #BAD8D9",
"U.	c #F3DD93",
"V.	c #FFD03C",
"W.	c #FFCD10",
"X.	c #FDD454",
"Y.	c #ECDFA7",
"Z.	c #A0D4E7",
"`.	c #B9E0F5",
" +	c #F9FCFC",
".+	c #D6EBF2",
"++	c #AEDBF1",
"@+	c #F5FAFB",
"#+	c #BEE2F5",
"$+	c #A2D4E6",
"%+	c #E9DDA5",
"&+	c #FED659",
"*+	c #DEDFBA",
"=+	c #DFF0F9",
"-+	c #D9ECF2",
";+	c #C3E4F2",
">+	c #FCFDFD",
",+	c #F7FBFD",
"'+	c #D8DEC3",
")+	c #FED65A",
"!+	c #FFCC03",
"~+	c #FFCC05",
"{+	c #FEDB6D",
"]+	c #D6E3D8",
"^+	c #B0DCF1",
"/+	c #D2EAF2",
"(+	c #F2F8F9",
"_+	c #FEFCF4",
":+	c #FBDF87",
"<+	c #FFCD1A",
"[+	c #FDE6A0",
"}+	c #FBFBF7",
"|+	c #C9E6F1",
"1+	c #9CD6F0",
"2+	c #DCEFF2",
"3+	c #F9F0CC",
"4+	c #FFD038",
"5+	c #FED455",
"6+	c #F3F1D9",
"7+	c #DAECF2",
"8+	c #A0D7F1",
"9+	c #E4F1F1",
"0+	c #FADE89",
"a+	c #FFCC02",
"b+	c #FFCD25",
"c+	c #F4E4AE",
"d+	c #E3F1F2",
"e+	c #DCEEF2",
"f+	c #E6F0EA",
"g+	c #FDD247",
"h+	c #FECC00",
"i+	c #FFCC0F",
"j+	c #F7DB8D",
"k+	c #E5F0ED",
"l+	c #95D4F0",
"m+	c #E9EDDE",
"n+	c #F9C800",
"o+	c #E3B603",
"p+	c #E8B902",
"q+	c #FBC900",
"r+	c #EABB02",
"s+	c #FCC900",
"t+	c #F9D67A",
"u+	c #E7EEE6",
"v+	c #C1E3F1",
"w+	c #B3DEF1",
"x+	c #EAE9D1",
"y+	c #D4AA04",
"z+	c #9A7D08",
"A+	c #A68607",
"B+	c #D9AE04",
"C+	c #FAC801",
"D+	c #F6C501",
"E+	c #CEA604",
"F+	c #9B7E07",
"G+	c #A98807",
"H+	c #E5B702",
"I+	c #FAD46F",
"J+	c #E8ECDE",
"K+	c #DAEDF3",
"L+	c #9FD7F0",
"M+	c #C4E4F1",
"N+	c #EBE8CA",
"O+	c #FAC800",
"P+	c #B08E06",
"Q+	c #987B08",
"R+	c #A78707",
"S+	c #E1B402",
"T+	c #FDCB00",
"U+	c #D1A804",
"V+	c #9E8008",
"W+	c #997C08",
"X+	c #CDA504",
"Y+	c #FCCA00",
"Z+	c #FAD369",
"`+	c #E8EBDA",
" @	c #DCEFF3",
".@	c #B6DEF1",
"+@	c #92D3F0",
"@@	c #BEE1F1",
"#@	c #E0F0F3",
"$@	c #EBE7C9",
"%@	c #FECB00",
"&@	c #B99506",
"*@	c #D3A904",
"=@	c #FFD041",
"-@	c #FFD97C",
";@	c #FFDC85",
">@	c #FFD876",
",@	c #FFCE20",
"'@	c #F7C501",
")@	c #BC9706",
"!@	c #9B7E08",
"~@	c #E8EBD9",
"{@	c #D9EDF3",
"]@	c #B1DDF1",
"^@	c #8ED2F0",
"/@	c #C1E2F1",
"(@	c #D6ECF2",
"_@	c #EEBE02",
":@	c #AB8A07",
"<@	c #A18208",
"[@	c #EFBF01",
"}@	c #FFD563",
"|@	c #FFF9E9",
"1@	c #FFFFFE",
"2@	c #FFFFFD",
"3@	c #FFF5DE",
"4@	c #FFD24D",
"5@	c #E2B502",
"6@	c #AB8907",
"7@	c #A18207",
"8@	c #BC9705",
"9@	c #F2C101",
"0@	c #DDEEF3",
"a@	c #D4EBF2",
"b@	c #8ED1F0",
"c@	c #CAE6F2",
"d@	c #F5C401",
"e@	c #FFEBC4",
"f@	c #FFFEFC",
"g@	c #FFE3A9",
"h@	c #F7C601",
"i@	c #FBC901",
"j@	c #BDE1F1",
"k@	c #98D4F0",
"l@	c #C1E3F2",
"m@	c #FFDC8B",
"n@	c #FFEEC7",
"o@	c #FFEDC4",
"p@	c #B7DFF1",
"q@	c #92D2F0",
"r@	c #8FD1F0",
"s@	c #ACDBF1",
"t@	c #C8E5F1",
"u@	c #E9E6C9",
"v@	c #FFCC06",
"w@	c #FFD031",
"x@	c #FFD030",
"y@	c #E6EADA",
"z@	c #C2E3F1",
"A@	c #A5D9F0",
"B@	c #C0D4CF",
"C@	c #F1CE6E",
"D@	c #B7D6DB",
"E@	c #B3CFD1",
"F@	c #EFCD70",
"G@	c #A5CFDD",
"H@	c #A2CFDF",
"I@	c #D4CEA8",
"J@	c #EECD71",
"K@	c #F5CC59",
"L@	c #D7CEA5",
"M@	c #F9CC48",
"N@	c #FCCC31",
"O@	c #E6CD87",
"P@	c #CACEB8",
"Q@	c #9AD0E5",
"R@	c #BACEC9",
"S@	c #90D0EC",
"T@	c #9ACFE5",
"U@	c #FDCC2B",
"V@	c #F1CD69",
"W@	c #ABCFD8",
"X@	c #98D0E7",
"Y@	c #DACD9E",
"Z@	c #FDCC27",
"`@	c #B6CFCE",
" #	c #C5CEBC",
".#	c #F8CC4A",
"+#	c #C8CEBA",
"@#	c #91D0EB",
"##	c #94D0E9",
"$#	c #CFCEB0",
"%#	c #FBCC39",
"&#	c #FACC42",
"*#	c #B9CECB",
"=#	c #C9CEB8",
"-#	c #F3CD60",
";#	c #BCCEC8",
">#	c #8DD0EE",
",#	c #B5CFCF",
"'#	c #F4CD5D",
")#	c #FFCC0B",
"!#	c #F9CC44",
"~#	c #E6CC85",
"{#	c #D0CEAF",
"]#	c #BACFCA",
"^#	c #95D0E9",
"/#	c #C0CFC3",
"(#	c #D6CEA6",
"_#	c #ECCC76",
":#	c #FCCC2E",
"<#	c #EDCD75",
"[#	c #99D0E6",
"                                                                                                                                ",
"                                                                                                                                ",
"                                                                                                                                ",
"                                                                                                                                ",
"                                                                                                                                ",
"                                                                                                                                ",
"                                                                                                                                ",
"                                                                                                                                ",
"                                                                                                                                ",
"                                                                                                                                ",
"                                                                                                                                ",
"                                                                                                                                ",
"                                                                                                                                ",
"                                                                                                                                ",
"                                                                                                                                ",
"                                                                                                                                ",
"                                                                                                                                ",
"                                                                                                                                ",
"                                                                                                                                ",
"                                                                                                                                ",
"                                                                                                                                ",
"                                                                                                                                ",
"                                                                                                                                ",
"                                                                                                                                ",
"                                                                                                                                ",
"                                                                                                                                ",
"                      . + @ #                                                                     $ % @ & *                     ",
"                    = - ; > , '                                                                   + ) > ! ~ {                   ",
"                  ] ^ / ( _ : <                                                                   [ ( _ ( } | 1                 ",
"                2 3 4 5 6 _ _ 7 $                                                               $ 8 _ 9 0 a b c d               ",
"              e f g g g h i _ j .                                                               ' k _ l a g g m n o             ",
"            p q m g g g r s _ t u                                                               v _ ( w x g g g y z A           ",
"          $ B C g g g g g w _ D E $                                                           F G _ i H g g g g g I J           ",
"          K L g g g g g g M N O P Q                                                           & R _ l S g g g g g m T           ",
"          U V g g g g g g g 6 _ 8 @                   W X Y Z `  ...+.@.#.$                   $.k ( %.g g g g g g g &.          ",
"          J *.g g g g g g g 5 _ D <               =.-.;.>.,.'.).!.~.{.].^./.(._.            A G ( 9 :.g g g g g g g <.          ",
"          p [.g g g g g g g g }._ |.#         1.2.3.4.5.6.7.8.9.9.9.0.a.b.c.d.e.f._.        g.h._ w g g g g g g g g i.          ",
"          j.n g g g g g g g g k.9 l.@       m.n.o.p.q.r.9.9.9.9.9.9.9.9.9.s.t.u.v.w.1.    * x.y.z.A.g g g g g g g g B.          ",
"          * C.m g g g g g g g :.6 O x.    D.E.F.G.H.9.9.9.9.9.9.9.9.9.9.9.9.9.I.J.K.L.M.  + ! _ N.g g g g g g g g m O.          ",
"            P.3 g g g g g g g g Q.R.l.S.M.T.U.V.9.9.9.9.9.9.9.9.9.9.9.9.9.9.9.9.W.X.Y.Z.$ `.y. +:.g g g g g g g g .+U           ",
"            ++C g g g g g g g g S @+_ #+$+%+q.9.9.9.9.9.9.9.9.9.9.9.9.9.9.9.9.9.9.9.&+*+j.=+N Q.g g g g g g g g g -+p           ",
"          K ;+g g g g g g g g g g h >+,+'+)+!+9.9.9.9.9.9.9.9.9.9.9.9.9.9.9.9.9.9.9.~+{+]+: 6 a g g g g g g g g g m ^+          ",
"          J /+g g g g g g g g g g x (+_+:+H.9.9.9.9.9.9.9.9.9.9.9.9.9.9.9.9.9.9.9.9.9.<+[+}+k.g g g g g g g g g g g |+          ",
"          1+2+g g g g g g g g g g g S 3+4+9.9.9.9.9.9.9.9.9.9.9.9.9.9.9.9.9.9.9.9.9.9.9.5+6+4 g g g g g g g g g g g 7+          ",
"          8+m g g g g g g g g g g g 9+0+a+9.9.9.9.9.9.9.9.9.9.9.9.9.9.9.9.9.9.9.9.9.9.9.b+c+d+g g g g g g g g g g g m           ",
"          1+e+g g g g g g g g g g g f+g+9.9.9.9.h+9.9.9.9.9.9.9.9.9.9.9.9.9.9.h+9.9.9.9.i+j+k+g g g g g g g g g g g -+          ",
"          l+V g g g g g g g g g g g m+H.9.9.9.n+o+p+q+9.9.9.9.9.9.9.9.9.9.9.n+o+r+s+9.9.a+t+u+g g g g g g g g g g g v+          ",
"          A w+C g g g g g g g g g g x+9.9.9.h+y+z+A+B+C+9.9.9.9.9.9.9.9.9.D+E+F+G+H+9.9.9.I+J+g g g g g g g g g g K+L+          ",
"            o M+y g g g g g g g g g N+9.9.9.O+P+Q+Q+R+S+T+9.9.9.9.9.9.9.q+U+V+Q+W+X+Y+9.9.Z+`+g g g g g g g g g  @.@A           ",
"              +@@@#@g g g g g g g g $@9.9.9.%@&@Q+Q+W+*@Y+a+=@-@;@>@,@9.'@)@Q+Q+!@y+9.9.9.Z+~@g g g g g g g g {@]@^@            ",
"                  p /@(@C m g g g g $@9.9.9.9._@:@<@&@[@9.}@|@1@_ 2@3@4@9.5@6@7@8@9@9.9.9.Z+~@g g g g y 0@a@B.+@                ",
"                      b@1+c@y g g g $@9.9.9.9.9.C+d@O+9.9.e@_ _ _ _ f@g@9.9.h@d@i@9.9.9.9.Z+~@g g g 0@j@k@F                     ",
"                          p l@0@g g $@9.9.9.9.9.9.9.9.9.9.m@n@n@n@n@o@>@9.9.9.9.9.9.9.9.9.Z+~@g g {@p@q@                        ",
"                            r@s@t@3 u@9.9.9.9.9.9.9.9.9.9.v@w@w@w@w@x@a+9.9.9.9.9.9.9.9.9.Z+y@3 z@A@*                           ",
"                              $ K 1 B@9.9.9.9.9.9.9.9.9.9.9.9.9.9.9.9.9.9.9.9.9.9.9.9.9.9.C@D@1 ^@                              ",
"                                    E@9.9.9.9.9.9.9.9.9.9.9.9.9.9.9.9.9.9.9.9.9.9.9.9.9.9.F@G@                                  ",
"                                    E@9.9.9.9.9.9.9.9.9.9.9.9.9.9.9.9.9.9.9.9.9.9.9.9.9.9.F@G@                                  ",
"                                    E@9.9.9.9.9.9.9.9.9.9.9.9.9.9.9.9.9.9.9.9.9.9.9.9.9.9.F@G@                                  ",
"                                    E@9.9.9.9.9.9.9.9.9.9.9.9.9.9.9.9.9.9.9.9.9.9.9.9.9.9.F@G@                                  ",
"                                    H@I@I@I@I@J@9.9.9.9.9.K@I@I@I@I@L@M@9.9.9.9.N@O@I@I@I@P@Q@                                  ",
"                                              R@9.9.9.9.9.M@S@      T@U@9.9.9.9.V@W@                                            ",
"                                            X@Y@9.9.9.9.9.Z@`@       #9.9.9.9.9..#+#@#                                          ",
"                                          ##$#%#9.9.9.9.9.&#*#      =#U@9.9.9.9.9.-#;#>#                                        ",
"                                          ,#'#9.9.)#!#~#{#]#^#      T@/#(#_#:#9.9.)#<#[#                                        "};
