/* XPM */
static char * wall_up_xpm[] = {
"64 64 39 1",
" 	c #C4ECFF",
".	c #B6E4FB",
"+	c #B4E4FA",
"@	c #B9E6FC",
"#	c #89D0F0",
"$	c #ADE0F8",
"%	c #C1EAFE",
"&	c #B0E2F9",
"*	c #B3E3FA",
"=	c #A3DBF6",
"-	c #AADFF8",
";	c #A7DDF7",
">	c #B1E2FA",
",	c #93D4F2",
"'	c #96D6F3",
")	c #8ED2F1",
"!	c #9ED9F5",
"~	c #B1E2F9",
"{	c #ACE0F8",
"]	c #B7E5FB",
"^	c #9BD7F4",
"/	c #8DD2F1",
"(	c #B5E4FB",
"_	c #BFE9FE",
":	c #ADE0F9",
"<	c #A4DCF6",
"[	c #BCE8FD",
"}	c #BBE7FC",
"|	c #B4E3FA",
"1	c #BAE6FC",
"2	c #B6E5FB",
"3	c #AFE1F9",
"4	c #9DD8F4",
"5	c #94D5F2",
"6	c #BEE9FD",
"7	c #8BD1F0",
"8	c #8AD0F0",
"9	c #91D3F2",
"0	c #A6DDF7",
"                                                                ",
"                                                                ",
"                                                                ",
"                                                                ",
"                                                                ",
"                                                                ",
"                                                                ",
"                                                                ",
"                                                                ",
"                                                                ",
"                                                                ",
".+@                                                             ",
"####$                                                  %&%     *",
"#####=-;                                           >,&*'#;   %$)",
"########!%                      ~{           %]>^^/#######-]+'##",
"#########*                  ](_:##<[]}       ~##################",
"#########|                 ])#########=1   }&)##################",
"#########,2             }34############56 ]/####################",
"###########7}         @38#######################################",
"############9}       ]##########################################",
"##############=|]+=-0)##########################################",
"################################################################",
"################################################################",
"################################################################",
"################################################################",
"################################################################",
"################################################################",
"################################################################",
"################################################################",
"################################################################",
"################################################################",
"################################################################",
"################################################################",
"################################################################",
"################################################################",
"################################################################",
"################################################################",
"################################################################",
"################################################################",
"################################################################",
"################################################################",
"################################################################",
"################################################################",
"################################################################",
"################################################################",
"################################################################",
"################################################################",
"################################################################",
"################################################################",
"################################################################",
"################################################################",
"################################################################",
"################################################################",
"################################################################",
"################################################################",
"################################################################",
"################################################################",
"################################################################",
"################################################################",
"################################################################",
"################################################################",
"################################################################",
"################################################################",
"################################################################"};
