/* XPM */
static char * wall_xpm[] = {
"64 64 201 2",
"  	c #89D0F0",
". 	c #96D4F1",
"+ 	c #BCE2F4",
"@ 	c #D4ECF6",
"# 	c #E3F3F9",
"$ 	c #E9F5F9",
"% 	c #E7F5F9",
"& 	c #DCEFF8",
"* 	c #C8E7F5",
"= 	c #A6DAF2",
"- 	c #8AD0F0",
"; 	c #97D4F1",
"> 	c #CDE9F5",
", 	c #EBF7FA",
"' 	c #EEF8FA",
") 	c #DFF1F7",
"! 	c #AEDCF3",
"~ 	c #B1DDF3",
"{ 	c #EDF7F9",
"] 	c #EBF6F8",
"^ 	c #EAF6F8",
"/ 	c #ECF7F9",
"( 	c #CDE9F6",
"_ 	c #8FD2F0",
": 	c #B9E1F4",
"< 	c #EDF8FA",
"[ 	c #E9F5F7",
"} 	c #E5F2F4",
"| 	c #E3F1F3",
"1 	c #E4F1F3",
"2 	c #E6F3F5",
"3 	c #D7EEF7",
"4 	c #B0DDF3",
"5 	c #ECF7FA",
"6 	c #EAF5F7",
"7 	c #E4F2F4",
"8 	c #E7F3F5",
"9 	c #D1EBF6",
"0 	c #9DD6F1",
"a 	c #E9F6F9",
"b 	c #E8F4F6",
"c 	c #B8E0F4",
"d 	c #8ED1F0",
"e 	c #A3D8F2",
"f 	c #D9EEF7",
"g 	c #E7F4F6",
"h 	c #ABDBF2",
"i 	c #ADDCF3",
"j 	c #A4D9F2",
"k 	c #94D3F1",
"l 	c #8CD1F0",
"m 	c #BFE2F4",
"n 	c #E5F4F9",
"o 	c #DEF0F8",
"p 	c #C1E4F4",
"q 	c #98D4F1",
"r 	c #D3EBF6",
"s 	c #ECF6F8",
"t 	c #E9F4F6",
"u 	c #EAF6F9",
"v 	c #C5E5F5",
"w 	c #90D2F0",
"x 	c #CBE8F5",
"y 	c #E1F2F8",
"z 	c #A1D8F1",
"A 	c #A9DAF2",
"B 	c #EDF7FA",
"C 	c #E8F5F9",
"D 	c #A1D8F2",
"E 	c #D0EAF6",
"F 	c #E5F3F5",
"G 	c #E4F3F8",
"H 	c #92D3F1",
"I 	c #D7EDF6",
"J 	c #BBE1F4",
"K 	c #DDF0F8",
"L 	c #B2DEF3",
"M 	c #B4DFF3",
"N 	c #DEF1F7",
"O 	c #8BD1F0",
"P 	c #CCE8F5",
"Q 	c #BFE3F4",
"R 	c #C2E4F4",
"S 	c #DAEFF8",
"T 	c #B3DEF3",
"U 	c #AADBF2",
"V 	c #93D3F1",
"W 	c #9ED6F0",
"X 	c #D1DFE2",
"Y 	c #9AACAE",
"Z 	c #CAD9DB",
"` 	c #A2B2B5",
" .	c #CFDEE0",
"..	c #D8EEF7",
"+.	c #CDE7F1",
"@.	c #E2F0F2",
"#.	c #97A8AB",
"$.	c #7A8E91",
"%.	c #7D9194",
"&.	c #CBD9DC",
"*.	c #D1E0E2",
"=.	c #829598",
"-.	c #8FA1A3",
";.	c #C8E6F4",
">.	c #9AD5F0",
",.	c #E0EFF1",
"'.	c #98A9AC",
").	c #9EAFB2",
"!.	c #E6F2F4",
"~.	c #E9F4F5",
"{.	c #E6F3F4",
"].	c #A8B9BB",
"^.	c #8EA1A3",
"/.	c #C9E5F1",
"(.	c #BAE0F1",
"_.	c #D8EAED",
":.	c #DAEBEE",
"<.	c #D2E1E3",
"[.	c #9DAEB0",
"}.	c #9CADB0",
"|.	c #F2F8F9",
"1.	c #FFFFFF",
"2.	c #F4F9FA",
"3.	c #D7E6E8",
"4.	c #94A6A8",
"5.	c #CDDCDE",
"6.	c #DBECEF",
"7.	c #E0EFF2",
"8.	c #B8DFF1",
"9.	c #CDE7F2",
"0.	c #DFEEF1",
"a.	c #D6E9EC",
"b.	c #DAECEE",
"c.	c #FBFDFD",
"d.	c #FDFEFE",
"e.	c #D7EAED",
"f.	c #E1F0F2",
"g.	c #E0F0F3",
"h.	c #93D3F0",
"i.	c #D7ECF2",
"j.	c #E7F3F4",
"k.	c #D9EBEE",
"l.	c #DAEDF3",
"m.	c #DEEEF0",
"n.	c #CEE8F2",
"o.	c #D7EBF2",
"p.	c #DFEFF1",
"q.	c #D8ECF3",
"r.	c #D9EBED",
"s.	c #E2F1F3",
"t.	c #D9EDF3",
"u.	c #B5DEF0",
"v.	c #DCECEF",
"w.	c #D6E9ED",
"x.	c #9DD5EF",
"y.	c #B6DDEE",
"z.	c #CCE5ED",
"A.	c #DBECEE",
"B.	c #CEE6ED",
"C.	c #BCE0EE",
"D.	c #A7D8EE",
"E.	c #91D2F0",
"F.	c #8BD0F0",
"G.	c #99D4EF",
"H.	c #B1DBEE",
"I.	c #C6E3ED",
"J.	c #D3E8EC",
"K.	c #CFE6EC",
"L.	c #BFE0ED",
"M.	c #ADDAEE",
"N.	c #97D4EF",
"O.	c #8FD1F0",
"P.	c #A3D7EF",
"Q.	c #B5DDEE",
"R.	c #D2E8EC",
"S.	c #D7E9EC",
"T.	c #C8E3ED",
"U.	c #BADFEE",
"V.	c #A8D9EE",
"W.	c #95D3EF",
"X.	c #AAD9EE",
"Y.	c #B8DEEE",
"Z.	c #C4E1ED",
"`.	c #D4E8EC",
" +	c #C9E4ED",
".+	c #B4DDEE",
"++	c #A8D9EF",
"@+	c #AEDAEE",
"#+	c #B6DEEE",
"$+	c #BDE0EE",
"%+	c #C2E1ED",
"&+	c #C8E4ED",
"*+	c #D2E7EB",
"=+	c #D0E7EC",
"-+	c #CBE5ED",
";+	c #C7E3ED",
">+	c #C1E0ED",
",+	c #BEE0EE",
"'+	c #AFDBEE",
")+	c #A8D8EF",
"!+	c #92D2EF",
"                                                                                                                                ",
"                                                                                                                                ",
"                                                                                                                                ",
"                                                                                                                                ",
"                                                                                                                                ",
"                                                                                                                                ",
"                                                                                                                                ",
"                                                                                                                                ",
"                                                                                                                                ",
"                                                                                                                                ",
"                                                                                                                                ",
"                                                                                                                                ",
"                                                                                                                                ",
"                                                                                                                                ",
"                                                                                                                                ",
"                                                                                                                                ",
"                                                . + @ # $ $ % & * = -                                                           ",
"                                            ; > , ' ' ' ' ' ' ' ' ' ) ! -                                                       ",
"                                        - ~ % ' ' ' { ] ^ ^ ^ / ' ' ' ' ( _                                                     ",
"                                        : < ' { [ } | | | | | | 1 2 ] ' ' 3 _                                                   ",
"                                      4 5 ' 6 7 | | | | | | | | | | | 8 { ' 9 -                                                 ",
"                                    0 a ' b | | | | | | | | | | | | | | 7 / ' c                                                 ",
"                            d e ! ! f ' g | | | | | | | | | | | | | | | | 7 / % h ! i j k -                                     ",
"                        l m n ' ' ' ' [ | | | | | | | | | | | | | | | | | | } ' ' ' ' ' , o p q                                 ",
"                      l r ' ' ' ' ' s | | | | | | | | | | | | | | | | | | | | t { { { ' ' ' ' u v w                             ",
"                      x ' ' ] g } } 7 | | | | | | | | | | | | | | | | | | | | | | | | 7 2 [ { ' ' y z                           ",
"                    A B { 2 | | | | | | | | | | | | | | | | | | | | | | | | | | | | | | | | | g { ' C D                         ",
"                    E < F | | | | | | | | | | | | | | | | | | | | | | | | | | | | | | | | | | | 7 ] ' G ;                       ",
"                  H n b | | | | | | | | | | | | | | | | | | | | | | | | | | | | | | | | | | | | | | 6 ' I -                     ",
"            w J K , { | | | | | | | | | | | | | | | | | | | | | | | | | | | | | | | | | | | | | | | | ] ' L                     ",
"        - M n ' ' ' 6 | | | | | | | | | | | | | | | | | | | | | | | | | | | | | | | | | | | | | | | | 7 { N -                   ",
"      O P ' ' ' ] b } | | | | | | | | | | | | | | | | | | | | | | | | | | | | | | | | | | | | | | | | | g < e                   ",
"    - E ' ' ] } | | | | | | | | | | | | | | | | | | | | | | | | | | | | | | | | | | | | | | | | | | | | | { Q                   ",
"    R ' ' b | | | | | | | | | | | | | | | | | | | | | | | | | | | | | | | | | | | | | | | | | | | | | | | [ S T U V -           ",
"  W u ' 8 | | | | | | | | | | | | | | | X Y Z | | | | | | | | | | | | | X `  .| | | | | | | | | | | | | | 2 ' ' ' B ..h -       ",
"  +.b b | | | | | | | | | | | | | | | @.#.$.%.&.| | | | | | | | | | | *.=.$.-.@.| | | | | | | | | | | | | 1 g b 6 { ' ' ;.O     ",
">.| ,.@.| | | | | | | | | | | | | | | | '.$.$.).| | | | !.~.{.| | | | ].$.$.^.@.| | | | | | | | | | | | | | | | | | 8 ] 7 /.O   ",
"(.| _.:.| | | | | | | | | | | | | | | | <.[.}.<.| | | |.1.1.1.2.| | | 3.Y 4.5.| | | | | | | | | | | | | | | | | | | | 6.7.| 8.  ",
"9.0.a.a.b.| | | | | | | | | | | | | | | | | | | | | | c.1.1.1.d.| | | | | | | | | | | | | | | | | | | | | | | | | | 6.a.e.f.g.h.",
"i.b.a.a.a.:.@.| | | | | | | | | | | | | | | | | | | | j.t t t 8 | | | | | | | | | | | | | | | | | | | | | | | | @.:.a.a.a.k.| 8.",
"l.e.a.a.a.a.e.m.| | | | | | | | | | | | | | | | | | | | | | | | | | | | | | | | | | | | | | | | | | | | | | | m.e.a.a.a.a.a.,.n.",
"o.a.a.a.a.a.a.a.k.,.| | | | | | | | | | | | | | | | | | | | | | | | | | | | | | | | | | | | | | | | | | | p.k.a.a.a.a.a.a.a.6.q.",
"+.a.a.a.a.a.a.a.a.a.r.m.s.| | | | | | | | | | | | | | | | | | | | | | | | | | | | | | | | | | | | | s.m.r.a.a.a.a.a.a.a.a.a.k.t.",
"u.a.a.a.a.a.a.a.a.a.a.a.e.v.,.| | | | | | | | | | | | | | | | | | | | | | | | | | | | | | | | | ,.6.e.a.a.a.a.a.a.a.a.a.a.a.w.8.",
"- x.y.z.a.a.a.a.a.a.a.a.a.a.a.e.6.m.f.| | | | | | | | | | | | | | | | | | | | | | | | | f.m.A.e.a.a.a.a.a.a.a.a.a.a.a.B.C.D.E.  ",
"      F.G.H.I.J.a.a.a.a.a.a.a.a.a.a.a.e.:.6.m.p.f.@.| | | | | | | | | | | @.f.p.m.6.k.e.a.a.a.a.a.a.a.a.a.a.a.K.L.M.N.F.        ",
"              O.P.Q.I.R.a.a.a.a.a.a.a.a.a.a.a.a.a.a.S.e._._._._._._._.e.S.a.a.a.a.a.a.a.a.a.a.a.a.a.J.T.U.V.W.F.                ",
"                      O G.X.Y.Z.z.`.a.a.a.a.a.a.a.a.a.a.a.a.a.a.a.a.a.a.a.a.a.a.a.a.a.a.J. +L..+++G.O                           ",
"                                  F.N.P.@+#+$+%+&+z.K.*+*+*+*+*+*+*+=+-+;+>+,+Y.'+)+x.!+-                                       ",
"                                                                                                                                ",
"                                                                                                                                ",
"                                                                                                                                ",
"                                                                                                                                ",
"                                                                                                                                ",
"                                                                                                                                ",
"                                                                                                                                ",
"                                                                                                                                ",
"                                                                                                                                ",
"                                                                                                                                ",
"                                                                                                                                ",
"                                                                                                                                ",
"                                                                                                                                ",
"                                                                                                                                ",
"                                                                                                                                "};
