/* XPM */
static char * wall4_xpm[] = {
"64 64 216 2",
"  	c #89D0F0",
". 	c #C6DE5C",
"+ 	c #C5DD59",
"@ 	c #B3D02A",
"# 	c #9EC128",
"$ 	c #A6C729",
"% 	c #ABCB29",
"& 	c #AACA29",
"* 	c #7BA925",
"= 	c #B2CF2A",
"- 	c #B0CE29",
"; 	c #B1CE2A",
"> 	c #7DAA25",
", 	c #A2C428",
"' 	c #B0CE2A",
") 	c #84AF25",
"! 	c #9CBF28",
"~ 	c #B1CF2A",
"{ 	c #89B326",
"] 	c #A9C929",
"^ 	c #86B026",
"/ 	c #98BD27",
"( 	c #ADCC2A",
"_ 	c #A8C829",
": 	c #A6C629",
"< 	c #80AC25",
"[ 	c #6FA024",
"} 	c #8BB426",
"| 	c #A4C528",
"1 	c #76A625",
"2 	c #91B727",
"3 	c #9DC028",
"4 	c #7EAB25",
"5 	c #6FA124",
"6 	c #72A324",
"7 	c #94BA27",
"8 	c #7AA825",
"9 	c #93B927",
"0 	c #A7C729",
"a 	c #70A224",
"b 	c #90B726",
"c 	c #7FAB25",
"d 	c #91B827",
"e 	c #77A725",
"f 	c #ADCB29",
"g 	c #8EB626",
"h 	c #AFCE2A",
"i 	c #97BC27",
"j 	c #79A825",
"k 	c #9BBF27",
"l 	c #A3C428",
"m 	c #95BA27",
"n 	c #769229",
"o 	c #77A625",
"p 	c #91B726",
"q 	c #9CC028",
"r 	c #99BD27",
"s 	c #84AF26",
"t 	c #759428",
"u 	c #93B827",
"v 	c #7CAA25",
"w 	c #78A725",
"x 	c #71A224",
"y 	c #88B226",
"z 	c #8CB426",
"A 	c #7AA925",
"B 	c #73A424",
"C 	c #739627",
"D 	c #886537",
"E 	c #719D25",
"F 	c #719C26",
"G 	c #7C802E",
"H 	c #846F34",
"I 	c #759328",
"J 	c #7F7931",
"K 	c #729A26",
"L 	c #7C812E",
"M 	c #807031",
"N 	c #718F25",
"O 	c #817832",
"P 	c #9A6040",
"Q 	c #8A5639",
"R 	c #875F37",
"S 	c #895938",
"T 	c #7A602E",
"U 	c #709325",
"V 	c #807731",
"W 	c #8C583A",
"X 	c #7D7E2F",
"Y 	c #985F3F",
"Z 	c #866836",
"` 	c #709E25",
" .	c #836C34",
"..	c #759329",
"+.	c #709D25",
"@.	c #7F7B30",
"#.	c #8F593B",
"$.	c #866536",
"%.	c #8C573A",
"&.	c #7E7C30",
"*.	c #7B832E",
"=.	c #945C3C",
"-.	c #7D602F",
";.	c #719B26",
">.	c #759229",
",.	c #7E7D30",
"'.	c #955D3E",
").	c #AC6C48",
"!.	c #9D6342",
"~.	c #945D3D",
"{.	c #996040",
"].	c #915A3B",
"^.	c #7D4E30",
"/.	c #846235",
"(.	c #856735",
"_.	c #8E593B",
":.	c #A66845",
"<.	c #8D583B",
"[.	c #846B34",
"}.	c #7A892D",
"|.	c #769029",
"1.	c #798A2C",
"2.	c #836E34",
"3.	c #8D583A",
"4.	c #A96A47",
"5.	c #769129",
"6.	c #778E2B",
"7.	c #876136",
"8.	c #8F5A3C",
"9.	c #866236",
"0.	c #A86946",
"a.	c #975F3F",
"b.	c #846A34",
"c.	c #836F33",
"d.	c #778F2B",
"e.	c #895A38",
"f.	c #A76946",
"g.	c #9E6342",
"h.	c #925C3D",
"i.	c #915B3C",
"j.	c #905A3C",
"k.	c #8F5A3B",
"l.	c #AB6B48",
"m.	c #945D3E",
"n.	c #885D37",
"o.	c #856535",
"p.	c #885B38",
"q.	c #9F6443",
"r.	c #935C3D",
"s.	c #A86A46",
"t.	c #A56845",
"u.	c #885C38",
"v.	c #965E3F",
"w.	c #985F3D",
"x.	c #895536",
"y.	c #99603F",
"z.	c #A56745",
"A.	c #A16543",
"B.	c #A46745",
"C.	c #A06443",
"D.	c #925B3D",
"E.	c #A26644",
"F.	c #A46744",
"G.	c #A26543",
"H.	c #A86945",
"I.	c #905833",
"J.	c #A16440",
"K.	c #A96A46",
"L.	c #A26540",
"M.	c #A56743",
"N.	c #AB6B47",
"O.	c #925934",
"P.	c #A46642",
"Q.	c #AA6B46",
"R.	c #A0633E",
"S.	c #9C613C",
"T.	c #945B35",
"U.	c #975D38",
"V.	c #A36541",
"W.	c #9C603C",
"X.	c #A96A45",
"Y.	c #A76944",
"Z.	c #A76844",
"`.	c #915934",
" +	c #945B36",
".+	c #AB6C47",
"++	c #955B36",
"@+	c #975D37",
"#+	c #935A35",
"$+	c #945A35",
"%+	c #AB6C48",
"&+	c #A26440",
"*+	c #A66743",
"=+	c #9E613D",
"-+	c #9D613C",
";+	c #9F633F",
">+	c #A66844",
",+	c #A86844",
"'+	c #A0633F",
")+	c #9F623E",
"!+	c #9B603B",
"~+	c #AA6A46",
"{+	c #A66843",
"]+	c #905832",
"^+	c #A56742",
"/+	c #9E623E",
"(+	c #925A35",
"_+	c #965C37",
":+	c #975D39",
"<+	c #9A5F3B",
"[+	c #985D39",
"}+	c #A36641",
"|+	c #9A5F3A",
"1+	c #9A603B",
"2+	c #9B5F3A",
"3+	c #915933",
"                                                                                                                                ",
"                                                                                                                                ",
"                                                                                                                                ",
"                                                                                                                                ",
"                                                                                                                                ",
"                                                                                                                                ",
"                                                                                                                                ",
"                                                                                                                                ",
"                                                                                                                                ",
"                                                                                                                                ",
"                                                                                                                                ",
"                                                                                                                                ",
"                                                                                                                                ",
"                                                                                                                                ",
"                                                                                                                                ",
"                                                                                                                                ",
"                                                                                                                                ",
"                                                                                                                                ",
"                                                                                                                                ",
"                                                                                                                                ",
"                                                                                                                                ",
"                                                                                                                                ",
"                                                                                                                                ",
"                                                                                                                                ",
"                                                                                                                                ",
"                                                                                                                                ",
"                                                                                                                                ",
"                                                                                                                                ",
"                                                                                                                                ",
"                                                                                                                                ",
"                                                                                                                                ",
"                                                                                                                                ",
"                                                                                                                                ",
"                                                                                                                                ",
"                                                                                                                                ",
"                                                                                                                                ",
"                                                                                                                                ",
"                                                                                                                                ",
"                                                                                                                                ",
". . . . . . . . . . . . . . . . . . . . . . . . . . . . . . . . . . . . . . . . . . . . . . . . . . . . . . . . . . . . . . . . ",
". . . . . . . . . . . . . . . . . . . . . . . . . . . . . . . . . . . . . . . . . . . . . . . . . . . . . . . . . . . . . . . . ",
". . . . . . . . . . . . . . . . . . . . . . . . . . . . . . . . . . . . . . . . . . . . . . . . . . . . . . . . . . . . . . . . ",
"+ + + + + + + + + + + + + + + + + + + + + + + + + + + + + + + + + + + + + + + + + + + + + + + + + + + + + + + + + + + + + + + + ",
"@ @ @ @ @ @ @ @ @ @ @ @ @ @ @ @ @ @ @ @ @ @ @ @ @ @ @ @ @ @ @ @ @ @ @ @ @ @ @ @ @ @ @ @ @ @ @ @ @ @ @ @ @ @ @ @ @ @ @ @ @ @ @ @ ",
"@ @ @ @ @ @ @ @ @ @ @ @ @ @ @ @ @ @ @ @ @ @ @ @ @ @ @ @ @ @ @ @ @ @ @ @ @ @ @ @ @ @ @ @ @ @ @ @ @ @ @ @ @ @ @ @ @ @ @ @ @ @ @ @ ",
"@ @ @ @ @ @ @ @ @ @ @ @ @ @ @ @ @ @ @ @ @ @ @ @ @ @ @ @ @ @ @ @ @ @ @ @ @ @ @ @ @ @ @ @ @ @ @ @ @ @ @ @ @ @ @ @ @ @ @ @ @ @ @ @ ",
"@ @ @ @ @ @ @ @ @ @ @ @ @ @ @ @ @ @ @ @ @ @ @ @ @ @ @ @ @ @ @ @ @ @ @ @ @ @ @ @ @ @ @ @ @ @ @ @ @ @ @ @ @ @ @ @ @ @ @ @ @ @ @ @ ",
"@ @ @ @ @ @ @ @ @ @ @ @ @ @ @ @ @ @ @ @ @ @ @ @ @ @ @ @ @ @ @ @ @ @ @ @ @ @ @ @ @ @ @ @ @ @ @ @ @ @ @ @ @ @ @ @ @ @ @ @ @ @ @ @ ",
"@ @ @ @ @ @ @ @ @ @ @ @ @ @ @ @ @ @ @ @ @ @ @ @ @ @ @ @ @ @ @ @ @ @ @ @ @ @ @ @ @ @ @ @ @ @ @ @ @ @ @ @ @ @ @ @ @ @ @ @ @ @ @ @ ",
"# @ @ @ @ @ @ @ @ @ @ @ @ $ @ @ @ @ @ @ @ @ @ @ @ % @ @ @ @ @ @ @ @ @ @ @ @ @ @ @ @ @ @ @ @ @ @ @ % @ @ @ @ @ @ @ @ @ @ @ @ @ & ",
"* = @ @ @ @ @ @ - @ @ @ ; > , @ @ @ ' @ @ @ @ @ @ ) & @ @ @ @ & ! @ @ @ ~ { ' @ @ @ - @ @ @ @ @ ] ^ @ @ @ @ @ / ( @ @ @ _ _ : < ",
"[ } ~ @ @ @ @ | 1 2 , 3 4 5 6 7 , ! 8 7 @ @ @ @ 9 5 * 0 @ @ 0 * a b , 3 c 5 > 3 , d e _ @ @ @ f > 5 g h @ = i a j k l m 6 5 5 5 ",
"n 5 o p q r s 5 5 5 5 5 5 5 5 5 5 5 t 5 > u u v 5 5 5 5 e w 5 5 5 [ 5 5 5 5 5 5 5 5 5 x y m z 6 t 5 5 x A B 5 5 5 5 5 5 5 5 5 C ",
"D C 5 E F 5 5 5 5 5 G 5 5 5 5 5 5 5 H I 5 5 5 5 5 5 5 5 5 5 5 5 5 J K 5 5 5 5 5 L 5 5 5 5 5 5 5 M N 5 5 5 5 5 5 5 5 5 5 5 5 5 O ",
"P Q R S T U 5 5 E V W X 5 5 5 5 5 L Y Z ` 5 5 5 5 5 K  ...5 5 +.@.#.$.t 5 5 E J %.&.5 5 5 5 5 *.=.-.E 5 5 5 5 5 ;. .>.5 5 ` ,.'.",
").!.~.{.].^./.(.S _.:.<.[.}.|.1.2.3.4.{.(.5.5 5 [ 6.7.8.Q 9.(.S 3.0.a.Q 9.(.S <.:._.b.}.|.1.c.%.0.P $.|.5 5 5 d.9.8.Q 9.(.e.3.f.",
").).).).).g.h.i.P 4.).:.j.Q Q Q k.:.).l.m.Q n.o.p.Q a.).q.r.i.{.s.).).q.r.i.{.4.).f.j.Q Q Q #.t.).l.'.Q n.o.u.Q v.).w.x.j.y.0.).",
").).).).).).).).).).).).).z.A.B.).).).).).C.'.D.v.E.).).).).).).).).).).).).).).).).).z.A.F.).).).).).A.'.D.v.G.).H.I.I.J.).).).",
").).).).).).).).).).).K.H.).).).).L.M.).).).).).).).).).).N.J.N.).).).).).).).).).).).).).).).).).).).).).).).).).K.O.I.P.).).).",
").).).).).Q.N.).).).).R.S.).).K.T.I.I.U.N.).).).).).).).).P.I.V.).).).).).).H.W.S.X.).).).).).).).).).).).).).).).).K.Y.).).).).",
").).).).Z.`. +.+).).).).).).).++I.I.I.I.@+).).).).).).).).).M.).).).).).).N.#+I.I.$+%+).).).K.&+*+).).).).).).).).).).).).).).).",
"N.).).).M.I.O.N.).).).).).).=+I.I.I.I.I.I.-+).).).H.;+V.).).).).).).).).).Z.I.I.I.I.Y.).).Z.I.I.I.#+>+).).).).).).).).).,+'+)+J.",
"I.`.!+~+).{+H.).).).).).).~+]+I.I.I.I.I.I.I.^+).~+O.I.I./+).).).).).).).).N.(+I.I.#+N.).H.#+`.I.I.I.I.L.).).).).).).H._+I.I.I.I.",
"I.I.I.#+N.).).).).).).).).:+I.I.I.I.<+[+I.I.O.N.}+I.I.I.++).).).).).).).).).Z.|+|+Z.).Z.O.1+<+I.I.I.I.I.2+N.).).).M.3+I.I.I.I.I."};
