/* XPM */
static char * wall3_xpm[] = {
"64 64 190 2",
"  	c #89D0F0",
". 	c #8ED1F0",
"+ 	c #A5DAF3",
"@ 	c #BBE3F6",
"# 	c #C8E8F9",
"$ 	c #CAEAF9",
"% 	c #C8E9F9",
"& 	c #C3E6F7",
"* 	c #AFDEF4",
"= 	c #98D5F2",
"- 	c #8BD1F0",
"; 	c #97D5F1",
"> 	c #B7E1F6",
", 	c #C7E7F9",
"' 	c #D3EEFB",
") 	c #DBF2FD",
"! 	c #DEF4FE",
"~ 	c #DFF4FE",
"{ 	c #DDF3FD",
"] 	c #D8F0FC",
"^ 	c #CEEAF9",
"/ 	c #BFE4F6",
"( 	c #AADCF4",
"_ 	c #8CD1F0",
": 	c #8FD2F1",
"< 	c #A5D9F3",
"[ 	c #C0E4F6",
"} 	c #D6EFFB",
"| 	c #E0F4FD",
"1 	c #E3F6FF",
"2 	c #E5F7FF",
"3 	c #E3F5FE",
"4 	c #DBF2FC",
"5 	c #CEEBFA",
"6 	c #B3E0F5",
"7 	c #8AD0F0",
"8 	c #A3D9F3",
"9 	c #C5E7F7",
"0 	c #DFF3FC",
"a 	c #D7F0FC",
"b 	c #8DD1F0",
"c 	c #C2E5F7",
"d 	c #D5EFFB",
"e 	c #B0DEF5",
"f 	c #9BD6F1",
"g 	c #ACDDF4",
"h 	c #B8E2F6",
"i 	c #B8E1F6",
"j 	c #A7DAF3",
"k 	c #94D3F1",
"l 	c #B4E0F5",
"m 	c #E4F7FF",
"n 	c #CDEBFA",
"o 	c #90D2F0",
"p 	c #AEDDF5",
"q 	c #C6E8F9",
"r 	c #DAF2FD",
"s 	c #D6EFFC",
"t 	c #C2E5F8",
"u 	c #D2EDFB",
"v 	c #E1F5FE",
"w 	c #C7E8F9",
"x 	c #96D5F1",
"y 	c #93D3F1",
"z 	c #A7DAF4",
"A 	c #BEE3F7",
"B 	c #D1EDFA",
"C 	c #E0F4FE",
"D 	c #E3F5FF",
"E 	c #D5EEFB",
"F 	c #B1DFF5",
"G 	c #CAE9F9",
"H 	c #CCEBFA",
"I 	c #92D3F1",
"J 	c #9CD7F2",
"K 	c #DCF3FD",
"L 	c #8ED2F0",
"M 	c #C4E6F8",
"N 	c #DEF3FD",
"O 	c #AEDDF4",
"P 	c #B3DFF5",
"Q 	c #BCE3F6",
"R 	c #97D4F1",
"S 	c #CFECFA",
"T 	c #E0F5FE",
"U 	c #C0E5F7",
"V 	c #9AD6F2",
"W 	c #ABDBF4",
"X 	c #9CD6F2",
"Y 	c #C7E7F8",
"Z 	c #99D5F2",
"` 	c #A2D8F3",
" .	c #D6EDFA",
"..	c #A7DBF4",
"+.	c #E1F4FD",
"@.	c #B0DEF4",
"#.	c #A9DCF4",
"$.	c #DAF1FC",
"%.	c #9FD7F2",
"&.	c #D6EEFC",
"*.	c #A9DBF4",
"=.	c #D9EFFC",
"-.	c #B1DEF5",
";.	c #A6DAF4",
">.	c #E0F3FD",
",.	c #E4F6FF",
"'.	c #BDE3F7",
").	c #A2D9F3",
"!.	c #C6E9F8",
"~.	c #A8DBF4",
"{.	c #9BD6F2",
"].	c #CCEAF9",
"^.	c #9FD8F2",
"/.	c #8ED2F1",
"(.	c #A9DBF3",
"_.	c #E2F5FE",
":.	c #C1E5F8",
"<.	c #92D2F1",
"[.	c #B5DFF5",
"}.	c #D6EEFA",
"|.	c #E3F6FE",
"1.	c #AFDEF5",
"2.	c #8FD2F0",
"3.	c #E2F5FD",
"4.	c #BCE3F7",
"5.	c #BDE4F7",
"6.	c #98D5F1",
"7.	c #B7E1F5",
"8.	c #DBF1FD",
"9.	c #DCF2FC",
"0.	c #DAF1FD",
"a.	c #CEECFA",
"b.	c #D9F0FC",
"c.	c #D4EFFC",
"d.	c #A1D8F2",
"e.	c #E2F5FF",
"f.	c #D8F1FC",
"g.	c #B2DFF5",
"h.	c #C4E6F7",
"i.	c #DFF3FD",
"j.	c #DDF4FE",
"k.	c #C9EAF9",
"l.	c #D5EFFC",
"m.	c #BAE2F6",
"n.	c #D1EDFB",
"o.	c #D9F1FD",
"p.	c #B5E1F5",
"q.	c #CBEAF9",
"r.	c #A8DBF3",
"s.	c #DDF2FD",
"t.	c #B5E0F5",
"u.	c #A0D7F2",
"v.	c #DAF2FC",
"w.	c #C9E9F9",
"x.	c #B6E0F6",
"y.	c #C3E6F8",
"z.	c #A0D8F2",
"A.	c #D7EEFA",
"B.	c #96D4F1",
"C.	c #C4E7F8",
"D.	c #ABDDF4",
"E.	c #9DD7F2",
"F.	c #BEE4F7",
"G.	c #95D4F1",
"H.	c #BAE2F7",
"I.	c #D4EEFB",
"J.	c #DDF3FE",
"K.	c #DEF3FE",
"L.	c #9AD5F1",
"M.	c #D9F1FC",
"N.	c #C5E7F8",
"O.	c #C7E8F8",
"P.	c #91D3F1",
"Q.	c #A6DAF3",
"R.	c #D2ECF9",
"S.	c #E1F5FD",
"T.	c #ADDDF5",
"U.	c #B9E2F6",
"V.	c #BBE3F7",
"W.	c #B4DFF6",
"X.	c #A1D8F3",
"Y.	c #90D2F1",
"Z.	c #BFE4F7",
"`.	c #D2EDFA",
" +	c #DFF4FD",
".+	c #BEE3F6",
"++	c #CCEBF9",
"@+	c #BEE4F6",
"#+	c #D4EEFC",
"$+	c #A3D8F3",
"                                                                                                                                ",
"                                                                                                                                ",
"                                                                    . + @ # $ $ $ $ % & * =                                     ",
"                                                              - ; > , ' ) ! ~ ~ ~ ~ ! { ] ^ / ( _                               ",
"                                                            : < [ } | 1 2 2 2 2 2 2 2 2 2 3 4 5 6 ; 7                           ",
"                                                            8 9 0 2 2 2 2 2 2 2 2 2 2 2 2 2 2 1 a 6 ;                           ",
"                                - b : : : : : : b 7       : c 0 2 2 2 2 2 2 2 2 2 2 2 2 2 2 2 2 2 d e b                         ",
"                              b f g h h h h h i j k     7 l d m 2 2 2 2 2 2 2 2 2 2 2 2 2 2 2 2 2 1 n (                         ",
"                        7 o p q ' a r r r r r r s n t l j u v 2 2 2 2 2 2 2 2 2 2 2 2 2 2 2 2 2 2 2 ~ w x 7                     ",
"                      y z A B C 2 2 2 2 2 2 2 2 2 D { E n v 2 2 2 2 2 2 2 2 2 2 2 2 2 2 2 2 2 2 2 2 2 a F b                     ",
"                    b ( G | m 2 2 2 2 2 2 2 2 2 2 2 2 2 2 2 2 2 2 2 2 2 2 2 2 2 2 2 2 2 2 2 2 2 2 2 2 C H I                     ",
"                    J q 2 2 2 2 2 2 2 2 2 2 2 2 2 2 2 2 2 2 2 2 2 2 2 2 2 2 2 2 2 2 2 2 2 2 2 2 2 2 2 2 K f _                   ",
"                  L M N 2 2 2 2 2 2 2 2 2 2 2 2 2 2 2 2 2 2 2 2 2 2 2 2 2 2 2 2 2 2 2 2 2 2 2 2 2 2 2 2 ! O y                   ",
"                b P } m 2 2 2 2 2 2 2 2 2 2 2 2 2 2 2 2 2 2 2 2 2 2 2 2 2 2 2 2 2 2 2 2 2 2 2 2 2 2 2 2 C Q =                   ",
"              - R S v 2 2 2 2 2 2 2 2 2 2 2 2 2 2 2 2 2 2 2 2 2 2 2 2 2 2 2 2 2 2 2 2 2 2 2 2 2 2 2 2 2 T U V                   ",
"              I W ! 2 2 2 2 2 2 2 2 2 2 2 2 2 2 2 2 2 2 2 2 2 2 2 2 2 2 2 2 2 2 2 2 2 2 2 2 2 2 2 2 2 2 T U V                   ",
"              X Y v 2 2 2 2 2 2 2 2 2 2 2 2 2 2 2 2 2 2 2 2 2 2 2 2 2 2 2 2 2 2 2 2 2 2 2 2 2 2 2 2 2 2 T U Z                   ",
"              `  .1 2 2 2 2 2 2 2 2 2 2 2 2 2 2 2 2 2 2 2 2 2 2 2 2 2 2 2 2 2 2 2 2 2 2 2 2 2 2 2 2 2 2 C Q =                   ",
"              ..+.m 2 2 2 2 2 2 2 2 2 2 2 2 2 2 2 2 2 2 2 2 2 2 2 2 2 2 2 2 2 2 2 2 2 2 2 2 2 2 2 2 2 2 ! @.y                   ",
"              #.2 2 2 2 2 2 2 2 2 2 2 2 2 2 2 2 2 2 2 2 2 2 2 2 2 2 2 2 2 2 2 2 2 2 2 2 2 2 2 2 2 2 2 m $.%..                   ",
"              #.2 2 2 2 2 2 2 2 2 2 2 2 2 2 2 2 2 2 2 2 2 2 2 2 2 2 2 2 2 2 2 2 2 2 2 2 2 2 2 2 2 2 2 D &.Z _                   ",
"              *.2 2 2 2 2 2 2 2 2 2 2 2 2 2 2 2 2 2 2 2 2 2 2 2 2 2 2 2 2 2 2 2 2 2 2 2 2 2 2 2 2 2 2 D =.-.; -                 ",
"              ;.>.m 2 2 2 2 2 2 2 2 2 2 2 2 2 2 2 2 2 2 2 2 2 2 2 2 2 2 2 2 2 2 2 2 2 2 2 2 2 2 2 2 2 2 ,.T '.X                 ",
"              ).d 1 2 2 2 2 2 2 2 2 2 2 2 2 2 2 2 2 2 2 2 2 2 2 2 2 2 2 2 2 2 2 2 2 2 2 2 2 2 2 2 2 2 2 2 2 ) w (               ",
"              J !.v 2 2 2 2 2 2 2 2 2 2 2 2 2 2 2 2 2 2 2 2 2 2 2 2 2 2 2 2 2 2 2 2 2 2 2 2 2 2 2 2 2 2 2 2 2 ! $ ~.b           ",
"            7 {.U T 2 2 2 2 2 2 2 2 2 2 2 2 2 2 2 2 2 2 2 2 2 2 2 2 2 2 2 2 2 2 2 2 2 2 2 2 2 2 2 2 2 2 2 2 2 2 ~ ].^./.        ",
"          7 I (.]._.2 2 2 2 2 2 2 2 2 2 2 2 2 2 2 2 2 2 2 2 2 2 2 2 2 2 2 2 2 2 2 2 2 2 2 2 2 2 2 2 2 2 2 2 2 2 2 v :.{.7       ",
"          <.[.}.|.2 2 2 2 2 2 2 2 2 2 2 2 2 2 2 2 2 2 2 2 2 2 2 2 2 2 2 2 2 2 2 2 2 2 2 2 2 2 2 2 2 2 2 2 2 2 2 2 m v 1.2.      ",
"      7 x '.} 3.2 2 2 2 2 2 2 2 2 2 2 2 2 2 2 2 2 2 2 2 2 2 2 2 2 2 2 2 2 2 2 2 2 2 2 2 2 2 2 2 2 2 2 2 2 2 2 2 2 2 2 H ..      ",
"    _ = 4.] D 2 2 2 2 2 2 2 2 2 2 2 2 2 2 2 2 2 2 2 2 2 2 2 2 2 2 2 2 2 2 2 2 2 2 2 2 2 2 2 2 2 2 2 2 2 2 2 2 2 2 2 2 N 5.k     ",
"  7 6.7.8.D 2 2 2 2 2 2 2 2 2 2 2 2 2 2 2 2 2 2 2 2 2 2 2 2 2 2 2 2 2 2 2 2 2 2 2 2 2 2 2 2 2 2 2 2 2 2 2 2 2 2 2 2 2 2 n z     ",
"  2.O 9.m 2 2 2 2 2 2 2 2 2 2 2 2 2 2 2 2 2 2 2 2 2 2 2 2 2 2 2 2 2 2 2 2 2 2 2 2 2 2 2 2 2 2 2 2 2 2 2 2 2 2 2 2 2 2 2 0.5.    ",
"  8 w m 2 2 2 2 2 2 2 2 2 2 2 2 2 2 2 2 2 2 2 2 2 2 2 2 2 2 2 2 2 2 2 2 2 2 2 2 2 2 2 2 2 2 2 2 2 2 2 2 2 2 2 2 2 2 2 2 ,.a.L   ",
"o > b.2 2 2 2 2 2 2 2 2 2 2 2 2 2 2 2 2 2 2 2 2 2 2 2 2 2 2 2 2 2 2 2 2 2 2 2 2 2 2 2 2 2 2 2 2 2 2 2 2 2 2 2 2 2 2 2 2 2 c.d.  ",
"^.w e.2 2 2 2 2 2 2 2 2 2 2 2 2 2 2 2 2 2 2 2 2 2 2 2 2 2 2 2 2 2 2 2 2 2 2 2 2 2 2 2 2 2 2 2 2 2 2 2 2 2 2 2 2 2 2 2 2 2 f.-.  ",
"g.' 2 2 2 2 2 2 2 2 2 2 2 2 2 2 2 2 2 2 2 2 2 2 2 2 2 2 2 2 2 2 2 2 2 2 2 2 2 2 2 2 2 2 2 2 2 2 2 2 2 2 2 2 2 2 2 2 2 2 2 ) '.  ",
"h.i.2 2 2 2 2 2 2 2 2 2 2 2 2 2 2 2 2 2 2 2 2 2 2 2 2 2 2 2 2 2 2 2 2 2 2 2 2 2 2 2 2 2 2 2 2 2 2 2 2 2 2 2 2 2 2 2 2 2 2 j.w   ",
"a.m 2 2 2 2 2 2 2 2 2 2 2 2 2 2 2 2 2 2 2 2 2 2 2 2 2 2 2 2 2 2 2 2 2 2 2 2 2 2 2 2 2 2 2 2 2 2 2 2 2 2 2 2 2 2 2 2 2 2 2 ~ k.  ",
"' 2 2 2 2 2 2 2 2 2 2 2 2 2 2 2 2 2 2 2 2 2 2 2 2 2 2 2 2 2 2 2 2 2 2 2 2 2 2 2 2 2 2 2 2 2 2 2 2 2 2 2 2 2 2 2 2 2 2 2 2 ~ $   ",
"l.2 2 2 2 2 2 2 2 2 2 2 2 2 2 2 2 2 2 2 2 2 2 2 2 2 2 2 2 2 2 2 2 2 2 2 2 2 2 2 2 2 2 2 2 2 2 2 2 2 2 2 2 2 2 2 2 2 2 2 2 ~ $   ",
"l.2 2 2 2 2 2 2 2 2 2 2 2 2 2 2 2 2 2 2 2 2 2 2 2 2 2 2 2 2 2 2 2 2 2 2 2 2 2 2 2 2 2 2 2 2 2 2 2 2 2 2 2 2 2 2 2 2 2 2 2 ~ $   ",
"l.2 2 2 2 2 2 2 2 2 2 2 2 2 2 2 2 2 2 2 2 2 2 2 2 2 2 2 2 2 2 2 2 2 2 2 2 2 2 2 2 2 2 2 2 2 2 2 2 2 2 2 2 2 2 2 2 2 2 2 2 ! %   ",
"l.2 2 2 2 2 2 2 2 2 2 2 2 2 2 2 2 2 2 2 2 2 2 2 2 2 2 2 2 2 2 2 2 2 2 2 2 2 2 2 2 2 2 2 2 2 2 2 2 2 2 2 2 2 2 2 2 2 2 2 2 ) m.  ",
"n.2 2 2 2 2 2 2 2 2 2 2 2 2 2 2 2 2 2 2 2 2 2 2 2 2 2 2 2 2 2 2 2 2 2 2 2 2 2 2 2 2 2 2 2 2 2 2 2 2 2 2 2 2 2 2 2 2 2 2 2 o.p.  ",
"q.3 2 2 2 2 2 2 2 2 2 2 2 2 2 2 2 2 2 2 2 2 2 2 2 2 2 2 2 2 2 2 2 2 2 2 2 2 2 2 2 2 2 2 2 2 2 2 2 2 2 2 2 2 2 2 2 2 2 2 2 s r.  ",
"c s.2 2 2 2 2 2 2 2 2 2 2 2 2 2 2 2 2 2 2 2 2 2 2 2 2 2 2 2 2 2 2 2 2 2 2 2 2 2 2 2 2 2 2 2 2 2 2 2 2 2 2 2 2 2 2 2 2 2 ,.S x   ",
"t.d 2 2 2 2 2 2 2 2 2 2 2 2 2 2 2 2 2 2 2 2 2 2 2 2 2 2 2 2 2 2 2 2 2 2 2 2 2 2 2 2 2 2 2 2 2 2 2 2 2 2 2 2 2 2 2 2 2 2 N h.    ",
"u.G 2 2 2 2 2 2 2 2 2 2 2 2 2 2 2 2 2 2 2 2 2 2 2 2 2 2 2 2 2 2 2 2 2 2 2 2 2 2 2 2 2 2 2 2 2 2 2 2 2 2 2 2 2 2 2 2 2 2 ' g.    ",
": h v.2 2 2 2 2 2 2 2 2 2 2 2 2 2 2 2 2 2 2 2 2 2 2 2 2 2 2 2 2 2 2 2 2 2 2 2 2 2 2 2 2 2 2 2 2 2 2 2 2 2 2 2 2 2 2 2 2 w X     ",
"  + w.2 2 2 2 2 2 2 2 2 2 2 2 2 2 2 2 2 2 2 2 2 2 2 2 2 2 2 2 2 2 2 2 2 2 2 2 2 2 2 2 2 2 2 2 2 2 2 2 2 2 2 2 2 2 2 2 o.x..     ",
"  k g.) ,.2 2 2 2 2 2 2 2 2 2 2 2 2 2 2 2 2 2 2 2 2 2 2 2 2 2 2 2 2 2 2 2 2 2 2 2 2 2 2 2 2 2 2 2 2 2 2 2 2 2 2 2 2 3 y.z.      ",
"    Z '.! m 2 2 2 2 2 2 2 2 2 2 2 2 2 2 2 2 2 2 2 2 2 2 2 2 2 2 2 2 2 2 2 2 2 2 2 2 2 2 2 2 2 2 2 2 2 2 2 2 2 2 2 1 A.j _       ",
"    - B.C.{ 2 2 2 2 2 2 2 2 2 2 2 2 2 2 2 2 2 2 2 2 2 2 2 2 2 2 2 2 2 2 2 2 2 2 2 2 2 2 2 2 2 2 2 2 2 2 2 2 2 2 2 ~ D.I         ",
"      - E.F.] 2 2 2 2 2 2 2 2 2 2 2 2 2 2 2 2 2 2 2 2 2 2 2 2 2 2 2 2 2 2 2 2 2 2 2 2 2 2 2 2 2 2 2 2 2 2 2 2 2 ) 5.G.-         ",
"          E.H.I.2 2 2 2 2 2 2 2 2 2 2 2 2 2 2 2 2 2 2 2 2 2 2 2 2 2 2 2 2 2 2 2 2 2 2 2 2 2 2 2 2 2 2 2 2 2 e.} F.X -           ",
"            = P ' J.1 2 2 2 2 2 2 2 2 2 2 2 2 2 2 v K.J.D 2 2 2 2 2 2 2 2 2 2 2 2 2 2 2 2 2 2 2 2 2 2 2 2 D I.i {.              ",
"              b L.C.M.v 1 2 2 2 2 2 2 2 2 2 m 1 T B N.O.=._.2 2 2 2 2 2 2 2 2 2 2 2 2 2 2 2 2 2 2 2 2 m 3 =.* I                 ",
"                - P.*.F.u 2 2 2 2 2 2 2 2 e.8.5 * V P.B.Q.R.S.2 2 2 2 2 2 2 2 2 2 2 2 2 2 2 2 2 2 2 2 +.R.< P.7                 ",
"                    P.V ).T.U.V.V.V.V.V.V.W.z X.y -   7 Y.Q.Z.`.0 2 2 2 2 2 2 2 2 2 2 2 2 2 2 2 2  +`.4.` 2.7                   ",
"                          7 B.6.6.6.6.6.6.I               _ J O .+n $.3.2 2 2 2 2 2 2 2 2 2 v a ++@+O V                         ",
"                                                              - y Q..+q.n.l.l.l.l.l.l.l.#+n.% i 8 y -                           ",
"                                                                        k $+$+$+$+$+$+$+E.I                                     ",
"                                                                                                                                ",
"                                                                                                                                "};
