/* XPM */
static char * wall_right_down_xpm[] = {
"64 64 373 2",
"  	c #C6DE5C",
". 	c #C3DC54",
"+ 	c #BFD94C",
"@ 	c #BBD642",
"# 	c #B6D235",
"$ 	c #99873C",
"% 	c #C4DD57",
"& 	c #C1DB50",
"* 	c #BED84A",
"= 	c #BBD641",
"- 	c #B7D335",
"; 	c #B4D12C",
"> 	c #B3D02A",
", 	c #A3C529",
"' 	c #9A7F3E",
") 	c #C6DE5B",
"! 	c #C2DB52",
"~ 	c #C0DA4E",
"{ 	c #BCD745",
"] 	c #B9D53C",
"^ 	c #87B126",
"/ 	c #9A793E",
"( 	c #C5DD58",
"_ 	c #C5DD57",
": 	c #C4DD56",
"< 	c #C4DD55",
"[ 	c #C4DC55",
"} 	c #C3DC55",
"| 	c #C3DC53",
"1 	c #C2DB51",
"2 	c #C1DA4F",
"3 	c #C0D94D",
"4 	c #BED849",
"5 	c #BDD747",
"6 	c #BBD643",
"7 	c #BAD53F",
"8 	c #B9D53B",
"9 	c #B8D437",
"0 	c #B6D232",
"a 	c #B5D12E",
"b 	c #B3D02B",
"c 	c #B1CF2A",
"d 	c #A1C328",
"e 	c #6FA124",
"f 	c #9A723F",
"g 	c #8DB526",
"h 	c #95BB27",
"i 	c #B0CE2A",
"j 	c #A4C528",
"k 	c #74A424",
"l 	c #9D6F40",
"m 	c #AFCD2A",
"n 	c #73A424",
"o 	c #70A224",
"p 	c #75A524",
"q 	c #709E25",
"r 	c #A36944",
"s 	c #B2CF2A",
"t 	c #93BA27",
"u 	c #9FC228",
"v 	c #798A2C",
"w 	c #A66845",
"x 	c #71A324",
"y 	c #A5C628",
"z 	c #80AD25",
"A 	c #6FA024",
"B 	c #856635",
"C 	c #A96A47",
"D 	c #ADCC29",
"E 	c #80AC25",
"F 	c #A0C328",
"G 	c #A8C829",
"H 	c #A6C729",
"I 	c #89B326",
"J 	c #739827",
"K 	c #7C812E",
"L 	c #905A3C",
"M 	c #AC6C48",
"N 	c #A4C628",
"O 	c #8FB626",
"P 	c #ACCB29",
"Q 	c #9CBF28",
"R 	c #84AF25",
"S 	c #92B827",
"T 	c #836F33",
"U 	c #778E2A",
"V 	c #749528",
"W 	c #7D802F",
"X 	c #8A5739",
"Y 	c #9F6342",
"Z 	c #ABCA29",
"` 	c #8BB426",
" .	c #9CC028",
"..	c #A2C428",
"+.	c #8AB326",
"@.	c #94BA27",
"#.	c #71A224",
"$.	c #88B126",
"%.	c #AAC929",
"&.	c #75A525",
"*.	c #82AE25",
"=.	c #7EAB25",
"-.	c #719B26",
";.	c #8A5639",
">.	c #AB6C48",
",.	c #77A625",
"'.	c #97BB27",
").	c #97BC27",
"!.	c #78A725",
"~.	c #7FAC25",
"{.	c #93B927",
"].	c #ABCB29",
"^.	c #95BA27",
"/.	c #8CB526",
"(.	c #AFCE2A",
"_.	c #AECC2A",
":.	c #86B026",
"<.	c #76A525",
"[.	c #81AD25",
"}.	c #76A625",
"|.	c #90B626",
"1.	c #709D25",
"2.	c #817432",
"3.	c #7B862D",
"4.	c #9A6040",
"5.	c #945C3D",
"6.	c #8D583B",
"7.	c #A76846",
"8.	c #88B226",
"9.	c #90B727",
"0.	c #72A324",
"a.	c #719D25",
"b.	c #7A872D",
"c.	c #8B573A",
"d.	c #719C25",
"e.	c #876037",
"f.	c #A96A46",
"g.	c #A26644",
"h.	c #AA6B47",
"i.	c #769229",
"j.	c #759428",
"k.	c #70A024",
"l.	c #846834",
"m.	c #876137",
"n.	c #975F3F",
"o.	c #866336",
"p.	c #7F7D30",
"q.	c #7B862E",
"r.	c #7C842E",
"s.	c #866436",
"t.	c #935C3D",
"u.	c #739627",
"v.	c #719C26",
"w.	c #7C802E",
"x.	c #836F34",
"y.	c #759328",
"z.	c #7F7831",
"A.	c #729926",
"B.	c #788C2B",
"C.	c #915B3C",
"D.	c #A56744",
"E.	c #815032",
"F.	c #A16543",
"G.	c #8D583A",
"H.	c #875F37",
"I.	c #895938",
"J.	c #7A602E",
"K.	c #709325",
"L.	c #807731",
"M.	c #7D7E2F",
"N.	c #8C573A",
"O.	c #856835",
"P.	c #729A26",
"Q.	c #836C34",
"R.	c #759329",
"S.	c #7F7B30",
"T.	c #759429",
"U.	c #798A2B",
"V.	c #985F3F",
"W.	c #895838",
"X.	c #876036",
"Y.	c #A86945",
"Z.	c #995F3B",
"`.	c #8B5739",
" +	c #996040",
".+	c #9D6241",
"++	c #865336",
"@+	c #7D4E30",
"#+	c #846235",
"$+	c #856735",
"%+	c #846B34",
"&+	c #7A892D",
"*+	c #769029",
"=+	c #836E34",
"-+	c #769129",
";+	c #778E2B",
">+	c #876136",
",+	c #866236",
"'+	c #925B3C",
")+	c #856435",
"!+	c #965E3F",
"~+	c #AB6B47",
"{+	c #A26543",
"]+	c #9D6342",
"^+	c #905B3C",
"/+	c #A86A46",
"(+	c #8F5A3C",
"_+	c #8E593B",
":+	c #9B6141",
"<+	c #885D37",
"[+	c #856535",
"}+	c #885B38",
"|+	c #A76946",
"1+	c #9C6241",
"2+	c #99603F",
"3+	c #A56743",
"4+	c #A26541",
"5+	c #975E3F",
"6+	c #965D3E",
"7+	c #9E6342",
"8+	c #AB6B48",
"9+	c #A86A47",
"0+	c #945D3E",
"a+	c #A86946",
"b+	c #9C6141",
"c+	c #A36644",
"d+	c #905833",
"e+	c #A16440",
"f+	c #A46745",
"g+	c #A26540",
"h+	c #965E3E",
"i+	c #9B6140",
"j+	c #925934",
"k+	c #A46642",
"l+	c #AA6B46",
"m+	c #A0633E",
"n+	c #9C613C",
"o+	c #945B35",
"p+	c #975D38",
"q+	c #A36541",
"r+	c #9C603C",
"s+	c #A96A45",
"t+	c #A76944",
"u+	c #A76844",
"v+	c #915934",
"w+	c #945B36",
"x+	c #AB6C47",
"y+	c #955B36",
"z+	c #975D37",
"A+	c #935A35",
"B+	c #945A35",
"C+	c #A26440",
"D+	c #A66743",
"E+	c #9E613D",
"F+	c #9D613C",
"G+	c #9F633F",
"H+	c #A66844",
"I+	c #A86944",
"J+	c #A0633F",
"K+	c #9F623E",
"L+	c #9B603B",
"M+	c #AA6A46",
"N+	c #A66843",
"O+	c #905832",
"P+	c #A56742",
"Q+	c #9E623E",
"R+	c #925A35",
"S+	c #965C37",
"T+	c #975D39",
"U+	c #9A5F3B",
"V+	c #985D39",
"W+	c #A36641",
"X+	c #9A5F3A",
"Y+	c #9A603B",
"Z+	c #9B5F3A",
"`+	c #915933",
" @	c #9A5E3A",
".@	c #955C37",
"+@	c #9E623D",
"@@	c #915833",
"#@	c #955B37",
"$@	c #995E39",
"%@	c #A46742",
"&@	c #A0643F",
"*@	c #A1633F",
"=@	c #935A34",
"-@	c #905732",
";@	c #975C38",
">@	c #8D5631",
",@	c #844E28",
"'@	c #8A532E",
")@	c #8C5530",
"!@	c #87512B",
"~@	c #834D27",
"{@	c #7B4720",
"]@	c #7C4821",
"^@	c #A46641",
"/@	c #8C542F",
"(@	c #7C4720",
"_@	c #88512C",
":@	c #814C25",
"<@	c #9D613D",
"[@	c #88522C",
"}@	c #8F5732",
"|@	c #854F2A",
"1@	c #8E5731",
"2@	c #8E5631",
"3@	c #89522D",
"4@	c #814C26",
"5@	c #8D5530",
"6@	c #8B542E",
"7@	c #854F29",
"8@	c #7D4822",
"9@	c #864F2A",
"0@	c #8B532E",
"a@	c #86502A",
"b@	c #89532D",
"c@	c #8D5630",
"d@	c #824D27",
"e@	c #8E5630",
"f@	c #7F4A24",
"g@	c #7E4922",
"h@	c #8B542F",
"i@	c #89522C",
"j@	c #8A532D",
"k@	c #7E4A23",
"l@	c #7E4923",
"m@	c #7D4922",
"n@	c #7F4A23",
"o@	c #8C552F",
"p@	c #824C26",
"q@	c #804B24",
"r@	c #8A542E",
"s@	c #824D26",
"t@	c #7D4821",
"u@	c #7F4B24",
"v@	c #844E29",
"w@	c #8F5832",
"x@	c #844F28",
"y@	c #794620",
"z@	c #7A4620",
"A@	c #804B25",
"B@	c #77441F",
"C@	c #77451F",
"D@	c #6C3E1D",
"E@	c #6E3F1D",
"F@	c #693C1C",
"G@	c #6F401D",
"H@	c #63391B",
"I@	c #74431E",
"J@	c #76441F",
"K@	c #6B3D1C",
"L@	c #79461F",
"M@	c #74421E",
"N@	c #643A1B",
"O@	c #78451F",
"P@	c #663B1C",
"Q@	c #71411E",
"R@	c #7A4720",
"S@	c #673B1C",
"T@	c #73421E",
"U@	c #683C1C",
"V@	c #653A1B",
"W@	c #75441F",
"X@	c #70411E",
"Y@	c #64391B",
"Z@	c #6B3E1D",
"`@	c #6A3D1C",
" #	c #72421E",
".#	c #663A1C",
"+#	c #6B3E1C",
"@#	c #6D3E1D",
"##	c #6D3F1D",
"                                                                                                                      . + @ # $ ",
"                                                                                                          % & * = - ; > > > , ' ",
"                                                                                        ) % ! ~ * { ] - ; > > > > > > > > > ^ / ",
"( ( _ % : : : : : < < < [ [ [ [ [ [ [ [ } . . . . | | ! 1 1 & 2 ~ 3 + * 4 5 6 7 8 9 0 a b > > > > > > > > > > > c > > > > d e f ",
"> > > > > > > > > > > > > > > > > > > > > > > > > > > > > > > > > > > > > > > > > > > > > > > > > > > > > > > > g h i > j k e l ",
"> > > > > > > > > > > > > > > > > > > > > > > > > > > > > > > > > > > > > > > > > > > > > > > > m > > > > > > c n e o p e e q r ",
"> > > > > > > > > > > > > > > > > > > > > > > > > > > > > > > > > > > > > > > > > > > > > > > s t > > > > > > u e e e e e e v w ",
"> > > > > > > > > > > > > > > > > > > > > > > > > > > > > > > > > > > > > > > > > > > > > > > d x y > > > > > z e e e e e A B C ",
"> > > > > > > > > > > > > > > > > > D > > > > > > > > > > > > > > > > > > > > > g i > > > > > E e o g F G H I e J A e e e K L M ",
"> > > > > > > > > > N > > > > > > > O P > > > > > > > > > > > > > Q c > > > > d e R P > > > S e e e e e e e e e T T U V W X Y M ",
"G > > Z ` c > > >  .o ..> > > > > j o +.> > > > > > s @.i > > > u #.$.i > > %.&.e e #.*.` =.e e J e e e e e e -.X ;.;.;.;.L >.M ",
",.'.).!.e ,.O S ~.e e #.{.].> P ^.x e e /.(.> > > _.:.e <.g S [.e e e }.g |.n e e e e e e e e 1.2.e e e e e e 3.4.5.;.;.6.7.M M ",
"A e e e e e e e e e e e e e e e e e e e e n 8.9.:.0.e e e e e e e e e e e e e e a.e e e e e e b.c.K e e e e d.e.f.M w g.h.M M M ",
"i.e e e e e e e e e e e e e e e e e j.e e e e e e e e e e e e e e A e e e e e k.l.J e e e e 1.m.n.;.o.p.q.r.s.t.M M M M M M M M ",
"s.u.e a.v.e e e e e w.e e e e e e e x.y.e e e e e e e e e e e e e z.A.e e e e K ;.e.B.k.e -.x.C.D.E.;.;.;.;.;.F.M M M M M M M M ",
"G.;.H.I.J.K.e e a.L.;.M.e e e e e K N.O.q e e e e e P.Q.R.e e 1.S.;.s.T.e e U.X V.;.;.W.X.W.;.F.Y.Z.V.G.;.`. +M M M M M M M M M ",
".+;.;.;.++@+#+$+I.;.6.;.%+&+*+v =+;.4.N.$+-+e e A ;+>+;.;.,+$+I.;.'+;.;.,+)+;.L M .+;.;.;.;.!+M M M M M h.~+M M M M M M M M M M ",
"M {+ +]+ +;.;.;.;.^+/+(+;.;.;.;.;._+h.:+;.;.<+[+}+;.;.t.;.;.;.;.(+C :+;.;.;.N.w M M |+1+2+Y M M M M M M M M M M M M 3+4+M M M M ",
"M M M M M g.5+6+7+8+M 9+0+;.;.;.t.a+M M V.;.;.;.;.;.b+M c+V.6+.+h.M M c+V.5+w M M M M M M M M M M M M M M M M M M Y.d+d+e+M M M ",
"M M M M M M M M M M M f.Y.C f+a+M g+3+M M f+4.h+i+w M M M ~+e+~+M M M M M M M M M M M M M M M M M M M M M M M M M f.j+d+k+M M M ",
"M M M M M l+~+M M M M m+n+M M f.o+d+d+p+~+M M M M M M M M k+d+q+M M M M M M Y.r+n+s+M M M M M M M M M M M M M M M M f.t+M M M M ",
"M M M M u+v+w+x+M M M M M M M y+d+d+d+d+z+M M M M M M M M M 3+M M M M M M ~+A+d+d+B+>.M M M f.C+D+M M M M M M M M M M M M M M M ",
"~+M M M 3+d+j+~+M M M M M M E+d+d+d+d+d+d+F+M M M Y.G+q+M M M M M M M M M u+d+d+d+d+t+M M u+d+d+d+A+H+M M M M M M M M M I+J+K+e+",
"d+v+L+M+M N+Y.M M M M M M M+O+d+d+d+d+d+d+O+P+M M+j+d+d+Q+M M M M M M M M ~+R+d+d+A+~+M Y.A+v+d+d+d+d+g+M M M M M M Y.S+d+d+d+d+",
"d+d+d+B+~+M M M M M M M M T+d+d+d+d+U+V+d+d+j+~+W+d+d+d+y+M M M M M M M M M u+X+X+u+M u+j+Y+U+d+d+d+d+d+Z+~+M M M 3+`+d+d+d+d+d+",
"d+d+d+d+ @M M M M M M u+.@d+d+d+d+d++@L+d+d+d+V+Y.@@d+d+L+M M M M M M M M M M M M M D+`+d+d+d+d+d+d+d+d+d+d+n+Q+V+O+d+d+d+d+d+d+",
"d+d+R+#@d+P+M M M k+$@O+d+d+d+d+d+d+d+d+d+d+d+d+Q+%@X+E+~+M M &@o+B+J+M M M M M M *@O+d+d+d+d+d+d+d+d+d+d+d+d+d+d+d+d+d+d+d+d+d+",
"d+d+n+3+d+d+=@A+-@d+d+d+d+d+d+d+d+d+d+d+d+d+d+d+d+K+M M M s+S+d+d+d+@@A+q+M M D+;@d+d+d+>@,@'@d+d+d+d+d+d+d+d+v+d+d+d+d+d+d+d+d+",
"d+d+d+d+d+d+d+d+d+d+d+d+d+d+d+d+d+d+d+)@!@)@d+d+d+d+S+Q+F+@@d+d+d+w+h.u+d+-@-@d+d+d+d+d+~@{@]@d+d+d+d+d+d+d+^@f.d+d+d+d+d+d+d+d+",
"d+d+d+d+d+d+d+d+d+d+d+d+d+d+d+d+d+d+/@(@{@{@/@d+d+d+d+d+d+d+d+d+d+p+M ~+v+d+d+d+d+d+d+d+_@{@:@d+d+d+d+d+d+d+<@g+d+d+d+d+d+d+d+d+",
"d+d+d+d+d+d+d+d+d+d+d+d+d+d+)@[@}@d+|@{@{@{@|@d+d+d+d+d+d+d+d+d+d+d+T+#@d+d+d+d+d+d+d+d+d+}@d+d+d+d+d+d+d+d+d+d+d+d+d+1@2@d+d+d+",
"d+d+d+d+d+3@4@d+d+d+d+d+d+}@]@{@,@d+'@{@{@{@'@d+d+d+d+1@_@}@d+d+d+d+d+d+d+d+d+d+d+d+d+d+d+d+d+d+d+d+d+d+d+d+d+d+d+d+>@]@]@5@d+d+",
"d+d+d+d+d+6@7@d+d+d+d+d+d+O+8@{@7@d+d+3@,@3@d+d+d+d+d+9@{@_@d+d+d+d+d+d+d+d+d+d+d+d+d+d+d+d+d+d+d+d+d+d+d+d+d+d+d+d+/@{@{@0@d+d+",
"d+d+d+d+d+d+d+d+d+d+d+d+d+d+2@'@d+d+d+d+d+d+d+d+d+d+d+2@a@}@d+d+d+d+d+d+d+d+d+d+d+d+d+d+d+d+d+d+d+d+d+d+d+d+d+d+d+d+d+b@3@d+d+d+",
"d+d+d+d+d+d+d+)@_@1@d+d+d+d+d+d+d+d+d+d+d+d+d+d+d+d+d+d+d+d+d+d+d+d+d+d+d+}@d+d+d+d+d+d+}@a@7@c@d+d+d+d+d+6@d@d@'@d+d+d+d+d+d+d+",
"d+d+d+d+d+d+e@]@{@f@d+d+d+d+d+d+d+d+d+d+d+d+d+d+d+d+d+d+d+d+d+d+d+d+d+d+,@{@]@3@d+d+d+>@g@{@{@]@h@d+d+d+'@{@{@{@{@i@d+d+d+d+d+d+",
"d+d+d+d+d+d+h@{@{@]@d+d+d+d+c@a@7@j@d+d+d+d+d+d+[@k@l@_@d+d+d+d+d+d+d+'@{@{@{@]@}@d+}@k@{@{@{@{@m@}@d+d+:@{@{@{@{@f@d+d+d+d+d+d+",
"3@6@1@d+d+d+d+,@n@i@d+d+d+!@]@{@{@{@b@d+d+d+d+o@{@{@{@{@6@d+d+d+d+d+d+i@{@{@{@{@1@d+d@{@{@{@m@p@]@,@d+d+q@{@{@{@{@l@d+d+d+}@'@i@",
"{@{@{@n@_@d+d+d+d+d+d+d+,@{@{@{@{@{@]@r@d+d+d+!@{@{@{@{@a@d+d+d+d+d+d+}@m@{@{@s@d+[@{@{@{@{@)@d+_@{@c@d+!@{@{@{@{@7@d+d+j@]@{@{@",
"{@{@{@{@{@n@'@d+d+d+h@f@{@{@{@{@{@{@{@]@b@d+d+'@{@{@{@{@b@d+d+d+d+d+d+d+1@_@3@d+c@]@{@{@{@{@o@d+!@{@f@2@d+a@8@t@7@d+d+5@]@{@{@{@",
"{@{@{@{@{@{@{@m@u@g@{@{@m@/@}@v@{@{@{@{@{@!@d+d+a@]@(@7@d+d+}@}@d+d+d+d+d+d+d+w@f@{@{@{@{@{@t@:@(@{@{@]@!@d+d+d+d+d+d+4@{@{@{@{@",
"{@{@{@{@m@(@{@{@{@{@{@{@a@d+d+d+]@{@{@{@{@{@~@}@d+d+O+d+c@p@{@{@d@2@d+d+d+d+d+~@{@{@{@{@{@{@{@{@{@{@{@{@{@m@|@h@}@1@a@{@{@(@{@{@",
"{@{@{@f@d+b@{@{@{@{@{@{@x@d+d+1@{@{@{@{@{@{@{@8@a@/@/@x@(@{@{@{@{@8@'@d+d+1@p@{@{@{@{@{@{@{@{@{@y@z@{@{@{@{@{@{@{@{@{@{@[@O+A@{@",
"{@{@{@k@1@!@{@{@{@{@{@{@{@7@i@f@{@{@{@8@{@{@{@{@{@{@{@{@{@m@o@]@{@{@{@n@A@]@{@{@{@{@{@{@{@{@{@{@B@C@{@{@{@{@{@{@{@{@{@{@h@d+~@{@",
"{@{@{@{@{@{@{@{@{@{@{@{@{@{@{@{@{@{@A@d+v@{@{@{@{@{@{@{@{@]@,@{@{@{@{@{@{@{@{@{@{@{@{@{@{@{@{@{@{@{@{@{@{@{@{@{@{@{@{@{@t@q@{@{@",
"{@{@{@{@{@{@{@{@{@{@{@{@{@{@{@{@{@{@g@j@A@{@{@{@{@{@{@{@{@{@{@{@{@{@{@{@{@{@{@{@{@{@{@{@{@{@{@{@{@{@{@{@{@{@{@{@{@{@{@{@{@{@{@{@",
"{@{@{@{@{@{@{@{@{@{@{@{@{@{@{@{@{@{@{@{@{@{@{@{@{@{@{@y@D@E@{@{@{@{@{@{@{@{@a@f@{@{@{@{@{@{@{@{@{@{@{@{@,@O+a@{@{@{@{@{@{@{@{@{@",
"{@{@{@{@{@{@E@F@B@{@{@{@{@{@{@{@{@{@{@{@{@{@{@{@{@{@{@G@H@H@I@{@{@{@{@{@{@{@0@p@{@{@{@{@{@{@{@{@{@{@{@{@3@d+h@{@{@{@{@{@{@{@{@{@",
"{@{@{@{@{@J@H@H@K@{@{@{@{@{@{@{@{@{@{@{@L@{@{@{@{@{@{@M@H@N@O@{@{@{@{@{@{@{@{@{@{@{@{@{@{@{@{@{@{@{@{@{@m@|@k@{@{@{@{@{@{@{@{@{@",
"{@{@{@{@{@z@P@H@Q@{@{@{@{@{@{@{@{@{@R@F@H@S@O@{@{@{@{@{@O@y@{@{@{@{@{@{@{@{@{@{@{@{@{@{@{@{@{@{@{@{@{@{@{@{@{@{@{@{@{@{@{@{@{@{@",
"{@{@{@{@{@{@z@O@{@{@{@{@{@{@{@{@{@{@T@H@H@H@G@{@{@{@{@{@{@{@{@{@{@{@{@{@{@{@{@{@T@U@V@F@W@{@{@{@{@{@{@{@{@{@{@{@{@{@{@{@{@{@{@{@",
"{@{@{@{@{@{@{@{@{@{@{@{@{@{@{@{@{@{@I@H@H@H@X@{@{@{@{@{@{@{@{@{@{@{@{@{@{@{@{@Q@H@H@H@H@Y@J@{@{@{@{@{@{@{@{@{@{@{@{@{@{@{@{@{@{@",
"{@{@{@{@{@{@{@{@{@{@{@{@{@{@{@{@{@{@{@E@P@Z@z@{@{@{@{@{@{@{@{@{@{@{@{@{@{@{@{@V@H@H@H@H@H@`@{@{@{@{@{@{@{@{@{@{@{@{@R@ # #{@{@{@",
"{@{@{@{@{@{@{@{@{@{@{@{@{@{@{@{@{@{@{@{@{@{@{@{@{@{@{@{@{@{@{@{@{@{@{@{@{@{@L@H@H@H@H@H@H@.#{@{@{@{@{@{@{@{@{@{@{@{@+#H@H@D@{@{@",
"{@{@{@{@@#I@{@{@{@{@{@{@{@{@{@{@{@{@{@{@{@{@{@{@{@{@{@{@{@{@{@{@{@{@{@{@{@{@{@N@H@H@H@H@H@F@{@{@{@{@{@{@{@{@{@{@{@{@N@H@H@.#{@{@",
"{@{@{@R@P@Q@{@{@{@{@{@{@{@{@{@{@{@{@{@{@{@{@{@{@{@{@{@{@{@{@{@{@{@{@{@{@{@{@{@G@H@H@H@H@H@I@{@{@{@{@{@{@{@{@{@{@{@{@D@H@H@##{@{@",
"{@{@{@{@{@{@{@{@{@{@{@{@{@{@{@{@{@{@{@{@{@{@{@{@{@{@{@{@{@{@{@{@{@{@{@{@{@{@{@{@G@V@H@P@T@{@{@{@{@{@{@{@{@{@{@{@{@{@{@T@T@{@{@{@",
"{@{@{@{@{@{@{@{@{@{@{@{@{@{@{@{@{@{@{@{@{@{@{@{@{@{@{@{@{@{@{@{@{@{@{@{@{@{@{@{@{@{@L@{@{@{@{@{@{@{@{@{@{@{@{@{@{@{@{@{@{@{@{@{@",
"{@{@{@{@{@{@{@{@{@{@{@{@{@{@{@{@{@{@{@{@{@{@{@{@{@{@{@{@{@{@{@{@{@{@{@{@{@{@{@{@{@{@{@{@{@{@{@{@{@{@{@{@{@{@{@{@{@{@{@{@{@{@{@{@",
"{@{@{@{@{@{@{@{@{@{@{@{@{@{@{@{@{@{@{@{@{@{@{@{@{@{@{@{@{@{@{@{@{@{@{@{@{@{@{@{@{@{@{@{@{@{@{@{@{@{@{@{@{@{@{@{@{@{@{@{@{@{@{@{@",
"{@{@{@{@{@{@{@{@{@{@{@{@{@{@{@{@{@{@{@{@{@{@{@{@{@{@{@{@{@{@{@{@{@{@{@{@{@{@{@{@{@{@{@{@{@{@{@{@{@{@{@{@{@{@{@{@{@{@{@{@{@{@{@{@",
"{@{@{@{@{@{@{@{@{@{@{@{@{@{@{@{@{@{@{@{@{@{@{@{@{@{@{@{@{@{@{@{@{@{@{@{@{@{@{@{@{@{@{@{@{@{@{@{@{@{@{@{@{@{@{@{@{@{@{@{@{@{@{@{@",
"{@{@{@{@{@{@{@{@{@{@{@{@{@{@{@{@{@{@{@{@{@{@{@{@{@{@{@{@{@{@{@{@{@{@{@{@{@{@{@{@{@{@{@{@{@{@{@{@{@{@{@{@{@{@{@{@{@{@{@{@{@{@{@{@",
"{@{@{@{@{@{@{@{@{@{@{@{@{@{@{@{@{@{@{@{@{@{@{@{@{@{@{@{@{@{@{@{@{@{@{@{@{@{@{@{@{@{@{@{@{@{@{@{@{@{@{@{@{@{@{@{@{@{@{@{@{@{@{@{@"};
