/* XPM */
static char * wall2_xpm[] = {
"64 64 218 2",
"  	c #89D0F0",
". 	c #92D2F0",
"+ 	c #9ED6F1",
"@ 	c #A2D7F1",
"# 	c #A3D7F2",
"$ 	c #93D3F0",
"% 	c #8ED1F0",
"& 	c #A1D7F1",
"* 	c #A8D9F2",
"= 	c #8DD1F0",
"- 	c #9FD6F1",
"; 	c #A7D9F2",
"> 	c #9CD5F1",
", 	c #98D4F1",
"' 	c #ACD9ED",
") 	c #DCDBAF",
"! 	c #F2DC84",
"~ 	c #90D2F0",
"{ 	c #A0D6F1",
"] 	c #D1DAC4",
"^ 	c #F8DD72",
"/ 	c #FFDE5D",
"( 	c #E0DBA8",
"_ 	c #A8D9F1",
": 	c #9BD5F1",
"< 	c #DBDBB1",
"[ 	c #FDDE65",
"} 	c #B7DAE3",
"| 	c #8CD0F0",
"1 	c #AED9EA",
"2 	c #FFDE5E",
"3 	c #F0DC88",
"4 	c #A9D9F1",
"5 	c #A5D8F2",
"6 	c #8AD0F0",
"7 	c #F6DD7C",
"8 	c #C8DACF",
"9 	c #9AD5F1",
"0 	c #99D4F1",
"a 	c #E3DBA7",
"b 	c #F7DD79",
"c 	c #ADD9EC",
"d 	c #91D2F0",
"e 	c #C1DAD6",
"f 	c #DADBB6",
"g 	c #A6D9F2",
"h 	c #F7DD7A",
"i 	c #FCDE68",
"j 	c #B1D9E9",
"k 	c #94D3F0",
"l 	c #E2DCA9",
"m 	c #EBDB91",
"n 	c #A4D8F2",
"o 	c #8FD2F0",
"p 	c #CBDACB",
"q 	c #FEDE62",
"r 	c #BFD9D8",
"s 	c #9AD4F1",
"t 	c #8BD0F0",
"u 	c #FCDD69",
"v 	c #F8DD76",
"w 	c #AED9EC",
"x 	c #E5DCA1",
"y 	c #D1DAC2",
"z 	c #C5DAD4",
"A 	c #B2D9E7",
"B 	c #B4DAE5",
"C 	c #E2DCA7",
"D 	c #EEDB8A",
"E 	c #C2DAD5",
"F 	c #96D3F1",
"G 	c #CADAC9",
"H 	c #FFDA4C",
"I 	c #EED884",
"J 	c #8BD1F0",
"K 	c #ABD9EF",
"L 	c #E9D890",
"M 	c #FFCC00",
"N 	c #ECCF7B",
"O 	c #FFD42B",
"P 	c #BFD6CF",
"Q 	c #95D3F0",
"R 	c #B7DAE2",
"S 	c #FFD018",
"T 	c #E9CF83",
"U 	c #EDDC91",
"V 	c #FFDE5C",
"W 	c #FFCC02",
"X 	c #C2D5D0",
"Y 	c #D7DAB8",
"Z 	c #FFDC55",
"` 	c #EBCF7C",
" .	c #B0D9EB",
"..	c #FCDE67",
"+.	c #FFDB51",
"@.	c #BCD7DB",
"#.	c #8FD1F0",
"$.	c #ADD9ED",
"%.	c #FFD94E",
"&.	c #F2CD62",
"*.	c #DBDBB2",
"=.	c #FFD643",
"-.	c #FDCC24",
";.	c #B5D7E1",
">.	c #97D4F1",
",.	c #9DD6F1",
"'.	c #C4DAD4",
").	c #FFD32D",
"!.	c #EECE78",
"~.	c #A3D8F2",
"{.	c #94D3F1",
"].	c #F5DD7A",
"^.	c #FFCF15",
"/.	c #FECC1F",
"(.	c #BBD6D5",
"_.	c #96D3F0",
":.	c #E5DBA1",
"<.	c #A0D7F1",
"[.	c #CADACB",
"}.	c #FFDB52",
"|.	c #C0D6D0",
"1.	c #93D2F0",
"2.	c #97D4F0",
"3.	c #AFD9EB",
"4.	c #F9DC6F",
"5.	c #FFD847",
"6.	c #E7CF85",
"7.	c #8CD1F0",
"8.	c #EBDC93",
"9.	c #FFD641",
"0.	c #BFD6D6",
"a.	c #CCDACC",
"b.	c #FFD43C",
"c.	c #EDCE74",
"d.	c #98D4F0",
"e.	c #B7D9E1",
"f.	c #FFD126",
"g.	c #B5D7E4",
"h.	c #ECDD94",
"i.	c #FFCE12",
"j.	c #EFCE71",
"k.	c #A9D9F0",
"l.	c #D9DBB5",
"m.	c #FFCD04",
"n.	c #FDCC28",
"o.	c #B7D7DD",
"p.	c #FFDA4D",
"q.	c #EACF83",
"r.	c #F8DB6B",
"s.	c #FFD73C",
"t.	c #FECC14",
"u.	c #BCD6D4",
"v.	c #DCDBB2",
"w.	c #FFD332",
"x.	c #E6D089",
"y.	c #C6DAD3",
"z.	c #FDDD61",
"A.	c #FFD02A",
"B.	c #BFD6D4",
"C.	c #AED9EB",
"D.	c #F5DD7F",
"E.	c #E8D287",
"F.	c #E5DCA3",
"G.	c #FFDD5A",
"H.	c #FFDD59",
"I.	c #BAD8DF",
"J.	c #F8CD4F",
"K.	c #FFCC06",
"L.	c #FFCC04",
"M.	c #FFCC03",
"N.	c #BAD7DE",
"O.	c #B0D8E8",
"P.	c #EDCF77",
"Q.	c #EFCE6E",
"R.	c #E2CF90",
"S.	c #C9D4C5",
"T.	c #ACD9EC",
"U.	c #E3D096",
"V.	c #F0CD69",
"W.	c #ABD9ED",
"X.	c #E1D19B",
"Y.	c #D5D2B1",
"Z.	c #9DD5F1",
"`.	c #D1D3B9",
" +	c #F8CD4D",
".+	c #C7D5C8",
"++	c #E1D097",
"@+	c #C0D5D1",
"#+	c #FACB3D",
"$+	c #FDCC2C",
"%+	c #B3D7E3",
"&+	c #95D3F1",
"*+	c #B6D7DB",
"=+	c #F6CD5A",
"-+	c #E4CF89",
";+	c #ADD8E9",
">+	c #F4CD5C",
",+	c #C0D5D5",
"'+	c #AFD8EB",
")+	c #EECE72",
"!+	c #EECE74",
"~+	c #E4D18D",
"{+	c #CCD4C2",
"]+	c #DCD0A0",
"^+	c #F2CD65",
"/+	c #AAD9EE",
"(+	c #D5D2AE",
"_+	c #CAD4C3",
":+	c #F9CC46",
"<+	c #AAD9F0",
"[+	c #C1D5D3",
"}+	c #FDCC2B",
"|+	c #E1D095",
"1+	c #BAD7D9",
"2+	c #E9CF80",
"3+	c #B5D7DF",
"4+	c #E8CE83",
"5+	c #C6D4C8",
"                                                          . + @ # $                                                             ",
"                                                      % & * * * * * =                                                           ",
"                                                    - ; * * * * * * >                                                           ",
"                                                  , * * * ' ) ! * * ; ~                                                         ",
"                                                  { * * ] ^ / / ( _ * &                                                         ",
"                                                  : * * < / / / [ } * * $                                                       ",
"                                                  | * * 1 2 / / / 3 4 * 5 6                                                     ",
"                                                    @ * * 7 / / / / 8 * * 9                                                     ",
"                                                    0 * * a / / / / b c * * %                                                   ",
"                                                    d * * e / / / / / f * * -                                                   ",
"                                                      g * * h / / / / i j * * k                                                 ",
"                                                      0 * * l / / / / / m * * n                                                 ",
"                                                      o * * p / / / / / q r * * s                                               ",
"                                                      t * * c u / / / / / v w * g 6                                             ",
"                                                        { * * x / / / / / / y * * & 6                                           ",
"                                                        = * * z / / / / / / / A * * ~                                           ",
"                                                          5 * B / / / / / / / C * * 5                                           ",
"                                                          & * * D / / / / / / q E * * F                                         ",
"                                                          : * * G H H H H H H H I * * &                                         ",
"                                                        J g * K L M M M M M M M N * * -                                         ",
"                                                        5 * * p O M M M M M M M P * * Q                                         ",
"                                                      , * * R i S M M M M M M T * * g 6                                         ",
"                                                    ~ ; * * U V W M M M M M M X * * k                                           ",
"                                                  6 # * * Y / Z M M M M M M ` * * 5 t                                           ",
"                                                  > * *  .../ +.M M M M M M @.* * Q                                             ",
"                                                #.; * $.../ / %.M M M M M &._ * n                                               ",
"                                              t 5 * * *./ / / =.M M M M -.;.* * >.                                              ",
"                                              ,.* * './ / / / ).M M M M !._ * ~.                                                ",
"                                            {.* * w ]./ / / / ^.M M M /.(.* * _.                                                ",
"                                          t ; * * :./ / / / / M M M M T * * 5                                                   ",
"                                          <.* * [.q / / / / }.M M M M |.* * 1.                                                  ",
"                                        2.* * 3.4./ / / / / 5.M M M 6.* * ; t                                                   ",
"                                      7.g * K 8./ / / / / / 9.M M M 0.* * 1.                                                    ",
"                                    6 n * * a./ / / / / / / b.M M c.* * n 6                                                     ",
"                                    d.* * e.q / / / / / / / f.M /.g.* * _.                                                      ",
"                                  . ; * * h./ / / / / / / / i.M j.k.* ~.                                                        ",
"                                6 ~.* * l./ / / / / / / / / m.n.o.* * F                                                         ",
"                                + * * B i / / / / / / / / p.M q.* * n                                                           ",
"                              #.* * $.r./ / / / / / / / / s.t.u.* * k                                                           ",
"                            7.g * * v./ / / / / / / / / / w.x.* * g 6                                                           ",
"                            - * * y.z./ / / / / / / / / / A.B.* * .                                                             ",
"                          F * * C.D./ / / / / / / / / / / E.* * 5 6                                                             ",
"                          g * * F./ / / / / G.H.H.H.H.H.H.I.* * k                                                               ",
"                          * * * J.K.K.K.K.K.L.M.M.M.M.M.M.N.* * 2.                                                              ",
"                          <.* * O.P.M M M M M M M M M M M Q.* * g t                                                             ",
"                          % 5 * * O.R.M M M M M M M M M M M S.* * s                                                             ",
"                            J ~.* * T.U.t.M M M M M M M M M V.W.* * %                                                           ",
"                                & * * * X./.M M M M M M M M M Y.* * Z.                                                          ",
"                                6 : * * * `.M M M M M M M M M  +* * * d                                                         ",
"                                  6 0 * * * .+M M M M M M M M M ++* * <.                                                        ",
"                                      , ; * * @+#+M M M M M M M $+%+* * $                                                       ",
"                                        &+g * * *+=+M M M M M M M -+k.* n 6                                                     ",
"                                          ~ * * * ;+>+M M M M M M M ,+* * Q                                                     ",
"                                            % g * * '+)+M M M M M M !+* * ; 7.                                                  ",
"                                              7.~.* * ' ~+M M M M M M {+* * s                                                   ",
"                                                  <.* * * ]+t.M M M M ^+/+* * %                                                 ",
"                                                    + * * * (+/.M M M M (+* * ,.                                                ",
"                                                    6 s * * _ _+M M M M :+<+* * ~                                               ",
"                                                      6 Q ; * * [+}+M M M |+* * &                                               ",
"                                                          k ; * * 1+J.M t.2+' * ~.                                              ",
"                                                            d g * * 3+4+5+* * * &                                               ",
"                                                              = ; * * * * * * n                                                 ",
"                                                                7.n * * * * 1.6                                                 ",
"                                                                  6 >.0 &+6                                                     "};
