/* XPM */
static char * wall_left_down_xpm[] = {
"64 64 372 2",
"  	c #99873C",
". 	c #B6D235",
"+ 	c #BBD642",
"@ 	c #BFD94C",
"# 	c #C3DC54",
"$ 	c #C6DE5C",
"% 	c #9A7F3E",
"& 	c #A3C529",
"* 	c #B3D02A",
"= 	c #B4D12C",
"- 	c #B7D335",
"; 	c #BBD641",
"> 	c #BED84A",
", 	c #C1DB50",
"' 	c #C4DD57",
") 	c #9A793E",
"! 	c #87B126",
"~ 	c #B9D53C",
"{ 	c #BCD745",
"] 	c #C0DA4E",
"^ 	c #C2DB52",
"/ 	c #C6DE5B",
"( 	c #9A723F",
"_ 	c #6FA124",
": 	c #A1C328",
"< 	c #B1CF2A",
"[ 	c #B3D02B",
"} 	c #B5D12E",
"| 	c #B6D232",
"1 	c #B8D437",
"2 	c #B9D53B",
"3 	c #BAD53F",
"4 	c #BBD643",
"5 	c #BDD747",
"6 	c #BED849",
"7 	c #C0D94D",
"8 	c #C1DA4F",
"9 	c #C2DB51",
"0 	c #C3DC53",
"a 	c #C3DC55",
"b 	c #C4DC55",
"c 	c #C4DD55",
"d 	c #C4DD56",
"e 	c #C5DD57",
"f 	c #C5DD58",
"g 	c #9D6F40",
"h 	c #74A424",
"i 	c #A4C528",
"j 	c #B0CE2A",
"k 	c #95BB27",
"l 	c #8DB526",
"m 	c #A36944",
"n 	c #709E25",
"o 	c #75A524",
"p 	c #70A224",
"q 	c #73A424",
"r 	c #AFCD2A",
"s 	c #A66845",
"t 	c #798A2C",
"u 	c #9FC228",
"v 	c #93BA27",
"w 	c #B2CF2A",
"x 	c #A96A47",
"y 	c #856635",
"z 	c #6FA024",
"A 	c #80AD25",
"B 	c #A5C628",
"C 	c #71A324",
"D 	c #AC6C48",
"E 	c #905A3C",
"F 	c #7C812E",
"G 	c #739827",
"H 	c #89B326",
"I 	c #A6C729",
"J 	c #A8C829",
"K 	c #A0C328",
"L 	c #80AC25",
"M 	c #ADCC29",
"N 	c #9F6342",
"O 	c #8A5739",
"P 	c #7D802F",
"Q 	c #749528",
"R 	c #778E2A",
"S 	c #836F33",
"T 	c #92B827",
"U 	c #ACCB29",
"V 	c #84AF25",
"W 	c #9CBF28",
"X 	c #8FB626",
"Y 	c #A4C628",
"Z 	c #AB6C48",
"` 	c #8A5639",
" .	c #719B26",
"..	c #7EAB25",
"+.	c #8BB426",
"@.	c #82AE25",
"#.	c #71A224",
"$.	c #75A525",
"%.	c #AAC929",
"&.	c #88B126",
"*.	c #94BA27",
"=.	c #8AB326",
"-.	c #A2C428",
";.	c #9CC028",
">.	c #ABCA29",
",.	c #A76846",
"'.	c #8D583B",
").	c #945C3D",
"!.	c #9A6040",
"~.	c #7B862D",
"{.	c #817432",
"].	c #709D25",
"^.	c #90B626",
"/.	c #76A625",
"(.	c #81AD25",
"_.	c #76A525",
":.	c #86B026",
"<.	c #AECC2A",
"[.	c #AFCE2A",
"}.	c #8CB526",
"|.	c #95BA27",
"1.	c #ABCB29",
"2.	c #93B927",
"3.	c #7FAC25",
"4.	c #77A625",
"5.	c #78A725",
"6.	c #97BC27",
"7.	c #97BB27",
"8.	c #AA6B47",
"9.	c #A26644",
"0.	c #A96A46",
"a.	c #876037",
"b.	c #719C25",
"c.	c #8B573A",
"d.	c #7A872D",
"e.	c #719D25",
"f.	c #72A324",
"g.	c #90B727",
"h.	c #88B226",
"i.	c #935C3D",
"j.	c #866436",
"k.	c #7C842E",
"l.	c #7B862E",
"m.	c #7F7D30",
"n.	c #866336",
"o.	c #975F3F",
"p.	c #876137",
"q.	c #846834",
"r.	c #70A024",
"s.	c #759428",
"t.	c #769229",
"u.	c #A16543",
"v.	c #815032",
"w.	c #A56744",
"x.	c #915B3C",
"y.	c #836F34",
"z.	c #719C26",
"A.	c #788C2B",
"B.	c #729926",
"C.	c #7F7831",
"D.	c #759328",
"E.	c #7C802E",
"F.	c #739627",
"G.	c #996040",
"H.	c #8B5739",
"I.	c #8D583A",
"J.	c #985F3F",
"K.	c #995F3B",
"L.	c #A86945",
"M.	c #895838",
"N.	c #876036",
"O.	c #798A2B",
"P.	c #759429",
"Q.	c #7F7B30",
"R.	c #759329",
"S.	c #836C34",
"T.	c #729A26",
"U.	c #856835",
"V.	c #8C573A",
"W.	c #7D7E2F",
"X.	c #807731",
"Y.	c #709325",
"Z.	c #7A602E",
"`.	c #895938",
" +	c #875F37",
".+	c #AB6B47",
"++	c #965E3E",
"@+	c #9D6241",
"#+	c #856435",
"$+	c #866236",
"%+	c #925B3C",
"&+	c #856735",
"*+	c #876136",
"=+	c #778E2B",
"-+	c #769129",
";+	c #836E34",
">+	c #769029",
",+	c #7A892D",
"'+	c #846B34",
")+	c #846235",
"!+	c #7D4E30",
"~+	c #865336",
"{+	c #9D6242",
"]+	c #A26541",
"^+	c #A56743",
"/+	c #99603F",
"(+	c #9C6241",
"_+	c #A76946",
":+	c #9B6141",
"<+	c #8F5A3C",
"[+	c #885B38",
"}+	c #856535",
"|+	c #885D37",
"1+	c #8E593B",
"2+	c #A86A46",
"3+	c #905B3C",
"4+	c #9D6342",
"5+	c #A26543",
"6+	c #A16440",
"7+	c #905833",
"8+	c #975E3F",
"9+	c #A36644",
"0+	c #965D3E",
"a+	c #9C6141",
"b+	c #A86946",
"c+	c #945D3E",
"d+	c #AB6B48",
"e+	c #9E6342",
"f+	c #A46642",
"g+	c #925934",
"h+	c #9B6140",
"i+	c #A46745",
"j+	c #A26540",
"k+	c #A76944",
"l+	c #A96A45",
"m+	c #9C613C",
"n+	c #9C603C",
"o+	c #A36541",
"p+	c #975D38",
"q+	c #945B35",
"r+	c #A0633E",
"s+	c #AA6B46",
"t+	c #A66743",
"u+	c #A26440",
"v+	c #945A35",
"w+	c #935A35",
"x+	c #975D37",
"y+	c #955B36",
"z+	c #AB6C47",
"A+	c #945B36",
"B+	c #915934",
"C+	c #A76844",
"D+	c #9F623E",
"E+	c #A0633F",
"F+	c #A86944",
"G+	c #A66844",
"H+	c #9F633F",
"I+	c #9D613C",
"J+	c #9E613D",
"K+	c #965C37",
"L+	c #925A35",
"M+	c #9E623E",
"N+	c #AA6A46",
"O+	c #A56742",
"P+	c #905832",
"Q+	c #A66843",
"R+	c #9B603B",
"S+	c #915933",
"T+	c #9B5F3A",
"U+	c #9A5F3B",
"V+	c #9A603B",
"W+	c #9A5F3A",
"X+	c #A36641",
"Y+	c #985D39",
"Z+	c #975D39",
"`+	c #915833",
" @	c #9E623D",
".@	c #955C36",
"+@	c #9A5E3A",
"@@	c #A1633F",
"#@	c #A0643F",
"$@	c #A46742",
"%@	c #995E39",
"&@	c #955B37",
"*@	c #8A532E",
"=@	c #844E28",
"-@	c #8D5631",
";@	c #975C38",
">@	c #905732",
",@	c #935A34",
"'@	c #A46641",
")@	c #7C4821",
"!@	c #7B4720",
"~@	c #834D27",
"{@	c #8C5530",
"]@	c #87512B",
"^@	c #9D613D",
"/@	c #814C25",
"(@	c #88512C",
"_@	c #8C542F",
":@	c #7C4720",
"<@	c #8E5631",
"[@	c #8E5731",
"}@	c #8F5732",
"|@	c #854F2A",
"1@	c #88522C",
"2@	c #8D5530",
"3@	c #814C26",
"4@	c #89522D",
"5@	c #8B532E",
"6@	c #864F2A",
"7@	c #854F29",
"8@	c #7D4822",
"9@	c #8B542E",
"0@	c #89532D",
"a@	c #86502A",
"b@	c #824D27",
"c@	c #8D5630",
"d@	c #89522C",
"e@	c #8B542F",
"f@	c #7E4922",
"g@	c #7F4A24",
"h@	c #8E5630",
"i@	c #7D4922",
"j@	c #7E4A23",
"k@	c #7E4923",
"l@	c #8A532D",
"m@	c #804B24",
"n@	c #824C26",
"o@	c #8C552F",
"p@	c #7F4A23",
"q@	c #824D26",
"r@	c #8A542E",
"s@	c #7D4821",
"t@	c #8F5832",
"u@	c #844E29",
"v@	c #7F4B24",
"w@	c #804B25",
"x@	c #7A4620",
"y@	c #794620",
"z@	c #844F28",
"A@	c #77451F",
"B@	c #77441F",
"C@	c #6E3F1D",
"D@	c #6C3E1D",
"E@	c #74431E",
"F@	c #63391B",
"G@	c #6F401D",
"H@	c #693C1C",
"I@	c #78451F",
"J@	c #643A1B",
"K@	c #79461F",
"L@	c #6B3D1C",
"M@	c #76441F",
"N@	c #673B1C",
"O@	c #7A4720",
"P@	c #71411E",
"Q@	c #663B1C",
"R@	c #75441F",
"S@	c #653A1B",
"T@	c #683C1C",
"U@	c #73421E",
"V@	c #6F3F1D",
"W@	c #64391B",
"X@	c #70411E",
"Y@	c #72421E",
"Z@	c #6A3D1C",
"`@	c #6B3E1D",
" #	c #6B3E1C",
".#	c #663A1C",
"+#	c #6D3E1D",
"@#	c #6D3F1D",
"  . + @ # $ $ $ $ $ $ $ $ $ $ $ $ $ $ $ $ $ $ $ $ $ $ $ $ $ $ $ $ $ $ $ $ $ $ $ $ $ $ $ $ $ $ $ $ $ $ $ $ $ $ $ $ $ $ $ $ $ $ $ ",
"% & * * * = - ; > , ' $ $ $ $ $ $ $ $ $ $ $ $ $ $ $ $ $ $ $ $ $ $ $ $ $ $ $ $ $ $ $ $ $ $ $ $ $ $ $ $ $ $ $ $ $ $ $ $ $ $ $ $ $ ",
") ! * * * * * * * * * = - ~ { > ] ^ ' / $ $ $ $ $ $ $ $ $ $ $ $ $ $ $ $ $ $ $ $ $ $ $ $ $ $ $ $ $ $ $ $ $ $ $ $ $ $ $ $ $ $ $ $ ",
"( _ : * * * * < * * * * * * * * * * * [ } | 1 2 3 4 5 6 > @ 7 ] 8 , 9 9 ^ 0 0 # # # # a b b b b b b b b c c c d d d d d ' e f f ",
"g _ h i * j k l * * * * * * * * * * * * * * * * * * * * * * * * * * * * * * * * * * * * * * * * * * * * * * * * * * * * * * * * ",
"m n _ _ o p _ q < * * * * * * r * * * * * * * * * * * * * * * * * * * * * * * * * * * * * * * * * * * * * * * * * * * * * * * * ",
"s t _ _ _ _ _ _ u * * * * * * v w * * * * * * * * * * * * * * * * * * * * * * * * * * * * * * * * * * * * * * * * * * * * * * * ",
"x y z _ _ _ _ _ A * * * * * B C : * * * * * * * * * * * * * * * * * * * * * * * * * * * * * * * * * * * * * * * * * * * * * * * ",
"D E F _ _ _ z G _ H I J K l p _ L * * * * * j l * * * * * * * * * * * * * * * * * * * * * M * * * * * * * * * * * * * * * * * * ",
"D N O P Q R S S _ _ _ _ _ _ _ _ _ T * * * U V _ : * * * * < W * * * * * * * * * * * * * U X * * * * * * * Y * * * * * * * * * * ",
"D Z E ` ` ` ` O  ._ _ _ _ _ _ G _ _ ..+.@.#._ _ $.%.* * j &.#.u * * * j *.w * * * * * * =.p i * * * * * -.p ;.* * * < +.>.* * J ",
"D D ,.'.` ` ).!.~._ _ _ _ _ _ {.]._ _ _ _ _ _ _ _ q ^.l /._ _ _ (.T l _._ :.<.* * * [.}._ _ C |.U * 1.2.#._ _ 3.T X 4._ 5.6.7.4.",
"D D D 8.9.s D 0.a.b._ _ _ _ F c.d._ _ _ _ _ _ e._ _ _ _ _ _ _ _ _ _ _ _ _ _ f.:.g.h.q _ _ _ _ _ _ _ _ _ _ _ _ _ _ _ _ _ _ _ _ z ",
"D D D D D D D D i.j.k.l.m.n.` o.p.]._ _ _ _ G q.r._ _ _ _ _ z _ _ _ _ _ _ _ _ _ _ _ _ _ _ s._ _ _ _ _ _ _ _ _ _ _ _ _ _ _ _ _ t.",
"D D D D D D D D u.` ` ` ` ` v.w.x.y.z._ r.A.a.` F _ _ _ _ B.C._ _ _ _ _ _ _ _ _ _ _ _ _ D.y._ _ _ _ _ _ _ E._ _ _ _ _ z.e._ F.j.",
"D D D D D D D D D G.H.` I.J.K.L.u.` M.N.M.` ` J.O O._ _ P.j.` Q.]._ _ R.S.T._ _ _ _ _ n U.V.F _ _ _ _ _ W.` X.e._ _ Y.Z.`. +` I.",
"D D D D D D D D D D .+8.D D D D D ++` ` ` ` @+D E ` #+$+` ` %+` `.&+$+` ` *+=+z _ _ -+&+V.!.` ;+t >+,+'+` '.` `.&+)+!+~+` ` ` {+",
"D D D D ]+^+D D D D D D D D D D D D N /+(+_+D D s V.` ` ` :+x <+` ` ` ` i.` ` [+}+|+` ` :+8.1+` ` ` ` ` <+2+3+` ` ` ` G.4+G.5+D ",
"D D D 6+7+7+L.D D D D D D D D D D D D D D D D D D s 8+J.9+D D 8.@+0+J.9+D a+` ` ` ` ` J.D D b+i.` ` ` c+x D d+e+0+8+9.D D D D D ",
"D D D f+7+g+0.D D D D D D D D D D D D D D D D D D D D D D D D D .+6+.+D D D s h+++!.i+D D ^+j+D b+i+x L.0.D D D D D D D D D D D ",
"D D D D k+0.D D D D D D D D D D D D D D D D l+m+n+L.D D D D D D o+7+f+D D D D D D D D .+p+7+7+q+0.D D m+r+D D D D .+s+D D D D D ",
"D D D D D D D D D D D D D D D t+u+0.D D D Z v+7+7+w+.+D D D D D D ^+D D D D D D D D D x+7+7+7+7+y+D D D D D D D z+A+B+C+D D D D ",
"6+D+E+F+D D D D D D D D D G+w+7+7+7+C+D D k+7+7+7+7+C+D D D D D D D D D o+H+L.D D D I+7+7+7+7+7+7+J+D D D D D D .+g+7+^+D D D .+",
"7+7+7+7+K+L.D D D D D D j+7+7+7+7+B+w+L.D .+w+7+7+L+.+D D D D D D D D M+7+7+g+N+D O+7+7+7+7+7+7+7+P+N+D D D D D D L.Q+D N+R+B+7+",
"7+7+7+7+7+S+^+D D D .+T+7+7+7+7+7+U+V+g+C+D C+W+W+C+D D D D D D D D D y+7+7+7+X+.+g+7+7+Y+U+7+7+7+7+Z+D D D D D D D D .+v+7+7+7+",
"7+7+7+7+7+7+P+Y+M+m+7+7+7+7+7+7+7+7+7+7+S+t+D D D D D D D D D D D D D R+7+7+`+L.Y+7+7+7+R+ @7+7+7+7+7+.@C+D D D D D D +@7+7+7+7+",
"7+7+7+7+7+7+7+7+7+7+7+7+7+7+7+7+7+7+7+7+7+P+@@D D D D D D E+v+q+#@D D .+J+W+$@M+7+7+7+7+7+7+7+7+7+7+7+7+P+%@f+D D D O+7+&@L+7+7+",
"7+7+7+7+7+7+7+7+B+7+7+7+7+7+7+7+7+*@=@-@7+7+7+;@t+D D o+w+`+7+7+7+K+l+D D D D+7+7+7+7+7+7+7+7+7+7+7+7+7+7+7+7+>@w+,@7+7+^+m+7+7+",
"7+7+7+7+7+7+7+7+0.'@7+7+7+7+7+7+7+)@!@~@7+7+7+7+7+>@>@7+C+8.A+7+7+7+`+I+M+K+7+7+7+7+{@]@{@7+7+7+7+7+7+7+7+7+7+7+7+7+7+7+7+7+7+7+",
"7+7+7+7+7+7+7+7+j+^@7+7+7+7+7+7+7+/@!@(@7+7+7+7+7+7+7+B+.+D p+7+7+7+7+7+7+7+7+7+7+_@!@!@:@_@7+7+7+7+7+7+7+7+7+7+7+7+7+7+7+7+7+7+",
"7+7+7+<@[@7+7+7+7+7+7+7+7+7+7+7+7+7+}@7+7+7+7+7+7+7+7+7+&@Z+7+7+7+7+7+7+7+7+7+7+7+|@!@!@!@|@7+}@1@{@7+7+7+7+7+7+7+7+7+7+7+7+7+7+",
"7+7+2@)@)@-@7+7+7+7+7+7+7+7+7+7+7+7+7+7+7+7+7+7+7+7+7+7+7+7+7+7+7+7+}@(@[@7+7+7+7+*@!@!@!@*@7+=@!@)@}@7+7+7+7+7+7+3@4@7+7+7+7+7+",
"7+7+5@!@!@_@7+7+7+7+7+7+7+7+7+7+7+7+7+7+7+7+7+7+7+7+7+7+7+7+7+7+7+7+(@!@6@7+7+7+7+7+4@=@4@7+7+7@!@8@P+7+7+7+7+7+7+7@9@7+7+7+7+7+",
"7+7+7+4@0@7+7+7+7+7+7+7+7+7+7+7+7+7+7+7+7+7+7+7+7+7+7+7+7+7+7+7+7+7+}@a@<@7+7+7+7+7+7+7+7+7+7+7+*@<@7+7+7+7+7+7+7+7+7+7+7+7+7+7+",
"7+7+7+7+7+7+7+*@b@b@9@7+7+7+7+7+c@7@a@}@7+7+7+7+7+7+}@7+7+7+7+7+7+7+7+7+7+7+7+7+7+7+7+7+7+7+7+7+7+7+7+7+7+7+[@(@{@7+7+7+7+7+7+7+",
"7+7+7+7+7+7+d@!@!@!@!@*@7+7+7+e@)@!@!@f@-@7+7+7+4@)@!@=@7+7+7+7+7+7+7+7+7+7+7+7+7+7+7+7+7+7+7+7+7+7+7+7+7+7+g@!@)@h@7+7+7+7+7+7+",
"7+7+7+7+7+7+g@!@!@!@!@/@7+7+}@i@!@!@!@!@j@}@7+}@)@!@!@!@*@7+7+7+7+7+7+7+(@k@j@1@7+7+7+7+7+7+l@7@a@c@7+7+7+7+)@!@!@e@7+7+7+7+7+7+",
"d@*@}@7+7+7+k@!@!@!@!@m@7+7+=@)@n@i@!@!@!@b@7+[@!@!@!@!@d@7+7+7+7+7+7+9@!@!@!@!@o@7+7+7+7+0@!@!@!@)@]@7+7+7+d@p@=@7+7+7+7+[@9@4@",
"!@!@)@l@7+7+7@!@!@!@!@]@7+c@!@(@7+{@!@!@!@!@1@7+q@!@!@i@}@7+7+7+7+7+7+a@!@!@!@!@]@7+7+7+r@)@!@!@!@!@!@=@7+7+7+7+7+7+7+(@p@!@!@!@",
"!@!@!@)@2@7+7+7@s@8@a@7+<@g@!@]@7+o@!@!@!@!@)@c@7+4@(@[@7+7+7+7+7+7+7+0@!@!@!@!@*@7+7+0@)@!@!@!@!@!@!@!@g@e@7+7+7+*@p@!@!@!@!@!@",
"!@!@!@!@3@7+7+7+7+7+7+]@)@!@!@:@/@s@!@!@!@!@!@g@t@7+7+7+7+7+7+7+}@}@7+7+7@:@)@a@7+7+]@!@!@!@!@!@u@}@_@i@!@!@f@v@i@!@!@!@!@!@!@!@",
"!@!@:@!@!@a@[@}@e@|@i@!@!@!@!@!@!@!@!@!@!@!@!@!@~@7+7+7+7+7+<@b@!@!@n@c@7+P+7+7+}@~@!@!@!@!@!@)@7+7+7+a@!@!@!@!@!@!@:@i@!@!@!@!@",
"!@w@P+1@!@!@!@!@!@!@!@!@!@!@x@y@!@!@!@!@!@!@!@!@!@n@[@7+7+*@8@!@!@!@!@:@z@_@_@a@8@!@!@!@!@!@!@!@[@7+7+z@!@!@!@!@!@!@0@7+g@!@!@!@",
"!@~@7+e@!@!@!@!@!@!@!@!@!@!@A@B@!@!@!@!@!@!@!@!@!@!@)@w@p@!@!@!@)@o@i@!@!@!@!@!@!@!@!@!@8@!@!@!@g@d@7@!@!@!@!@!@!@!@]@[@j@!@!@!@",
"!@!@m@s@!@!@!@!@!@!@!@!@!@!@!@!@!@!@!@!@!@!@!@!@!@!@!@!@!@!@!@!@!@=@)@!@!@!@!@!@!@!@!@u@7+w@!@!@!@!@!@!@!@!@!@!@!@!@!@!@!@!@!@!@",
"!@!@!@!@!@!@!@!@!@!@!@!@!@!@!@!@!@!@!@!@!@!@!@!@!@!@!@!@!@!@!@!@!@!@!@!@!@!@!@!@!@!@!@w@l@f@!@!@!@!@!@!@!@!@!@!@!@!@!@!@!@!@!@!@",
"!@!@!@!@!@!@!@!@!@a@P+=@!@!@!@!@!@!@!@!@!@!@!@!@g@a@!@!@!@!@!@!@!@!@C@D@y@!@!@!@!@!@!@!@!@!@!@!@!@!@!@!@!@!@!@!@!@!@!@!@!@!@!@!@",
"!@!@!@!@!@!@!@!@!@e@7+4@!@!@!@!@!@!@!@!@!@!@!@!@n@5@!@!@!@!@!@!@!@E@F@F@G@!@!@!@!@!@!@!@!@!@!@!@!@!@!@!@!@!@!@B@H@C@!@!@!@!@!@!@",
"!@!@!@!@!@!@!@!@!@j@|@i@!@!@!@!@!@!@!@!@!@!@!@!@!@!@!@!@!@!@!@!@!@I@J@F@E@!@!@!@!@!@!@K@!@!@!@!@!@!@!@!@!@!@!@L@F@F@M@!@!@!@!@!@",
"!@!@!@!@!@!@!@!@!@!@!@!@!@!@!@!@!@!@!@!@!@!@!@!@!@!@!@!@!@!@!@!@!@!@y@I@!@!@!@!@!@I@N@F@H@O@!@!@!@!@!@!@!@!@!@P@F@Q@x@!@!@!@!@!@",
"!@!@!@!@!@!@!@!@!@!@!@!@!@!@!@!@!@!@!@R@H@S@T@U@!@!@!@!@!@!@!@!@!@!@!@!@!@!@!@!@!@V@F@F@F@U@!@!@!@!@!@!@!@!@!@!@I@x@!@!@!@!@!@!@",
"!@!@!@!@!@!@!@!@!@!@!@!@!@!@!@!@!@!@M@W@F@F@F@F@P@!@!@!@!@!@!@!@!@!@!@!@!@!@!@!@!@X@F@F@F@E@!@!@!@!@!@!@!@!@!@!@!@!@!@!@!@!@!@!@",
"!@!@!@Y@Y@O@!@!@!@!@!@!@!@!@!@!@!@!@Z@F@F@F@F@F@S@!@!@!@!@!@!@!@!@!@!@!@!@!@!@!@!@x@`@Q@C@!@!@!@!@!@!@!@!@!@!@!@!@!@!@!@!@!@!@!@",
"!@!@D@F@F@ #!@!@!@!@!@!@!@!@!@!@!@!@.#F@F@F@F@F@F@K@!@!@!@!@!@!@!@!@!@!@!@!@!@!@!@!@!@!@!@!@!@!@!@!@!@!@!@!@!@!@!@!@!@!@!@!@!@!@",
"!@!@.#F@F@J@!@!@!@!@!@!@!@!@!@!@!@!@H@F@F@F@F@F@J@!@!@!@!@!@!@!@!@!@!@!@!@!@!@!@!@!@!@!@!@!@!@!@!@!@!@!@!@!@!@!@!@!@E@+#!@!@!@!@",
"!@!@@#F@F@D@!@!@!@!@!@!@!@!@!@!@!@!@E@F@F@F@F@F@G@!@!@!@!@!@!@!@!@!@!@!@!@!@!@!@!@!@!@!@!@!@!@!@!@!@!@!@!@!@!@!@!@!@P@Q@O@!@!@!@",
"!@!@!@U@U@!@!@!@!@!@!@!@!@!@!@!@!@!@!@U@Q@F@S@G@!@!@!@!@!@!@!@!@!@!@!@!@!@!@!@!@!@!@!@!@!@!@!@!@!@!@!@!@!@!@!@!@!@!@!@!@!@!@!@!@",
"!@!@!@!@!@!@!@!@!@!@!@!@!@!@!@!@!@!@!@!@!@K@!@!@!@!@!@!@!@!@!@!@!@!@!@!@!@!@!@!@!@!@!@!@!@!@!@!@!@!@!@!@!@!@!@!@!@!@!@!@!@!@!@!@",
"!@!@!@!@!@!@!@!@!@!@!@!@!@!@!@!@!@!@!@!@!@!@!@!@!@!@!@!@!@!@!@!@!@!@!@!@!@!@!@!@!@!@!@!@!@!@!@!@!@!@!@!@!@!@!@!@!@!@!@!@!@!@!@!@",
"!@!@!@!@!@!@!@!@!@!@!@!@!@!@!@!@!@!@!@!@!@!@!@!@!@!@!@!@!@!@!@!@!@!@!@!@!@!@!@!@!@!@!@!@!@!@!@!@!@!@!@!@!@!@!@!@!@!@!@!@!@!@!@!@",
"!@!@!@!@!@!@!@!@!@!@!@!@!@!@!@!@!@!@!@!@!@!@!@!@!@!@!@!@!@!@!@!@!@!@!@!@!@!@!@!@!@!@!@!@!@!@!@!@!@!@!@!@!@!@!@!@!@!@!@!@!@!@!@!@",
"!@!@!@!@!@!@!@!@!@!@!@!@!@!@!@!@!@!@!@!@!@!@!@!@!@!@!@!@!@!@!@!@!@!@!@!@!@!@!@!@!@!@!@!@!@!@!@!@!@!@!@!@!@!@!@!@!@!@!@!@!@!@!@!@",
"!@!@!@!@!@!@!@!@!@!@!@!@!@!@!@!@!@!@!@!@!@!@!@!@!@!@!@!@!@!@!@!@!@!@!@!@!@!@!@!@!@!@!@!@!@!@!@!@!@!@!@!@!@!@!@!@!@!@!@!@!@!@!@!@",
"!@!@!@!@!@!@!@!@!@!@!@!@!@!@!@!@!@!@!@!@!@!@!@!@!@!@!@!@!@!@!@!@!@!@!@!@!@!@!@!@!@!@!@!@!@!@!@!@!@!@!@!@!@!@!@!@!@!@!@!@!@!@!@!@"};
