/* XPM */
static char * wall_right_up_xpm[] = {
"64 64 39 1",
" 	c #C4ECFF",
".	c #B6E4FB",
"+	c #B4E4FA",
"@	c #B9E6FC",
"#	c #89D0F0",
"$	c #ADE0F8",
"%	c #A3DBF6",
"&	c #AADFF8",
"*	c #A7DDF7",
"=	c #9ED9F5",
"-	c #C1EAFE",
";	c #B1E2F9",
">	c #ACE0F8",
",	c #B3E3FA",
"'	c #B7E5FB",
")	c #B5E4FB",
"!	c #BFE9FE",
"~	c #ADE0F9",
"{	c #A4DCF6",
"]	c #BCE8FD",
"^	c #BBE7FC",
"/	c #B4E3FA",
"(	c #8ED2F1",
"_	c #BAE6FC",
":	c #93D4F2",
"<	c #B6E5FB",
"[	c #AFE1F9",
"}	c #9DD8F4",
"|	c #94D5F2",
"1	c #BEE9FD",
"2	c #8DD2F1",
"3	c #8BD1F0",
"4	c #8AD0F0",
"5	c #91D3F2",
"6	c #A6DDF7",
"7	c #B0E2F9",
"8	c #B1E2FA",
"9	c #9BD7F4",
"0	c #96D6F3",
"                                                                ",
"                                                                ",
"                                                                ",
"                                                                ",
"                                                                ",
"                                                                ",
"                                                                ",
"                                                                ",
"                                                                ",
"                                                                ",
"                                                                ",
".+@                                                             ",
"####$                                                           ",
"#####%&*                                                        ",
"########=-                      ;>                              ",
"#########,                  ')!~##{]'^                          ",
"#########/                 '(#########%_   ^!                   ",
"#########:<             ^[}############|1 '2+                   ",
"###########3^         @[4###################%                   ",
"############5^       '######################&                   ",
"##############%/'+%&6(######################6                   ",
"############################################('                  ",
"##############################################@                 ",
"##############################################[                 ",
"##############################################4^                ",
"###############################################[                ",
"###############################################}                ",
"################################################'               ",
"################################################('              ",
"#################################################)              ",
"#################################################!              ",
"#################################################~              ",
"##################################################;             ",
"##################################################>             ",
"#################################################{              ",
"#################################################]              ",
"#################################################'              ",
"#################################################^              ",
"################################################%               ",
"###############################################|_               ",
"###############################################1                ",
"###############################################                 ",
"###############################################'                ",
"###############################################2^               ",
"################################################7               ",
"################################################(;-             ",
"##################################################'             ",
"##################################################8             ",
"##################################################9             ",
"##################################################9             ",
"##################################################2             ",
"###################################################8            ",
"###################################################:            ",
"###################################################7            ",
"###################################################,            ",
"###################################################0-           ",
"####################################################7           ",
"###################################################*-           ",
"##################################################&             ",
"##################################################'             ",
"##################################################+             ",
"##################################################0-            ",
"###################################################$            ",
"###################################################(,           "};
