/* XPM */
static char * wall_down_xpm[] = {
"64 64 314 2",
"  	c #C6DE5C",
". 	c #C5DD59",
"+ 	c #B3D02A",
"@ 	c #AACA29",
"# 	c #ABCB29",
"$ 	c #A6C729",
"% 	c #9EC128",
"& 	c #80AC25",
"* 	c #A6C629",
"= 	c #A8C829",
"- 	c #ADCC2A",
"; 	c #98BD27",
"> 	c #86B026",
", 	c #A9C929",
"' 	c #B0CE29",
") 	c #B0CE2A",
"! 	c #89B326",
"~ 	c #B1CF2A",
"{ 	c #9CBF28",
"] 	c #84AF25",
"^ 	c #A2C428",
"/ 	c #7DAA25",
"( 	c #B1CE2A",
"_ 	c #B2CF2A",
": 	c #7BA925",
"< 	c #6FA124",
"[ 	c #72A324",
"} 	c #95BA27",
"| 	c #A3C428",
"1 	c #9BBF27",
"2 	c #79A825",
"3 	c #70A224",
"4 	c #97BC27",
"5 	c #AFCE2A",
"6 	c #8EB626",
"7 	c #ADCB29",
"8 	c #77A725",
"9 	c #91B827",
"0 	c #9DC028",
"a 	c #7FAB25",
"b 	c #90B726",
"c 	c #A7C729",
"d 	c #93B927",
"e 	c #94BA27",
"f 	c #7AA825",
"g 	c #7EAB25",
"h 	c #91B727",
"i 	c #76A625",
"j 	c #A4C528",
"k 	c #8BB426",
"l 	c #6FA024",
"m 	c #739627",
"n 	c #73A424",
"o 	c #7AA925",
"p 	c #71A224",
"q 	c #759428",
"r 	c #8CB426",
"s 	c #88B226",
"t 	c #78A725",
"u 	c #7CAA25",
"v 	c #93B827",
"w 	c #84AF26",
"x 	c #99BD27",
"y 	c #9CC028",
"z 	c #91B726",
"A 	c #77A625",
"B 	c #769229",
"C 	c #817832",
"D 	c #718F25",
"E 	c #807031",
"F 	c #7C812E",
"G 	c #729A26",
"H 	c #7F7931",
"I 	c #759328",
"J 	c #846F34",
"K 	c #7C802E",
"L 	c #719C26",
"M 	c #719D25",
"N 	c #886537",
"O 	c #955D3E",
"P 	c #7E7D30",
"Q 	c #709E25",
"R 	c #759229",
"S 	c #836C34",
"T 	c #719B26",
"U 	c #7D602F",
"V 	c #945C3C",
"W 	c #7B832E",
"X 	c #7E7C30",
"Y 	c #8C573A",
"Z 	c #866536",
"` 	c #8F593B",
" .	c #7F7B30",
"..	c #709D25",
"+.	c #759329",
"@.	c #866836",
"#.	c #985F3F",
"$.	c #7D7E2F",
"%.	c #8C583A",
"&.	c #807731",
"*.	c #709325",
"=.	c #7A602E",
"-.	c #895938",
";.	c #875F37",
">.	c #8A5639",
",.	c #9A6040",
"'.	c #A76946",
").	c #8D583A",
"!.	c #895A38",
"~.	c #856735",
"{.	c #866236",
"].	c #8F5A3C",
"^.	c #778F2B",
"/.	c #769029",
"(.	c #A86946",
"_.	c #836F33",
":.	c #798A2C",
"<.	c #7A892D",
"[.	c #846A34",
"}.	c #8E593B",
"|.	c #A66845",
"1.	c #8D583B",
"2.	c #975F3F",
"3.	c #876136",
"4.	c #778E2B",
"5.	c #769129",
"6.	c #996040",
"7.	c #A96A47",
"8.	c #836E34",
"9.	c #846B34",
"0.	c #846235",
"a.	c #7D4E30",
"b.	c #915A3B",
"c.	c #945D3D",
"d.	c #9D6342",
"e.	c #AC6C48",
"f.	c #99603F",
"g.	c #905A3C",
"h.	c #895536",
"i.	c #985F3D",
"j.	c #965E3F",
"k.	c #885C38",
"l.	c #856535",
"m.	c #885D37",
"n.	c #AB6B48",
"o.	c #A56845",
"p.	c #915B3C",
"q.	c #935C3D",
"r.	c #9F6443",
"s.	c #A86A46",
"t.	c #885B38",
"u.	c #945D3E",
"v.	c #8F5A3B",
"w.	c #925C3D",
"x.	c #9E6342",
"y.	c #A16440",
"z.	c #905833",
"A.	c #A86945",
"B.	c #A26543",
"C.	c #925B3D",
"D.	c #A16543",
"E.	c #A46744",
"F.	c #A56745",
"G.	c #A26644",
"H.	c #A06443",
"I.	c #A46745",
"J.	c #A46642",
"K.	c #925934",
"L.	c #A96A46",
"M.	c #AB6B47",
"N.	c #A56743",
"O.	c #A26540",
"P.	c #A76944",
"Q.	c #A96A45",
"R.	c #9C613C",
"S.	c #9C603C",
"T.	c #A36541",
"U.	c #975D38",
"V.	c #945B35",
"W.	c #A0633E",
"X.	c #AA6B46",
"Y.	c #A66743",
"Z.	c #A26440",
"`.	c #AB6C48",
" +	c #945A35",
".+	c #935A35",
"++	c #975D37",
"@+	c #955B36",
"#+	c #AB6C47",
"$+	c #945B36",
"%+	c #915934",
"&+	c #A76844",
"*+	c #9F623E",
"=+	c #A0633F",
"-+	c #A86844",
";+	c #A66844",
">+	c #9F633F",
",+	c #9D613C",
"'+	c #9E613D",
")+	c #965C37",
"!+	c #925A35",
"~+	c #9E623E",
"{+	c #AA6A46",
"]+	c #A56742",
"^+	c #905832",
"/+	c #A66843",
"(+	c #9B603B",
"_+	c #915933",
":+	c #9B5F3A",
"<+	c #9A5F3B",
"[+	c #9A603B",
"}+	c #9A5F3A",
"|+	c #A36641",
"1+	c #985D39",
"2+	c #975D39",
"3+	c #915833",
"4+	c #9E623D",
"5+	c #955C36",
"6+	c #9A5E3A",
"7+	c #A1633F",
"8+	c #A0643F",
"9+	c #A46742",
"0+	c #995E39",
"a+	c #955B37",
"b+	c #8A532E",
"c+	c #844E28",
"d+	c #8D5631",
"e+	c #975C38",
"f+	c #905732",
"g+	c #935A34",
"h+	c #7C4821",
"i+	c #7B4720",
"j+	c #834D27",
"k+	c #AA6B47",
"l+	c #8C5530",
"m+	c #87512B",
"n+	c #9D613D",
"o+	c #814C25",
"p+	c #88512C",
"q+	c #965D38",
"r+	c #8C542F",
"s+	c #7C4720",
"t+	c #8E5631",
"u+	c #8E5731",
"v+	c #8F5732",
"w+	c #854F2A",
"x+	c #88522C",
"y+	c #8D5530",
"z+	c #814C26",
"A+	c #89522D",
"B+	c #8B532E",
"C+	c #864F2A",
"D+	c #8A522D",
"E+	c #854F29",
"F+	c #7D4822",
"G+	c #8B542F",
"H+	c #89532D",
"I+	c #86502A",
"J+	c #824D27",
"K+	c #8B542E",
"L+	c #8D5630",
"M+	c #89522C",
"N+	c #7E4922",
"O+	c #7F4A24",
"P+	c #8E5630",
"Q+	c #7D4922",
"R+	c #7E4A23",
"S+	c #7E4923",
"T+	c #8A532D",
"U+	c #804B24",
"V+	c #824C26",
"W+	c #8C552F",
"X+	c #7F4A23",
"Y+	c #824D26",
"Z+	c #8A542E",
"`+	c #7D4821",
" @	c #8F5832",
".@	c #844E29",
"+@	c #7F4B24",
"@@	c #804B25",
"#@	c #7A4620",
"$@	c #794620",
"%@	c #854F28",
"&@	c #844F28",
"*@	c #77451F",
"=@	c #77441F",
"-@	c #6E3F1D",
";@	c #6C3E1D",
">@	c #74431E",
",@	c #63391B",
"'@	c #6F401D",
")@	c #78451F",
"!@	c #643A1B",
"~@	c #75441F",
"{@	c #693C1C",
"]@	c #653A1B",
"^@	c #683C1C",
"/@	c #73421E",
"(@	c #76441F",
"_@	c #64391B",
":@	c #71411E",
"<@	c #72421E",
"[@	c #7A4720",
"}@	c #6A3D1C",
"|@	c #6B3E1C",
"1@	c #663A1C",
"2@	c #79461F",
"3@	c #663B1C",
"4@	c #75431F",
"5@	c #6D3E1D",
"6@	c #6D3F1D",
"7@	c #673B1C",
"8@	c #70401E",
"9@	c #75431E",
"                                                                                                                                ",
"                                                                                                                                ",
"                                                                                                                                ",
". . . . . . . . . . . . . . . . . . . . . . . . . . . . . . . . . . . . . . . . . . . . . . . . . . . . . . . . . . . . . . . . ",
"+ + + + + + + + + + + + + + + + + + + + + + + + + + + + + + + + + + + + + + + + + + + + + + + + + + + + + + + + + + + + + + + + ",
"+ + + + + + + + + + + + + + + + + + + + + + + + + + + + + + + + + + + + + + + + + + + + + + + + + + + + + + + + + + + + + + + + ",
"+ + + + + + + + + + + + + + + + + + + + + + + + + + + + + + + + + + + + + + + + + + + + + + + + + + + + + + + + + + + + + + + + ",
"+ + + + + + + + + + + + + + + + + + + + + + + + + + + + + + + + + + + + + + + + + + + + + + + + + + + + + + + + + + + + + + + + ",
"+ + + + + + + + + + + + + + + + + + + + + + + + + + + + + + + + + + + + + + + + + + + + + + + + + + + + + + + + + + + + + + + + ",
"+ + + + + + + + + + + + + + + + + + + + + + + + + + + + + + + + + + + + + + + + + + + + + + + + + + + + + + + + + + + + + + + + ",
"@ + + + + + + + + + + + + + # + + + + + + + + + + + + + + + + + + + + + + + # + + + + + + + + + + + $ + + + + + + + + + + + + % ",
"& * = = + + + - ; + + + + + > , + + + + + ' + + + ) ! ~ + + + { @ + + + + @ ] + + + + + + ) + + + ^ / ( + + + ' + + + + + + _ : ",
"< < < [ } | 1 2 3 4 _ + 5 6 < / 7 + + + = 8 9 ^ 0 / < a 0 ^ b 3 : c + + c : < d + + + + e f { ^ e [ < g 0 ^ h i j + + + + ~ k l ",
"m < < < < < < < < < n o p < < q [ r } s p < < < < < < < < < l < < < t 8 < < < < u v v / < q < < < < < < < < < < < w x y z A < B ",
"C < < < < < < < < < < < < < D E < < < < < < < F < < < < < G H < < < < < < < < < < < < < I J < < < < < < < K < < < < < L M < m N ",
"O P Q < < R S T < < < < < M U V W < < < < < X Y H M < < q Z `  ...< < +.S G < < < < < Q @.#.F < < < < < $.%.&.M < < *.=.-.;.>.,.",
"'.).!.~.{.>.].{.^.< < < /.Z ,.(.Y _.:./.<.[.}.|.1.-.~.{.>.2.(.).-.~.{.>.].3.4.l < < 5.~.6.7.).8.:./.<.9.1.|.}.-.~.0.a.b.6.c.d.e.",
"e.(.f.g.h.i.e.j.>.k.l.m.>.O n.e.o.` >.>.>.g.'.e.7.6.p.q.r.e.e.s.6.p.q.r.e.2.>.t.l.m.>.u.n.e.|.v.>.>.>.g.|.e.7.,.p.w.x.e.e.e.e.e.",
"e.e.e.y.z.z.A.e.B.j.C.O D.e.e.e.e.e.E.D.F.e.e.e.e.e.e.e.e.e.e.e.e.e.e.e.e.e.G.j.C.O H.e.e.e.e.e.I.D.F.e.e.e.e.e.e.e.e.e.e.e.e.e.",
"e.e.e.J.z.K.L.e.e.e.e.e.e.e.e.e.e.e.e.e.e.e.e.e.e.e.e.e.e.e.e.e.M.y.M.e.e.e.e.e.e.e.e.e.e.N.O.e.e.e.e.A.L.e.e.e.e.e.e.e.e.e.e.e.",
"e.e.e.e.P.L.e.e.e.e.e.e.e.e.e.e.e.e.e.e.e.e.Q.R.S.A.e.e.e.e.e.e.T.z.J.e.e.e.e.e.e.e.e.M.U.z.z.V.L.e.e.R.W.e.e.e.e.M.X.e.e.e.e.e.",
"e.e.e.e.e.e.e.e.e.e.e.e.e.e.e.Y.Z.L.e.e.e.`. +z.z..+M.e.e.e.e.e.e.N.e.e.e.e.e.e.e.e.e.++z.z.z.z.@+e.e.e.e.e.e.e.#+$+%+&+e.e.e.e.",
"y.*+=+-+e.e.e.e.e.e.e.e.e.;+.+z.z.z.&+e.e.P.z.z.z.z.&+e.e.e.e.e.e.e.e.e.T.>+A.e.e.e.,+z.z.z.z.z.z.'+e.e.e.e.e.e.M.K.z.N.e.e.e.M.",
"z.z.z.z.)+A.e.e.e.e.e.e.O.z.z.z.z.%+.+A.e.M..+z.z.!+M.e.e.e.e.e.e.e.e.~+z.z.K.{+e.]+z.z.z.z.z.z.z.^+{+e.e.e.e.e.e.A./+e.{+(+%+z.",
"z.z.z.z.z._+N.e.e.e.M.:+z.z.z.z.z.<+[+K.&+e.&+}+}+&+e.e.e.e.e.e.e.e.e.@+z.z.z.|+M.K.z.z.1+<+z.z.z.z.2+e.e.e.e.e.e.e.e.M..+z.z.z.",
"z.z.z.z.z.z.z.1+~+R.z.z.z.z.z.z.z.z.z.z._+Y.e.e.e.e.e.e.e.e.e.e.e.e.e.(+z.z.3+A.1+z.z.z.(+4+z.z.z.z.z.5+&+e.e.e.e.e.e.6+z.z.z.z.",
"z.z.z.z.z.z.z.z.z.z.z.z.z.z.z.z.z.z.z.z.z.^+7+e.e.e.e.e.e.=+ +V.8+e.e.M.'+}+9+~+z.z.z.z.z.z.z.z.z.z.z.z.^+0+J.e.e.e.]+z.a+!+z.z.",
"z.z.z.z.z.z.z.z.%+z.z.z.z.z.z.z.z.b+c+d+z.z.z.e+Y.e.e.T..+3+z.z.z.)+Q.e.e.e.*+z.z.z.z.z.z.z.z.z.z.z.z.z.z.z.z.f+.+g+z.z.N.R.z.z.",
"z.z.z.z.z.z.z.z.L.J.z.z.z.z.z.z.z.h+i+j+z.z.z.z.z.f+f+z.&+k+$+z.z.z.3+,+~+)+z.z.z.z.l+m+l+z.z.z.z.z.z.z.z.z.z.z.z.z.z.z.z.z.z.z.",
"z.z.z.z.z.z.z.z.O.n+z.z.z.z.z.z.z.o+i+p+z.z.z.z.z.z.z.%+M.e.q+z.z.z.z.z.z.z.z.z.z.r+i+i+s+r+z.z.z.z.z.z.z.z.z.z.z.z.z.z.z.z.z.z.",
"z.z.z.t+u+z.z.z.z.z.z.z.z.z.z.z.z.z.v+z.z.z.z.z.z.z.z.z.@+U.z.z.z.z.z.z.z.z.z.z.z.w+i+i+i+w+z.v+x+l+z.z.z.z.z.z.z.z.z.z.z.z.z.z.",
"z.z.y+h+h+d+z.z.z.z.z.z.z.z.z.z.z.z.z.z.z.z.z.z.z.z.z.z.z.z.z.z.z.z.v+p+u+z.z.z.z.b+i+i+i+b+z.c+i+h+v+z.z.z.z.z.z.z+A+z.z.z.z.z.",
"z.z.B+i+i+r+z.z.z.z.z.z.z.z.z.z.z.z.z.z.z.z.z.z.z.z.z.z.z.z.z.z.z.z.p+i+C+z.z.z.z.z.A+c+D+z.z.E+i+F+^+z.z.z.z.z.z.E+G+z.z.z.z.z.",
"z.z.z.A+H+z.z.z.z.z.z.z.z.z.z.z.z.z.z.z.z.z.z.z.z.z.z.z.z.z.z.z.z.z.v+I+t+z.z.z.z.z.z.z.z.z.z.z.b+t+z.z.z.z.z.z.z.z.z.z.z.z.z.z.",
"z.z.z.z.z.z.z.b+J+J+K+z.z.z.z.z.L+E+I+v+z.z.z.z.z.z.v+z.z.z.z.z.z.z.z.z.z.z.z.z.z.z.z.z.z.z.z.z.z.z.z.z.z.z.u+p+l+z.z.z.z.z.z.z.",
"z.z.z.z.z.z.M+i+i+i+i+b+z.z.z.G+h+i+i+N+d+z.z.z.A+h+i+c+z.z.z.z.z.z.z.z.z.z.z.z.z.z.z.z.z.z.z.z.z.z.z.z.z.z.O+i+h+P+z.z.z.z.z.z.",
"z.z.z.z.z.z.O+i+i+i+i+o+z.z.v+Q+i+i+i+i+R+v+z.v+h+i+i+i+b+z.z.z.z.z.z.z.p+S+R+x+z.z.z.z.z.z.T+E+I+L+z.z.z.z.h+i+i+G+z.z.z.z.z.z.",
"M+b+v+z.z.z.S+i+i+i+i+U+z.z.c+h+V+Q+i+i+i+J+z.u+i+i+i+i+M+z.z.z.z.z.z.K+i+i+i+i+W+z.z.z.z.H+i+i+i+h+m+z.z.z.M+X+c+z.z.z.z.u+K+A+",
"i+i+h+T+z.z.E+i+i+i+i+m+z.L+i+p+z.l+i+i+i+i+x+z.Y+i+i+Q+v+z.z.z.z.z.z.I+i+i+i+i+m+z.z.z.Z+h+i+i+i+i+i+c+z.z.z.z.z.z.z.p+X+i+i+i+",
"i+i+i+h+y+z.z.E+`+F+I+z.t+O+i+m+z.W+i+i+i+i+h+L+z.A+p+u+z.z.z.z.z.z.z.H+i+i+i+i+b+z.z.H+h+i+i+i+i+i+i+i+O+G+z.z.z.b+X+i+i+i+i+i+",
"i+i+i+i+z+z.z.z.z.z.z.m+h+i+i+s+o+`+i+i+i+i+i+O+ @z.z.z.z.z.z.z.v+v+z.z.E+s+h+I+z.z.m+i+i+i+i+i+.@v+r+Q+i+i+N++@Q+i+i+i+i+i+i+i+",
"i+i+s+i+i+I+t+v+G+w+Q+i+i+i+i+i+i+i+i+i+i+i+i+i+j+z.z.z.z.z.t+J+i+i+V+L+z.^+z.z.v+j+i+i+i+i+i+h+z.z.z.I+i+i+i+i+i+i+s+Q+i+i+i+i+",
"i+@@^+x+i+i+i+i+i+i+i+i+i+i+#@$@i+i+i+i+i+i+i+i+i+V+u+z.z.b+F+i+i+i+i+s+%@r+r+I+F+i+i+i+i+i+i+i+u+z.z.&@i+i+i+i+i+i+H+z.O+i+i+i+",
"i+j+z.G+i+i+i+i+i+i+i+i+i+i+*@=@i+i+i+i+i+i+i+i+i+i+h+@@X+i+i+i+h+W+Q+i+i+i+i+i+i+i+i+i+F+i+i+i+O+M+E+i+i+i+i+i+i+i+m+u+R+i+i+i+",
"i+i+U+`+i+i+i+i+i+i+i+i+i+i+i+i+i+i+i+i+i+i+i+i+i+i+i+i+i+i+i+i+i+c+h+i+i+i+i+i+i+i+i+.@z.@@i+i+i+i+i+i+i+i+i+i+i+i+i+i+i+i+i+i+",
"i+i+i+i+i+i+i+i+i+i+i+i+i+i+i+i+i+i+i+i+i+i+i+i+i+i+i+i+i+i+i+i+i+i+i+i+i+i+i+i+i+i+i+@@T+N+i+i+i+i+i+i+i+i+i+i+i+i+i+i+i+i+i+i+",
"i+i+i+i+i+i+i+i+i+I+^+c+i+i+i+i+i+i+i+i+i+i+i+i+O+I+i+i+i+i+i+i+i+i+-@;@$@i+i+i+i+i+i+i+i+i+i+i+i+i+i+i+i+i+i+i+i+i+i+i+i+i+i+i+",
"i+i+i+i+i+i+i+i+i+G+z.A+i+i+i+i+i+i+i+i+i+i+i+i+V+B+i+i+i+i+i+i+i+>@,@,@'@i+i+i+i+i+i+i+i+i+i+i+i+i+i+i+i+i+i+i+i+i+i+i+i+i+i+i+",
"i+i+i+i+i+i+i+i+i+R+w+Q+i+i+i+i+i+i+i+i+i+i+i+i+i+i+i+i+i+i+i+i+i+)@!@,@>@i+i+i+i+i+i+i+i+i+i+i+i+i+i+i+i+i+i+i+i+i+i+i+i+i+i+i+",
"i+i+i+i+i+i+i+i+i+i+i+i+i+i+i+i+i+i+i+i+i+i+i+i+i+i+i+i+i+i+i+i+i+i+$@)@i+i+i+i+i+i+i+i+i+i+i+i+i+i+i+i+i+i+i+i+i+i+i+i+i+i+i+i+",
"i+i+i+i+i+i+i+i+i+i+i+i+i+i+i+i+i+i+i+~@{@]@^@/@i+i+i+i+i+i+i+i+i+i+i+i+i+i+i+i+i+i+i+i+i+i+i+i+i+i+i+i+i+i+i+i+i+i+i+i+i+i+i+i+",
"i+i+i+i+i+i+i+i+i+i+i+i+i+i+i+i+i+i+(@_@,@,@,@,@:@i+i+i+i+i+i+i+i+i+i+i+i+i+i+i+i+i+i+i+i+i+i+i+i+i+i+i+i+i+i+i+i+i+i+i+i+i+i+i+",
"i+i+i+<@<@[@i+i+i+i+i+i+i+i+i+i+i+i+}@,@,@,@,@,@]@i+i+i+i+i+i+i+i+i+i+i+i+i+i+i+i+i+i+i+i+i+i+i+i+i+[@i+i+i+i+i+i+i+i+i+i+i+i+i+",
"i+i+;@,@,@|@i+i+i+i+i+i+i+i+i+i+i+i+1@,@,@,@,@,@,@2@i+i+i+i+i+i+i+i+i+i+i+i+i+i+i+i+i+i+i+i+i+i+2@3@!@4@i+i+i+i+i+i+i+i+i+i+i+i+",
"i+i+1@,@,@!@i+i+i+i+i+i+i+i+i+i+i+i+{@,@,@,@,@,@!@i+i+i+i+i+i+i+i+i+i+i+i+i+i+i+i+i+i+i+i+i+i+i+/@,@,@-@i+i+i+i+i+i+>@5@i+i+i+i+",
"i+i+6@,@,@;@i+i+i+i+i+i+i+i+i+i+i+i+>@,@,@,@,@,@'@i+i+i+i+i+i+i+i+i+i+i+i+i+i+i+i+i+i+i+i+i+i+i+#@}@7@=@i+i+i+i+i+i+:@3@[@i+i+i+",
"i+i+i+>@/@i+i+i+i+i+i+i+i+i+i+i+i+i+i+/@3@,@]@'@i+i+i+i+i+i+i+i+i+i+i+i+i+i+i+i+i+i+i+i+i+i+i+i+i+i+i+i+i+i+i+i+i+i+i+i+i+i+i+i+",
"i+i+i+i+i+i+i+i+i+i+i+i+i+i+i+i+i+i+i+i+i+2@i+i+i+i+i+i+i+i+i+i+i+i+i+i+i+i+(@8@4@i+i+i+i+i+i+i+i+i+i+i+i+i+i+i+i+i+i+i+i+i+i+i+",
"i+i+i+i+i+i+i+i+i+i+i+i+i+i+i+i+i+i+i+i+i+i+i+i+i+i+i+i+i+i+i+i+i+i+i+i+i+=@_@,@,@>@i+i+i+i+i+i+i+i+i+i+i+i+i+i+i+i+i+i+i+i+i+i+",
"i+i+i+i+i+i+i+i+i+i+i+i+i+i+i+i+i+i+i+i+i+i+i+i+i+i+i+i+i+i+i+i+i+i+i+i+i+:@,@,@,@-@i+i+i+i+i+i+i+i+i+i+i+i+i+i+i+i+i+i+i+i+i+i+",
"i+i+i+i+i+i+i+i+i+i+i+i+i+i+i+i+i+i+i+i+i+i+i+i+i+i+i+i+i+i+i+i+i+i+i+i+i+*@_@,@,@9@i+i+i+i+i+i+i+i+i+i+i+i+i+i+i+i+i+i+i+i+i+i+",
"i+i+i+i+i+i+i+i+i+i+i+i+i+i+i+i+i+i+i+i+i+i+i+i+i+i+i+i+i+i+i+i+i+i+i+i+i+i+(@8@4@i+i+i+i+i+i+i+i+i+i+i+i+i+i+i+i+i+i+i+i+i+i+i+",
"i+i+i+i+i+i+i+i+i+i+i+i+i+i+i+i+i+i+i+i+i+i+i+i+i+i+i+i+i+i+i+i+i+i+i+i+i+i+i+i+i+i+i+i+i+i+i+i+i+i+i+i+i+i+i+i+i+i+i+i+i+i+i+i+",
"i+i+i+i+i+i+i+i+i+i+i+i+i+i+i+i+i+i+i+i+i+i+i+i+i+i+i+i+i+i+i+i+i+i+i+i+i+i+i+i+i+i+i+i+i+i+i+i+i+i+i+i+i+i+i+i+i+i+i+i+i+i+i+i+"};
